<svg width="24" height="24" viewBox="0 0 24 24" fill="none" xmlns="http://www.w3.org/2000/svg">
<path fill-rule="evenodd" clip-rule="evenodd" d="M5.25 4.50397C5.25 3.12107 6.37106 2 7.75397 2H16.2241C17.607 2 18.728 3.12107 18.728 4.50397V19.496C18.728 20.8789 17.607 22 16.2241 22H7.75397C6.37106 22 5.25 20.8789 5.25 19.496V4.50397ZM7.75397 3.3658C7.12538 3.3658 6.6158 3.87538 6.6158 4.50397V19.496C6.6158 20.1246 7.12538 20.6342 7.75397 20.6342H16.2241C16.8527 20.6342 17.3622 20.1246 17.3622 19.496V4.50397C17.3622 3.87538 16.8527 3.3658 16.2241 3.3658H15.6752C15.7016 3.45111 15.7159 3.54178 15.7159 3.63579C15.7159 4.13866 15.3082 4.54632 14.8053 4.54632H9.17271C8.66984 4.54632 8.26218 4.13866 8.26218 3.63579C8.26218 3.54178 8.27642 3.45111 8.30287 3.3658H7.75397ZM11.9878 19.4537C12.5024 19.4537 12.9195 19.0365 12.9195 18.5219C12.9195 18.0074 12.5024 17.5902 11.9878 17.5902C11.4732 17.5902 11.0561 18.0074 11.0561 18.5219C11.0561 19.0365 11.4732 19.4537 11.9878 19.4537Z" fill="#F2C94C"/>
</svg>
