<svg width="22" height="16" viewBox="0 0 22 16" fill="none" xmlns="http://www.w3.org/2000/svg">
<path fill-rule="evenodd" clip-rule="evenodd" d="M21.4584 8.69078C21.5927 8.50256 21.6663 8.25034 21.6663 8C21.6663 7.74966 21.5927 7.49744 21.4584 7.30922L15.0584 0.564673C14.8376 0.225869 14.4695 0 14.0408 0H13.5604C12.8851 0 12.333 0.564672 12.333 1.25546C12.333 1.50768 12.4066 1.75801 12.5409 1.94624L17.3565 6.66667H1.66634C0.929962 6.66667 0.333008 7.26362 0.333008 8C0.333008 8.73638 0.929962 9.33333 1.66634 9.33333H17.3565L12.5409 14.0538C12.4066 14.242 12.333 14.4942 12.333 14.7445C12.333 15.4353 12.8851 16 13.5604 16H14.0408C14.4695 16 14.8376 15.7741 15.0584 15.4353L21.4584 8.69078Z" fill="#F2C94C"/>
</svg>
