<svg width="16" height="12" viewBox="0 0 16 12" fill="none" xmlns="http://www.w3.org/2000/svg">
<path fill-rule="evenodd" clip-rule="evenodd" d="M15.844 6.51809C15.9448 6.37692 16 6.18775 16 6C16 5.81225 15.9448 5.62308 15.844 5.48191L11.044 0.423505C10.8784 0.169402 10.6024 0 10.2808 0H9.92055C9.41404 0 9 0.423504 9 0.941592C9 1.13076 9.05521 1.31851 9.15596 1.45968L12.7676 5H1C0.447715 5 0 5.44772 0 6C0 6.55229 0.447716 7 1 7H12.7676L9.15596 10.5403C9.05521 10.6815 9 10.8707 9 11.0584C9 11.5765 9.41404 12 9.92055 12H10.2808C10.6024 12 10.8784 11.8306 11.044 11.5765L15.844 6.51809Z" fill="#242424"/>
</svg>
