<svg width="30" height="38" viewBox="0 0 30 38" fill="none" xmlns="http://www.w3.org/2000/svg">
<path d="M2.07735 14.1895C1.15009 14.1895 0.416016 14.9235 0.416016 15.8508V23.8484C0.416016 24.737 1.15009 25.5097 2.07735 25.5097C3.00461 25.5097 3.73868 24.7756 3.73868 23.8484V15.8508C3.73868 14.9235 3.00461 14.1895 2.07735 14.1895Z" fill="#3B8701"/>
<path d="M28.0031 14.1895C27.0759 14.1895 26.3418 14.9235 26.3418 15.8508V23.8484C26.3418 24.737 27.0759 25.5097 28.0031 25.5097C28.9304 25.5097 29.6645 24.7756 29.6645 23.8484V15.8508C29.6258 14.9235 28.8918 14.1895 28.0031 14.1895Z" fill="#3B8701"/>
<path d="M5.20703 14.1895C5.20703 14.2281 5.20703 14.2281 5.20703 14.2667V28.9869C5.20703 30.3392 6.32747 31.4596 7.67972 31.4596H10.3456V35.6709C10.3456 36.5595 11.0797 37.3322 12.0069 37.3322C12.9342 37.3322 13.6682 36.5982 13.6682 35.6709V31.4596H16.45V35.6709C16.45 36.5595 17.1841 37.3322 18.1114 37.3322C19.0386 37.3322 19.7727 36.5982 19.7727 35.6709V31.4596H22.4386C23.7908 31.4596 24.9112 30.3392 24.9112 28.9869V14.2667C24.9112 14.2281 24.9112 14.2281 24.9112 14.1895H5.20703Z" fill="#3B8701"/>
<path d="M19.8498 4.18186L21.6271 0.89783L21.2407 0.666016L19.5021 3.95005C18.1499 3.29324 16.6431 2.90689 15.059 2.90689C13.5522 2.90689 12.1227 3.25461 10.8477 3.87278L9.10911 0.666016L8.72276 0.859194L10.4227 4.02732C7.40914 5.68865 5.32282 8.89542 5.28418 12.6044H24.8338C24.7952 8.97269 22.7861 5.8432 19.8498 4.18186ZM10.0364 8.85678C9.49547 8.85678 9.07048 8.43179 9.07048 7.92952C9.07048 7.42726 9.49547 7.00227 9.99773 7.00227C10.5 7.00227 10.925 7.42726 10.925 7.92952C10.9636 8.43179 10.5386 8.85678 10.0364 8.85678ZM19.9271 8.85678C19.4248 8.85678 18.9998 8.43179 18.9998 7.92952C18.9998 7.42726 19.4248 7.00227 19.9271 7.00227C20.4294 7.00227 20.8544 7.42726 20.8544 7.92952C20.8544 8.43179 20.4294 8.85678 19.9271 8.85678Z" fill="#3B8701"/>
</svg>
