<svg width="40" height="40" viewBox="0 0 40 40" fill="none" xmlns="http://www.w3.org/2000/svg">
<g opacity="0.9">
<path fill-rule="evenodd" clip-rule="evenodd" d="M8.20418 3.66699C5.69836 3.66699 3.66699 5.6984 3.66699 8.20427V14.4585C3.66699 16.9644 5.69836 18.9958 8.20418 18.9958H14.4583C16.9641 18.9958 18.9955 16.9644 18.9955 14.4585V8.20427C18.9955 5.6984 16.9641 3.66699 14.4583 3.66699H8.20418ZM6.14182 8.20427C6.14182 7.06524 7.06517 6.14187 8.20418 6.14187H14.4583C15.5973 6.14187 16.5207 7.06524 16.5207 8.20427V14.4585C16.5207 15.5975 15.5973 16.5209 14.4583 16.5209H8.20418C7.06517 16.5209 6.14182 15.5975 6.14182 14.4585V8.20427ZM8.20418 21.3407C5.69836 21.3407 3.66699 23.3721 3.66699 25.878V32.1322C3.66699 34.6381 5.69836 36.6695 8.20418 36.6695H14.4583C16.9641 36.6695 18.9955 34.6381 18.9955 32.1322V25.878C18.9955 23.3721 16.9641 21.3407 14.4583 21.3407H8.20418ZM6.14182 25.878C6.14182 24.7389 7.06517 23.8156 8.20418 23.8156H14.4583C15.5973 23.8156 16.5207 24.7389 16.5207 25.878V32.1322C16.5207 33.2712 15.5973 34.1946 14.4583 34.1946H8.20418C7.06517 34.1946 6.14182 33.2712 6.14182 32.1322V25.878ZM21.342 8.20427C21.342 5.6984 23.3733 3.66699 25.8791 3.66699H32.1333C34.6391 3.66699 36.6704 5.6984 36.6704 8.20427V14.4585C36.6704 16.9644 34.6391 18.9958 32.1333 18.9958H25.8791C23.3733 18.9958 21.342 16.9644 21.342 14.4585V8.20427ZM25.8791 6.14187C24.7401 6.14187 23.8168 7.06524 23.8168 8.20427V14.4585C23.8168 15.5975 24.7401 16.5209 25.8791 16.5209H32.1333C33.2723 16.5209 34.1956 15.5975 34.1956 14.4585V8.20427C34.1956 7.06524 33.2723 6.14187 32.1333 6.14187H25.8791ZM29.0062 21.3407C24.7734 21.3407 21.342 24.7721 21.342 29.0051C21.342 33.238 24.7734 36.6695 29.0062 36.6695C33.239 36.6695 36.6704 33.238 36.6704 29.0051C36.6704 24.7721 33.239 21.3407 29.0062 21.3407ZM23.8168 29.0051C23.8168 26.139 26.1402 23.8156 29.0062 23.8156C31.8722 23.8156 34.1956 26.139 34.1956 29.0051C34.1956 31.8712 31.8722 34.1946 29.0062 34.1946C26.1402 34.1946 23.8168 31.8712 23.8168 29.0051Z" fill="#F2C94C" stroke="#F2C94C" stroke-width="0.5"/>
</g>
</svg>
