<svg width="32" height="38" viewBox="0 0 32 38" fill="none" xmlns="http://www.w3.org/2000/svg">
<path fill-rule="evenodd" clip-rule="evenodd" d="M9.6304 9.22855C10.8964 9.22855 12.0314 9.5339 13.1665 9.92649C13.8649 10.1446 14.5198 10.4063 15.2183 10.5808C16.4843 10.8862 17.7066 10.7553 18.9289 10.3191C19.802 9.97011 20.6315 9.66476 21.5483 9.44666C24.2549 8.83596 26.6996 9.44666 28.8823 11.1043C29.4935 11.5405 30.0174 12.0639 30.4976 12.6746C30.6722 12.8927 30.6722 12.9364 30.4103 13.1108C28.1402 14.5067 26.8305 16.5133 26.5686 19.1742C26.3503 21.6606 27.0925 23.798 28.8387 25.6301C29.5808 26.4153 30.4539 26.9824 31.458 27.4186C31.7199 27.5495 31.7636 27.5931 31.6326 27.8548C30.5412 30.4285 29.0569 32.784 27.2234 34.9215C26.6123 35.6194 25.8701 36.2737 25.0407 36.7536C23.731 37.4951 22.3341 37.4951 20.9371 36.928C20.3696 36.7099 19.8021 36.4046 19.2345 36.1865C17.3137 35.5758 15.4365 35.663 13.603 36.4046C13.1228 36.6227 12.6426 36.8408 12.1624 37.0153C10.3725 37.6696 8.75729 37.277 7.27301 36.0992C6.35626 35.4013 5.65778 34.5289 4.9593 33.6128C3.38771 31.519 2.16536 29.2507 1.33592 26.7643C0.724745 25.0194 0.375504 23.1874 0.288194 21.3116C0.157228 19.2614 0.331844 17.2549 1.16129 15.3355C2.47095 12.3693 4.65371 10.3627 7.79688 9.44666C8.40805 9.31579 9.01922 9.22855 9.6304 9.22855Z" fill="#3C3D3B"/>
<path fill-rule="evenodd" clip-rule="evenodd" d="M23.0328 1.50327C23.0328 3.24812 22.4652 4.73125 21.5921 6.08351C20.5444 7.56663 19.1911 8.61354 17.4449 9.22424C16.921 9.39872 16.3535 9.48596 15.786 9.48596C15.5677 9.48596 15.4804 9.39872 15.4804 9.18062C15.3495 7.9156 15.6114 6.6942 16.1789 5.56005C17.2266 3.29175 19.0165 1.85224 21.3302 0.979819C21.8104 0.805334 22.2906 0.718091 22.7708 0.67447C22.9891 0.630849 23.0328 0.761713 23.0328 0.936198C23.0328 1.1543 23.0328 1.37241 23.0328 1.50327Z" fill="#3C3D3B"/>
</svg>
