<svg width="625" height="520" viewBox="0 0 625 520" fill="none" xmlns="http://www.w3.org/2000/svg">
<g opacity="0.08" clip-path="url(#clip0)">
<line x1="-645.5" y1="2" x2="1270.5" y2="2" stroke="#181818" stroke-width="4" stroke-linecap="round" stroke-dasharray="0.01 32"/>
<line x1="-645.5" y1="34" x2="1270.5" y2="34" stroke="#181818" stroke-width="4" stroke-linecap="round" stroke-dasharray="0.01 32"/>
<line x1="-645.5" y1="66" x2="1270.5" y2="66" stroke="#181818" stroke-width="4" stroke-linecap="round" stroke-dasharray="0.01 32"/>
<line x1="-645.5" y1="98" x2="1270.5" y2="98" stroke="#181818" stroke-width="4" stroke-linecap="round" stroke-dasharray="0.01 32"/>
<line x1="-645.5" y1="130" x2="1270.5" y2="130" stroke="#181818" stroke-width="4" stroke-linecap="round" stroke-dasharray="0.01 32"/>
<line x1="-645.5" y1="162" x2="1270.5" y2="162" stroke="#181818" stroke-width="4" stroke-linecap="round" stroke-dasharray="0.01 32"/>
<line x1="-645.5" y1="194" x2="1270.5" y2="194" stroke="#181818" stroke-width="4" stroke-linecap="round" stroke-dasharray="0.01 32"/>
<line x1="-645.5" y1="226" x2="1270.5" y2="226" stroke="#181818" stroke-width="4" stroke-linecap="round" stroke-dasharray="0.01 32"/>
<line x1="-645.5" y1="258" x2="1270.5" y2="258" stroke="#181818" stroke-width="4" stroke-linecap="round" stroke-dasharray="0.01 32"/>
<line x1="-645.5" y1="290" x2="1270.5" y2="290" stroke="#181818" stroke-width="4" stroke-linecap="round" stroke-dasharray="0.01 32"/>
<line x1="-645.5" y1="322" x2="1270.5" y2="322" stroke="#181818" stroke-width="4" stroke-linecap="round" stroke-dasharray="0.01 32"/>
<line x1="-645.5" y1="354" x2="1270.5" y2="354" stroke="#181818" stroke-width="4" stroke-linecap="round" stroke-dasharray="0.01 32"/>
<line x1="-645.5" y1="386" x2="1270.5" y2="386" stroke="#181818" stroke-width="4" stroke-linecap="round" stroke-dasharray="0.01 32"/>
<line x1="-645.5" y1="418" x2="1270.5" y2="418" stroke="#181818" stroke-width="4" stroke-linecap="round" stroke-dasharray="0.01 32"/>
<line x1="-645.5" y1="450" x2="1270.5" y2="450" stroke="#181818" stroke-width="4" stroke-linecap="round" stroke-dasharray="0.01 32"/>
<line x1="-645.5" y1="482" x2="1270.5" y2="482" stroke="#181818" stroke-width="4" stroke-linecap="round" stroke-dasharray="0.01 32"/>
<line x1="-645.5" y1="514" x2="1270.5" y2="514" stroke="#181818" stroke-width="4" stroke-linecap="round" stroke-dasharray="0.01 32"/>
</g>
<defs>
<clipPath id="clip0">
<rect width="625" height="520" fill="white"/>
</clipPath>
</defs>
</svg>
