<svg width="40" height="40" viewBox="0 0 40 40" fill="none" xmlns="http://www.w3.org/2000/svg">
<path d="M37.35 19.2543C35.7297 11.956 33.2912 8.06067 29.674 6.99664C28.9136 6.77443 28.1249 6.66342 27.3325 6.66708C26.2852 6.66708 25.373 6.92129 24.4082 7.19072C23.2455 7.51571 21.9246 7.88485 19.9988 7.88485C18.0729 7.88485 16.7513 7.51648 15.5863 7.19148C14.6207 6.92129 13.7093 6.66708 12.665 6.66708C11.8456 6.66425 11.0298 6.77491 10.241 6.99588C6.64291 8.05534 4.20597 11.9492 2.56198 19.2497C0.794244 27.1059 1.66436 32.066 5.00199 33.2168C5.45949 33.3775 5.94087 33.4603 6.42596 33.4619C8.71241 33.4619 10.5458 31.5644 11.7987 30.011C13.2143 28.2528 14.8712 27.3608 19.9988 27.3608C24.5785 27.3608 26.4738 27.9796 28.111 30.011C29.14 31.2881 30.1125 32.1817 31.0827 32.7441C32.3729 33.4915 33.6625 33.6575 34.9145 33.229C36.887 32.5584 38.0176 30.7858 38.2758 27.9591C38.4722 25.7914 38.1697 22.9441 37.35 19.2543ZM16.3319 18.8448H13.8873V21.2803C13.8873 21.6033 13.7585 21.9131 13.5293 22.1414C13.3001 22.3698 12.9892 22.4981 12.665 22.4981C12.3408 22.4981 12.0299 22.3698 11.8007 22.1414C11.5715 21.9131 11.4427 21.6033 11.4427 21.2803V18.8448H8.99812C8.67395 18.8448 8.36305 18.7165 8.13383 18.4881C7.9046 18.2597 7.77583 17.95 7.77583 17.627C7.77583 17.3041 7.9046 16.9943 8.13383 16.7659C8.36305 16.5376 8.67395 16.4093 8.99812 16.4093H11.4427V13.9737C11.4427 13.6507 11.5715 13.341 11.8007 13.1126C12.0299 12.8842 12.3408 12.7559 12.665 12.7559C12.9892 12.7559 13.3001 12.8842 13.5293 13.1126C13.7585 13.341 13.8873 13.6507 13.8873 13.9737V16.4093H16.3319C16.656 16.4093 16.9669 16.5376 17.1962 16.7659C17.4254 16.9943 17.5542 17.3041 17.5542 17.627C17.5542 17.95 17.4254 18.2597 17.1962 18.4881C16.9669 18.7165 16.656 18.8448 16.3319 18.8448ZM22.7489 19.1492C22.4467 19.1492 22.1513 19.06 21.9001 18.8927C21.6488 18.7254 21.453 18.4877 21.3373 18.2096C21.2217 17.9314 21.1915 17.6253 21.2504 17.3301C21.3094 17.0348 21.4549 16.7635 21.6685 16.5507C21.8822 16.3378 22.1545 16.1928 22.4508 16.1341C22.7472 16.0753 23.0544 16.1055 23.3336 16.2207C23.6128 16.3359 23.8514 16.531 24.0193 16.7813C24.1872 17.0317 24.2768 17.326 24.2768 17.627C24.2768 18.0307 24.1158 18.4179 23.8293 18.7034C23.5427 18.9889 23.1541 19.1492 22.7489 19.1492ZM26.1102 22.4981C25.8079 22.4981 25.5123 22.4087 25.261 22.2413C25.0096 22.0739 24.8138 21.8359 24.6983 21.5575C24.5828 21.2792 24.5527 20.9729 24.612 20.6775C24.6713 20.3821 24.8172 20.1109 25.0312 19.8982C25.2453 19.6854 25.5179 19.5408 25.8145 19.4825C26.1111 19.4242 26.4184 19.4549 26.6976 19.5706C26.9767 19.6864 27.215 19.8821 27.3824 20.133C27.5499 20.3838 27.6388 20.6785 27.6381 20.9797C27.6371 21.3828 27.4757 21.769 27.1892 22.0536C26.9028 22.3383 26.5148 22.4981 26.1102 22.4981ZM26.1102 15.8004C25.808 15.8004 25.5126 15.7111 25.2614 15.5438C25.0101 15.3766 24.8143 15.1388 24.6987 14.8607C24.583 14.5825 24.5528 14.2765 24.6117 13.9812C24.6707 13.6859 24.8162 13.4147 25.0299 13.2018C25.2435 12.9889 25.5158 12.8439 25.8121 12.7852C26.1085 12.7265 26.4157 12.7566 26.6949 12.8718C26.9741 12.987 27.2127 13.1821 27.3806 13.4325C27.5485 13.6828 27.6381 13.9771 27.6381 14.2782C27.6381 14.6819 27.4771 15.069 27.1906 15.3545C26.9041 15.64 26.5154 15.8004 26.1102 15.8004ZM29.4715 19.1492C29.1693 19.1492 28.8739 19.06 28.6227 18.8927C28.3714 18.7254 28.1756 18.4877 28.06 18.2096C27.9443 17.9314 27.9141 17.6253 27.973 17.3301C28.032 17.0348 28.1775 16.7635 28.3912 16.5507C28.6048 16.3378 28.8771 16.1928 29.1734 16.1341C29.4698 16.0753 29.777 16.1055 30.0562 16.2207C30.3354 16.3359 30.574 16.531 30.7419 16.7813C30.9098 17.0317 30.9994 17.326 30.9994 17.627C30.9994 18.0307 30.8384 18.4179 30.5519 18.7034C30.2654 18.9889 29.8767 19.1492 29.4715 19.1492Z" fill="#F2C94C"/>
</svg>
