<svg width="185" height="181" viewBox="0 0 185 181" fill="none" xmlns="http://www.w3.org/2000/svg">
<g opacity="0.24">
<path d="M5.50206 119.082C5.50206 120.606 4.27628 121.832 2.75152 121.832C1.22676 121.832 0.000976562 120.606 0.000976562 119.082C0.000976562 117.557 1.22676 116.331 2.75152 116.331C4.27628 116.331 5.50206 117.557 5.50206 119.082Z" fill="#242424"/>
<path d="M23.1134 119.082C23.1134 120.606 21.8876 121.832 20.3628 121.832C18.8381 121.832 17.6123 120.606 17.6123 119.082C17.6123 117.557 18.8381 116.331 20.3628 116.331C21.8876 116.331 23.1134 117.557 23.1134 119.082Z" fill="#242424"/>
<path d="M40.7189 119.082C40.7189 120.606 39.4931 121.832 37.9683 121.832C36.4436 121.832 35.2178 120.606 35.2178 119.082C35.2178 117.557 36.4436 116.331 37.9683 116.331C39.4931 116.331 40.7189 117.557 40.7189 119.082Z" fill="#242424"/>
<path d="M58.3302 119.082C58.3302 120.606 57.1044 121.832 55.5796 121.832C54.0549 121.832 52.8291 120.606 52.8291 119.082C52.8291 117.557 54.0549 116.331 55.5796 116.331C57.1044 116.331 58.3302 117.557 58.3302 119.082Z" fill="#242424"/>
<path d="M75.9415 119.082C75.9415 120.606 74.7157 121.832 73.191 121.832C71.6662 121.832 70.4404 120.606 70.4404 119.082C70.4404 117.557 71.6662 116.331 73.191 116.331C74.7157 116.331 75.9415 117.557 75.9415 119.082Z" fill="#242424"/>
<path d="M93.547 119.082C93.547 120.606 92.3212 121.832 90.7964 121.832C89.2717 121.832 88.0459 120.606 88.0459 119.082C88.0459 117.557 89.2717 116.331 90.7964 116.331C92.3212 116.331 93.547 117.557 93.547 119.082Z" fill="#242424"/>
<path d="M111.158 119.082C111.158 120.606 109.933 121.832 108.408 121.832C106.883 121.832 105.657 120.606 105.657 119.082C105.657 117.557 106.883 116.331 108.408 116.331C109.933 116.331 111.158 117.557 111.158 119.082Z" fill="#242424"/>
<path d="M128.77 119.082C128.77 120.606 127.544 121.832 126.019 121.832C124.494 121.832 123.269 120.606 123.269 119.082C123.269 117.557 124.494 116.331 126.019 116.331C127.544 116.331 128.77 117.557 128.77 119.082Z" fill="#242424"/>
<path d="M5.50206 102.457C5.50206 103.981 4.27628 105.207 2.75152 105.207C1.22676 105.207 0.000976562 103.981 0.000976562 102.457C0.000976562 100.932 1.22676 99.7061 2.75152 99.7061C4.27628 99.7061 5.50206 100.932 5.50206 102.457Z" fill="#242424"/>
<path d="M23.1134 102.457C23.1134 103.981 21.8876 105.207 20.3628 105.207C18.8381 105.207 17.6123 103.981 17.6123 102.457C17.6123 100.932 18.8381 99.7061 20.3628 99.7061C21.8876 99.7061 23.1134 100.932 23.1134 102.457Z" fill="#242424"/>
<path d="M40.7189 102.457C40.7189 103.981 39.4931 105.207 37.9683 105.207C36.4436 105.207 35.2178 103.981 35.2178 102.457C35.2178 100.932 36.4436 99.7061 37.9683 99.7061C39.4931 99.7061 40.7189 100.932 40.7189 102.457Z" fill="#242424"/>
<path d="M58.3302 102.457C58.3302 103.981 57.1044 105.207 55.5796 105.207C54.0549 105.207 52.8291 103.981 52.8291 102.457C52.8291 100.932 54.0549 99.7061 55.5796 99.7061C57.1044 99.7061 58.3302 100.932 58.3302 102.457Z" fill="#242424"/>
<path d="M75.9415 102.457C75.9415 103.981 74.7157 105.207 73.191 105.207C71.6662 105.207 70.4404 103.981 70.4404 102.457C70.4404 100.932 71.6662 99.7061 73.191 99.7061C74.7157 99.7061 75.9415 100.932 75.9415 102.457Z" fill="#242424"/>
<path d="M93.547 102.457C93.547 103.981 92.3212 105.207 90.7964 105.207C89.2717 105.207 88.0459 103.981 88.0459 102.457C88.0459 100.932 89.2717 99.7061 90.7964 99.7061C92.3212 99.7061 93.547 100.932 93.547 102.457Z" fill="#242424"/>
<path d="M111.158 102.457C111.158 103.981 109.933 105.207 108.408 105.207C106.883 105.207 105.657 103.981 105.657 102.457C105.657 100.932 106.883 99.7061 108.408 99.7061C109.933 99.7061 111.158 100.932 111.158 102.457Z" fill="#242424"/>
<path d="M128.77 102.457C128.77 103.981 127.544 105.207 126.019 105.207C124.494 105.207 123.269 103.981 123.269 102.457C123.269 100.932 124.494 99.7061 126.019 99.7061C127.544 99.7061 128.77 100.932 128.77 102.457Z" fill="#242424"/>
<path d="M5.50206 85.8345C5.50206 87.3592 4.27628 88.5851 2.75152 88.5851C1.22676 88.5851 0.000976562 87.3592 0.000976562 85.8345C0.000976562 84.3097 1.22676 83.084 2.75152 83.084C4.27628 83.084 5.50206 84.3097 5.50206 85.8345Z" fill="#242424"/>
<path d="M23.1134 85.8345C23.1134 87.3592 21.8876 88.5851 20.3628 88.5851C18.8381 88.5851 17.6123 87.3592 17.6123 85.8345C17.6123 84.3097 18.8381 83.084 20.3628 83.084C21.8876 83.084 23.1134 84.3097 23.1134 85.8345Z" fill="#242424"/>
<path d="M40.7189 85.8345C40.7189 87.3592 39.4931 88.5851 37.9683 88.5851C36.4436 88.5851 35.2178 87.3592 35.2178 85.8345C35.2178 84.3097 36.4436 83.084 37.9683 83.084C39.4931 83.084 40.7189 84.3097 40.7189 85.8345Z" fill="#242424"/>
<path d="M58.3302 85.8345C58.3302 87.3592 57.1044 88.5851 55.5796 88.5851C54.0549 88.5851 52.8291 87.3592 52.8291 85.8345C52.8291 84.3097 54.0549 83.084 55.5796 83.084C57.1044 83.084 58.3302 84.3097 58.3302 85.8345Z" fill="#242424"/>
<path d="M75.9415 85.8345C75.9415 87.3592 74.7157 88.5851 73.191 88.5851C71.6662 88.5851 70.4404 87.3592 70.4404 85.8345C70.4404 84.3097 71.6662 83.084 73.191 83.084C74.7157 83.084 75.9415 84.3097 75.9415 85.8345Z" fill="#242424"/>
<path d="M93.547 85.8345C93.547 87.3592 92.3212 88.5851 90.7964 88.5851C89.2717 88.5851 88.0459 87.3592 88.0459 85.8345C88.0459 84.3097 89.2717 83.084 90.7964 83.084C92.3212 83.084 93.547 84.3097 93.547 85.8345Z" fill="#242424"/>
<path d="M111.158 85.8345C111.158 87.3592 109.933 88.5851 108.408 88.5851C106.883 88.5851 105.657 87.3592 105.657 85.8345C105.657 84.3097 106.883 83.084 108.408 83.084C109.933 83.084 111.158 84.3097 111.158 85.8345Z" fill="#242424"/>
<path d="M128.77 85.8345C128.77 87.3592 127.544 88.5851 126.019 88.5851C124.494 88.5851 123.269 87.3592 123.269 85.8345C123.269 84.3097 124.494 83.084 126.019 83.084C127.544 83.084 128.77 84.3097 128.77 85.8345Z" fill="#242424"/>
<path d="M5.50206 69.2134C5.50206 70.7381 4.27628 71.964 2.75152 71.964C1.22676 71.964 0.000976562 70.7381 0.000976562 69.2134C0.000976562 67.6886 1.22676 66.4629 2.75152 66.4629C4.27628 66.4629 5.50206 67.7185 5.50206 69.2134Z" fill="#242424"/>
<path d="M23.1134 69.2134C23.1134 70.7381 21.8876 71.964 20.3628 71.964C18.8381 71.964 17.6123 70.7381 17.6123 69.2134C17.6123 67.6886 18.8381 66.4629 20.3628 66.4629C21.8876 66.4629 23.1134 67.7185 23.1134 69.2134Z" fill="#242424"/>
<path d="M40.7189 69.2134C40.7189 70.7381 39.4931 71.964 37.9683 71.964C36.4436 71.964 35.2178 70.7381 35.2178 69.2134C35.2178 67.6886 36.4436 66.4629 37.9683 66.4629C39.4931 66.4629 40.7189 67.7185 40.7189 69.2134Z" fill="#242424"/>
<path d="M58.3302 69.2134C58.3302 70.7381 57.1044 71.964 55.5796 71.964C54.0549 71.964 52.8291 70.7381 52.8291 69.2134C52.8291 67.6886 54.0549 66.4629 55.5796 66.4629C57.1044 66.4629 58.3302 67.7185 58.3302 69.2134Z" fill="#242424"/>
<path d="M75.9415 69.2134C75.9415 70.7381 74.7157 71.964 73.191 71.964C71.6662 71.964 70.4404 70.7381 70.4404 69.2134C70.4404 67.6886 71.6662 66.4629 73.191 66.4629C74.7157 66.4629 75.9415 67.7185 75.9415 69.2134Z" fill="#242424"/>
<path d="M93.547 69.2134C93.547 70.7381 92.3212 71.964 90.7964 71.964C89.2717 71.964 88.0459 70.7381 88.0459 69.2134C88.0459 67.6886 89.2717 66.4629 90.7964 66.4629C92.3212 66.4629 93.547 67.7185 93.547 69.2134Z" fill="#242424"/>
<path d="M111.158 69.2134C111.158 70.7381 109.933 71.964 108.408 71.964C106.883 71.964 105.657 70.7381 105.657 69.2134C105.657 67.6886 106.883 66.4629 108.408 66.4629C109.933 66.4629 111.158 67.7185 111.158 69.2134Z" fill="#242424"/>
<path d="M128.77 69.2134C128.77 70.7381 127.544 71.964 126.019 71.964C124.494 71.964 123.269 70.7381 123.269 69.2134C123.269 67.6886 124.494 66.4629 126.019 66.4629C127.544 66.4629 128.77 67.7185 128.77 69.2134Z" fill="#242424"/>
<path d="M5.50206 52.5884C5.50206 54.1131 4.27628 55.339 2.75152 55.339C1.22676 55.339 0.000976562 54.1131 0.000976562 52.5884C0.000976562 51.0636 1.22676 49.8379 2.75152 49.8379C4.27628 49.8379 5.50206 51.0935 5.50206 52.5884Z" fill="#242424"/>
<path d="M23.1134 52.5884C23.1134 54.1131 21.8876 55.339 20.3628 55.339C18.8381 55.339 17.6123 54.1131 17.6123 52.5884C17.6123 51.0636 18.8381 49.8379 20.3628 49.8379C21.8876 49.8379 23.1134 51.0935 23.1134 52.5884Z" fill="#242424"/>
<path d="M40.7189 52.5884C40.7189 54.1131 39.4931 55.339 37.9683 55.339C36.4436 55.339 35.2178 54.1131 35.2178 52.5884C35.2178 51.0636 36.4436 49.8379 37.9683 49.8379C39.4931 49.8379 40.7189 51.0935 40.7189 52.5884Z" fill="#242424"/>
<path d="M58.3302 52.5884C58.3302 54.1131 57.1044 55.339 55.5796 55.339C54.0549 55.339 52.8291 54.1131 52.8291 52.5884C52.8291 51.0636 54.0549 49.8379 55.5796 49.8379C57.1044 49.8379 58.3302 51.0935 58.3302 52.5884Z" fill="#242424"/>
<path d="M75.9415 52.5884C75.9415 54.1131 74.7157 55.339 73.191 55.339C71.6662 55.339 70.4404 54.1131 70.4404 52.5884C70.4404 51.0636 71.6662 49.8379 73.191 49.8379C74.7157 49.8379 75.9415 51.0935 75.9415 52.5884Z" fill="#242424"/>
<path d="M93.547 52.5884C93.547 54.1131 92.3212 55.339 90.7964 55.339C89.2717 55.339 88.0459 54.1131 88.0459 52.5884C88.0459 51.0636 89.2717 49.8379 90.7964 49.8379C92.3212 49.8379 93.547 51.0935 93.547 52.5884Z" fill="#242424"/>
<path d="M111.158 52.5884C111.158 54.1131 109.933 55.339 108.408 55.339C106.883 55.339 105.657 54.1131 105.657 52.5884C105.657 51.0636 106.883 49.8379 108.408 49.8379C109.933 49.8379 111.158 51.0935 111.158 52.5884Z" fill="#242424"/>
<path d="M128.77 52.5884C128.77 54.1131 127.544 55.339 126.019 55.339C124.494 55.339 123.269 54.1131 123.269 52.5884C123.269 51.0636 124.494 49.8379 126.019 49.8379C127.544 49.8379 128.77 51.0935 128.77 52.5884Z" fill="#242424"/>
<path d="M5.50206 35.9972C5.50206 37.522 4.27628 38.7477 2.75152 38.7477C1.22676 38.7477 0.000976562 37.522 0.000976562 35.9972C0.000976562 34.4724 1.22676 33.2466 2.75152 33.2466C4.27628 33.2167 5.50206 34.4724 5.50206 35.9972Z" fill="#242424"/>
<path d="M23.1134 35.9972C23.1134 37.522 21.8876 38.7477 20.3628 38.7477C18.8381 38.7477 17.6123 37.522 17.6123 35.9972C17.6123 34.4724 18.8381 33.2466 20.3628 33.2466C21.8876 33.2167 23.1134 34.4724 23.1134 35.9972Z" fill="#242424"/>
<path d="M40.7189 35.9967C40.7189 37.5214 39.4931 38.7472 37.9683 38.7472C36.4436 38.7472 35.2178 37.5214 35.2178 35.9967C35.2178 34.4719 36.4436 33.2461 37.9683 33.2461C39.4931 33.2461 40.7189 34.4719 40.7189 35.9967Z" fill="#242424"/>
<path d="M58.3302 35.9972C58.3302 37.522 57.1044 38.7477 55.5796 38.7477C54.0549 38.7477 52.8291 37.522 52.8291 35.9972C52.8291 34.4724 54.0549 33.2466 55.5796 33.2466C57.1044 33.2167 58.3302 34.4724 58.3302 35.9972Z" fill="#242424"/>
<path d="M75.9415 35.9972C75.9415 37.522 74.7157 38.7477 73.191 38.7477C71.6662 38.7477 70.4404 37.522 70.4404 35.9972C70.4404 34.4724 71.6662 33.2466 73.191 33.2466C74.7157 33.2167 75.9415 34.4724 75.9415 35.9972Z" fill="#242424"/>
<path d="M93.547 35.9967C93.547 37.5214 92.3212 38.7472 90.7964 38.7472C89.2717 38.7472 88.0459 37.5214 88.0459 35.9967C88.0459 34.4719 89.2717 33.2461 90.7964 33.2461C92.3212 33.2461 93.547 34.4719 93.547 35.9967Z" fill="#242424"/>
<path d="M111.158 35.9972C111.158 37.522 109.933 38.7477 108.408 38.7477C106.883 38.7477 105.657 37.522 105.657 35.9972C105.657 34.4724 106.883 33.2466 108.408 33.2466C109.933 33.2167 111.158 34.4724 111.158 35.9972Z" fill="#242424"/>
<path d="M128.77 35.9967C128.77 37.5214 127.544 38.7472 126.019 38.7472C124.494 38.7472 123.269 37.5214 123.269 35.9967C123.269 34.4719 124.494 33.2461 126.019 33.2461C127.544 33.2461 128.77 34.4719 128.77 35.9967Z" fill="#242424"/>
<path d="M5.50206 19.3717C5.50206 20.8964 4.27628 22.1222 2.75152 22.1222C1.22676 22.1222 0.000976562 20.8964 0.000976562 19.3717C0.000976562 17.8469 1.22676 16.6211 2.75152 16.6211C4.27628 16.6211 5.50206 17.8469 5.50206 19.3717Z" fill="#242424"/>
<path d="M23.1134 19.3717C23.1134 20.8964 21.8876 22.1222 20.3628 22.1222C18.8381 22.1222 17.6123 20.8964 17.6123 19.3717C17.6123 17.8469 18.8381 16.6211 20.3628 16.6211C21.8876 16.6211 23.1134 17.8469 23.1134 19.3717Z" fill="#242424"/>
<path d="M40.7189 19.3717C40.7189 20.8964 39.4931 22.1222 37.9683 22.1222C36.4436 22.1222 35.2178 20.8964 35.2178 19.3717C35.2178 17.8469 36.4436 16.6211 37.9683 16.6211C39.4931 16.6211 40.7189 17.8469 40.7189 19.3717Z" fill="#242424"/>
<path d="M58.3302 19.3717C58.3302 20.8964 57.1044 22.1222 55.5796 22.1222C54.0549 22.1222 52.8291 20.8964 52.8291 19.3717C52.8291 17.8469 54.0549 16.6211 55.5796 16.6211C57.1044 16.6211 58.3302 17.8469 58.3302 19.3717Z" fill="#242424"/>
<path d="M75.9415 19.3717C75.9415 20.8964 74.7157 22.1222 73.191 22.1222C71.6662 22.1222 70.4404 20.8964 70.4404 19.3717C70.4404 17.8469 71.6662 16.6211 73.191 16.6211C74.7157 16.6211 75.9415 17.8469 75.9415 19.3717Z" fill="#242424"/>
<path d="M93.547 19.3717C93.547 20.8964 92.3212 22.1222 90.7964 22.1222C89.2717 22.1222 88.0459 20.8964 88.0459 19.3717C88.0459 17.8469 89.2717 16.6211 90.7964 16.6211C92.3212 16.6211 93.547 17.8469 93.547 19.3717Z" fill="#242424"/>
<path d="M111.158 19.3717C111.158 20.8964 109.933 22.1222 108.408 22.1222C106.883 22.1222 105.657 20.8964 105.657 19.3717C105.657 17.8469 106.883 16.6211 108.408 16.6211C109.933 16.6211 111.158 17.8469 111.158 19.3717Z" fill="#242424"/>
<path d="M128.77 19.3717C128.77 20.8964 127.544 22.1222 126.019 22.1222C124.494 22.1222 123.269 20.8964 123.269 19.3717C123.269 17.8469 124.494 16.6211 126.019 16.6211C127.544 16.6211 128.77 17.8469 128.77 19.3717Z" fill="#242424"/>
<path d="M5.50206 2.75058C5.50206 4.27534 4.27628 5.50107 2.75152 5.50107C1.22676 5.50107 0.000976562 4.27534 0.000976562 2.75058C0.000976562 1.22583 1.22676 0 2.75152 0C4.27628 0 5.50206 1.22583 5.50206 2.75058Z" fill="#242424"/>
<path d="M23.1134 2.75058C23.1134 4.27534 21.8876 5.50107 20.3628 5.50107C18.8381 5.50107 17.6123 4.27534 17.6123 2.75058C17.6123 1.22583 18.8381 0 20.3628 0C21.8876 0 23.1134 1.22583 23.1134 2.75058Z" fill="#242424"/>
<path d="M40.7189 2.75058C40.7189 4.27534 39.4931 5.50107 37.9683 5.50107C36.4436 5.50107 35.2178 4.27534 35.2178 2.75058C35.2178 1.22583 36.4436 0 37.9683 0C39.4931 0 40.7189 1.22583 40.7189 2.75058Z" fill="#242424"/>
<path d="M58.3302 2.75058C58.3302 4.27534 57.1044 5.50107 55.5796 5.50107C54.0549 5.50107 52.8291 4.27534 52.8291 2.75058C52.8291 1.22583 54.0549 0 55.5796 0C57.1044 0 58.3302 1.22583 58.3302 2.75058Z" fill="#242424"/>
<path d="M75.9415 2.75058C75.9415 4.27534 74.7157 5.50107 73.191 5.50107C71.6662 5.50107 70.4404 4.27534 70.4404 2.75058C70.4404 1.22583 71.6662 0 73.191 0C74.7157 0 75.9415 1.22583 75.9415 2.75058Z" fill="#242424"/>
<path d="M93.547 2.75058C93.547 4.27534 92.3212 5.50107 90.7964 5.50107C89.2717 5.50107 88.0459 4.27534 88.0459 2.75058C88.0459 1.22583 89.2717 0 90.7964 0C92.3212 0 93.547 1.22583 93.547 2.75058Z" fill="#242424"/>
<path d="M111.158 2.75058C111.158 4.27534 109.933 5.50107 108.408 5.50107C106.883 5.50107 105.657 4.27534 105.657 2.75058C105.657 1.22583 106.883 0 108.408 0C109.933 0 111.158 1.22583 111.158 2.75058Z" fill="#242424"/>
<path d="M128.77 2.75058C128.77 4.27534 127.544 5.50107 126.019 5.50107C124.494 5.50107 123.269 4.27534 123.269 2.75058C123.269 1.22583 124.494 0 126.019 0C127.544 0 128.77 1.22583 128.77 2.75058Z" fill="#242424"/>
</g>
<path d="M179.087 180.31H66.5842C63.8934 180.31 61.7109 178.128 61.7109 175.437V62.9337C61.7109 60.243 63.8934 58.0605 66.5842 58.0605H179.087C181.778 58.0605 183.961 60.243 183.961 62.9337V175.437C183.961 178.128 181.778 180.31 179.087 180.31Z" stroke="#F2C94C" stroke-width="0.889" stroke-miterlimit="10"/>
</svg>
