<svg width="99" height="248" viewBox="0 0 99 248" fill="none" xmlns="http://www.w3.org/2000/svg">
<g opacity="0.24">
<path d="M-2.5504 217.428C-1.33517 218.643 -1.33515 220.611 -2.55038 221.826C-3.76561 223.042 -5.73386 223.042 -6.94909 221.826C-8.16433 220.611 -8.16431 218.643 -6.94908 217.428C-5.73385 216.212 -3.76564 216.212 -2.5504 217.428Z" stroke="#242424" stroke-width="1.1786" stroke-miterlimit="10" stroke-linecap="round" stroke-linejoin="round"/>
<path d="M11.5033 207.768C12.718 206.553 12.718 204.584 11.5033 203.369C10.2886 202.154 8.31927 202.154 7.10461 203.369C5.88994 204.584 5.88995 206.553 7.10462 207.768C8.31928 208.982 10.2886 208.982 11.5033 207.768Z" stroke="#242424" stroke-width="1.1786" stroke-miterlimit="10" stroke-linecap="round" stroke-linejoin="round"/>
<path d="M25.5589 193.712C26.7735 192.497 26.7735 190.528 25.5589 189.313C24.3442 188.099 22.3749 188.099 21.1603 189.313C19.9456 190.528 19.9456 192.497 21.1602 193.712C22.3749 194.927 24.3442 194.927 25.5589 193.712Z" stroke="#242424" stroke-width="1.1786" stroke-miterlimit="10" stroke-linecap="round" stroke-linejoin="round"/>
<path d="M39.6176 179.654C40.8323 178.44 40.8323 176.47 39.6176 175.256C38.4029 174.041 36.4336 174.041 35.2189 175.256C34.0042 176.47 34.0042 178.44 35.2189 179.654C36.4335 180.869 38.4029 180.869 39.6176 179.654Z" stroke="#242424" stroke-width="1.1786" stroke-miterlimit="10" stroke-linecap="round" stroke-linejoin="round"/>
<path d="M53.6654 165.607C54.8801 164.392 54.88 162.423 53.6654 161.208C52.4507 159.993 50.4814 159.993 49.2667 161.208C48.0521 162.423 48.0521 164.392 49.2667 165.607C50.4814 166.821 52.4508 166.821 53.6654 165.607Z" stroke="#242424" stroke-width="1.1786" stroke-miterlimit="10" stroke-linecap="round" stroke-linejoin="round"/>
<path d="M67.7231 151.549C68.9377 150.334 68.9377 148.365 67.7231 147.15C66.5084 145.936 64.539 145.936 63.3244 147.15C62.1097 148.365 62.1097 150.334 63.3243 151.549C64.539 152.764 66.5084 152.764 67.7231 151.549Z" stroke="#242424" stroke-width="1.1786" stroke-miterlimit="10" stroke-linecap="round" stroke-linejoin="round"/>
<path d="M81.7787 137.492C82.9934 136.278 82.9934 134.308 81.7787 133.094C80.5641 131.879 78.5947 131.879 77.38 133.094C76.1654 134.308 76.1653 136.278 77.38 137.492C78.5947 138.707 80.5641 138.707 81.7787 137.492Z" stroke="#242424" stroke-width="1.1786" stroke-miterlimit="10" stroke-linecap="round" stroke-linejoin="round"/>
<path d="M95.8264 119.046C97.0416 120.261 97.0416 122.229 95.8264 123.445C94.6112 124.66 92.643 124.66 91.4278 123.445C90.2126 122.229 90.2126 120.261 91.4278 119.046C92.643 117.83 94.6112 117.83 95.8264 119.046Z" stroke="#242424" stroke-width="1.1786" stroke-miterlimit="10" stroke-linecap="round" stroke-linejoin="round"/>
<path d="M-1.76136 194.504C-0.546695 193.289 -0.546684 191.32 -1.76135 190.105C-2.97601 188.891 -4.94538 188.891 -6.16004 190.105C-7.37471 191.32 -7.3747 193.289 -6.16003 194.504C-4.94537 195.719 -2.97602 195.719 -1.76136 194.504Z" stroke="#242424" stroke-width="1.1786" stroke-miterlimit="10" stroke-linecap="round" stroke-linejoin="round"/>
<path d="M12.2943 180.448C13.509 179.234 13.509 177.264 12.2943 176.05C11.0797 174.835 9.11031 174.835 7.89564 176.05C6.68098 177.264 6.68097 179.234 7.89563 180.448C9.1103 181.663 11.0797 181.663 12.2943 180.448Z" stroke="#242424" stroke-width="1.1786" stroke-miterlimit="10" stroke-linecap="round" stroke-linejoin="round"/>
<path d="M26.3518 166.391C27.5665 165.176 27.5665 163.207 26.3519 161.992C25.1372 160.777 23.1679 160.777 21.9532 161.992C20.7386 163.207 20.7386 165.176 21.9532 166.391C23.1679 167.606 25.1372 167.606 26.3518 166.391Z" stroke="#242424" stroke-width="1.1786" stroke-miterlimit="10" stroke-linecap="round" stroke-linejoin="round"/>
<path d="M40.3997 152.343C41.6143 151.128 41.6143 149.159 40.3996 147.944C39.185 146.729 37.2157 146.729 36.0011 147.944C34.7864 149.159 34.7864 151.128 36.0011 152.343C37.2157 153.558 39.185 153.558 40.3997 152.343Z" stroke="#242424" stroke-width="1.1786" stroke-miterlimit="10" stroke-linecap="round" stroke-linejoin="round"/>
<path d="M54.4584 138.284C55.6731 137.07 55.6731 135.1 54.4584 133.886C53.2438 132.671 51.2744 132.671 50.0597 133.886C48.845 135.1 48.845 137.07 50.0597 138.284C51.2744 139.499 53.2437 139.499 54.4584 138.284Z" stroke="#242424" stroke-width="1.1786" stroke-miterlimit="10" stroke-linecap="round" stroke-linejoin="round"/>
<path d="M68.5141 124.229C69.7287 123.014 69.7287 121.045 68.5141 119.83C67.2994 118.615 65.33 118.615 64.1154 119.83C62.9007 121.045 62.9007 123.014 64.1154 124.229C65.33 125.443 67.2994 125.443 68.5141 124.229Z" stroke="#242424" stroke-width="1.1786" stroke-miterlimit="10" stroke-linecap="round" stroke-linejoin="round"/>
<path d="M82.5619 105.782C83.7771 106.997 83.7771 108.966 82.5618 110.181C81.3466 111.396 79.3784 111.396 78.1632 110.181C76.948 108.966 76.9479 106.997 78.1632 105.782C79.3784 104.567 81.3466 104.567 82.5619 105.782Z" stroke="#242424" stroke-width="1.1786" stroke-miterlimit="10" stroke-linecap="round" stroke-linejoin="round"/>
<path d="M-0.972383 167.181C0.242261 165.966 0.242244 163.997 -0.972399 162.782C-2.18704 161.567 -4.15635 161.567 -5.371 162.782C-6.58564 163.997 -6.58565 165.966 -5.37101 167.181C-4.15636 168.396 -2.18703 168.396 -0.972383 167.181Z" stroke="#242424" stroke-width="1.1786" stroke-miterlimit="10" stroke-linecap="round" stroke-linejoin="round"/>
<path d="M13.0854 153.123C14.3 151.908 14.3 149.939 13.0854 148.724C11.8707 147.51 9.90133 147.51 8.68666 148.724C7.472 149.939 7.47198 151.909 8.68665 153.123C9.90132 154.338 11.8707 154.338 13.0854 153.123Z" stroke="#242424" stroke-width="1.1786" stroke-miterlimit="10" stroke-linecap="round" stroke-linejoin="round"/>
<path d="M27.1332 139.074C28.3479 137.86 28.3478 135.89 27.1331 134.676C25.9185 133.461 23.9492 133.461 22.7345 134.676C21.5198 135.89 21.5198 137.86 22.7345 139.074C23.9492 140.289 25.9185 140.289 27.1332 139.074Z" stroke="#242424" stroke-width="1.1786" stroke-miterlimit="10" stroke-linecap="round" stroke-linejoin="round"/>
<path d="M41.1907 125.017C42.4054 123.802 42.4054 121.833 41.1907 120.618C39.9761 119.403 38.0067 119.403 36.7921 120.618C35.5774 121.833 35.5774 123.802 36.7921 125.017C38.0067 126.231 39.9761 126.231 41.1907 125.017Z" stroke="#242424" stroke-width="1.1786" stroke-miterlimit="10" stroke-linecap="round" stroke-linejoin="round"/>
<path d="M55.2474 110.961C56.462 109.746 56.462 107.777 55.2474 106.562C54.0327 105.348 52.0634 105.348 50.8487 106.562C49.6341 107.777 49.6341 109.746 50.8487 110.961C52.0634 112.176 54.0327 112.176 55.2474 110.961Z" stroke="#242424" stroke-width="1.1786" stroke-miterlimit="10" stroke-linecap="round" stroke-linejoin="round"/>
<path d="M69.2951 92.5145C70.5104 93.7297 70.5103 95.6981 69.2951 96.9133C68.0799 98.1286 66.1118 98.1286 64.8966 96.9133C63.6814 95.698 63.6813 93.7298 64.8965 92.5145C66.1192 91.3067 68.0874 91.3067 69.2951 92.5145Z" stroke="#242424" stroke-width="1.1786" stroke-miterlimit="10" stroke-linecap="round" stroke-linejoin="round"/>
<path d="M-0.181417 135.473C1.03379 136.689 1.03378 138.657 -0.181428 139.872C-1.39664 141.088 -3.36478 141.088 -4.57999 139.872C-5.7952 138.657 -5.79524 136.689 -4.58003 135.473C-3.36482 134.258 -1.39662 134.258 -0.181417 135.473Z" stroke="#242424" stroke-width="1.1786" stroke-miterlimit="10" stroke-linecap="round" stroke-linejoin="round"/>
<path d="M13.8752 121.418C15.0904 122.633 15.0905 124.601 13.8753 125.817C12.6601 127.032 10.6919 127.032 9.47665 125.817C8.26144 124.601 8.26145 122.633 9.47665 121.418C10.6919 120.202 12.66 120.203 13.8752 121.418Z" stroke="#242424" stroke-width="1.1786" stroke-miterlimit="10" stroke-linecap="round" stroke-linejoin="round"/>
<path d="M27.933 107.36C29.1483 108.575 29.1483 110.544 27.933 111.759C26.7178 112.974 24.7495 112.974 23.5343 111.759C22.3191 110.544 22.3191 108.575 23.5343 107.36C24.7496 106.145 26.7178 106.145 27.933 107.36Z" stroke="#242424" stroke-width="1.1786" stroke-miterlimit="10" stroke-linecap="round" stroke-linejoin="round"/>
<path d="M41.9809 93.3124C43.1961 94.5276 43.1961 96.4958 41.9809 97.7111C40.7656 98.9263 38.7974 98.9263 37.5822 97.7111C36.3669 96.4958 36.3669 94.5276 37.5822 93.3124C38.7974 92.0971 40.7656 92.0971 41.9809 93.3124Z" stroke="#242424" stroke-width="1.1786" stroke-miterlimit="10" stroke-linecap="round" stroke-linejoin="round"/>
<path d="M56.0365 79.2558C57.2517 80.471 57.2517 82.4392 56.0365 83.6545C54.8212 84.8697 52.853 84.8697 51.6378 83.6544C50.4226 82.4392 50.4226 80.471 51.6378 79.2558C52.853 78.0405 54.8212 78.0405 56.0365 79.2558Z" stroke="#242424" stroke-width="1.1786" stroke-miterlimit="10" stroke-linecap="round" stroke-linejoin="round"/>
<path d="M0.608622 108.151C1.82383 109.366 1.82387 111.335 0.60866 112.55C-0.606548 113.765 -2.57475 113.765 -3.78995 112.55C-5.00516 111.335 -5.00515 109.366 -3.78995 108.151C-2.57474 106.936 -0.606585 106.936 0.608622 108.151Z" stroke="#242424" stroke-width="1.1786" stroke-miterlimit="10" stroke-linecap="round" stroke-linejoin="round"/>
<path d="M14.6664 94.0936C15.8817 95.3088 15.8816 97.2771 14.6664 98.4923C13.4512 99.7075 11.4829 99.7075 10.2677 98.4923C9.05248 97.2771 9.05248 95.3088 10.2677 94.0936C11.483 92.8784 13.4512 92.8784 14.6664 94.0936Z" stroke="#242424" stroke-width="1.1786" stroke-miterlimit="10" stroke-linecap="round" stroke-linejoin="round"/>
<path d="M28.7143 80.0458C29.9295 81.261 29.9295 83.2292 28.7143 84.4445C27.499 85.6597 25.5308 85.6597 24.3156 84.4445C23.1003 83.2292 23.1003 81.261 24.3156 80.0458C25.5308 78.8305 27.499 78.8305 28.7143 80.0458Z" stroke="#242424" stroke-width="1.1786" stroke-miterlimit="10" stroke-linecap="round" stroke-linejoin="round"/>
<path d="M42.7707 65.9901C43.9859 67.2053 43.9859 69.1736 42.7707 70.3889C41.5555 71.6042 39.5874 71.6041 38.3722 70.3889C37.1569 69.1736 37.1569 67.2053 38.3721 65.9901C39.5873 64.7748 41.5555 64.7748 42.7707 65.9901Z" stroke="#242424" stroke-width="1.1786" stroke-miterlimit="10" stroke-linecap="round" stroke-linejoin="round"/>
<path d="M1.39885 80.8251C2.61408 82.0403 2.61408 84.0085 1.39884 85.2238C0.183608 86.439 -1.78463 86.439 -2.99987 85.2238C-4.2151 84.0085 -4.21509 82.0403 -2.99986 80.8251C-1.78463 79.6098 0.183616 79.6098 1.39885 80.8251Z" stroke="#242424" stroke-width="1.1786" stroke-miterlimit="10" stroke-linecap="round" stroke-linejoin="round"/>
<path d="M15.4467 66.7772C16.6619 67.9924 16.6619 69.9607 15.4467 71.1759C14.2315 72.3911 12.2632 72.3911 11.048 71.1759C9.83275 69.9607 9.83276 67.9924 11.048 66.7772C12.2632 65.562 14.2315 65.562 15.4467 66.7772Z" stroke="#242424" stroke-width="1.1786" stroke-miterlimit="10" stroke-linecap="round" stroke-linejoin="round"/>
<path d="M29.5023 52.7216C30.7175 53.9368 30.7175 55.905 29.5023 57.1202C28.2871 58.3354 26.3189 58.3354 25.1036 57.1202C23.8884 55.905 23.8884 53.9368 25.1036 52.7216C26.3188 51.5064 28.2871 51.5064 29.5023 52.7216Z" stroke="#242424" stroke-width="1.1786" stroke-miterlimit="10" stroke-linecap="round" stroke-linejoin="round"/>
<path d="M2.19072 57.9045C3.40537 56.6898 3.40537 54.7204 2.19073 53.5057C0.976081 52.291 -0.993259 52.291 -2.20791 53.5057C-3.42255 54.7204 -3.42256 56.6898 -2.20791 57.9045C-0.993268 59.1192 0.976073 59.1192 2.19072 57.9045Z" stroke="#242424" stroke-width="1.1786" stroke-miterlimit="10" stroke-linecap="round" stroke-linejoin="round"/>
<path d="M16.2385 39.4578C17.4537 40.6731 17.4537 42.6414 16.2385 43.8567C15.0233 45.072 13.0551 45.0719 11.8399 43.8566C10.6247 42.6414 10.6247 40.6731 11.8399 39.4578C13.0626 38.25 15.0308 38.25 16.2385 39.4578Z" stroke="#242424" stroke-width="1.1786" stroke-miterlimit="10" stroke-linecap="round" stroke-linejoin="round"/>
<path d="M2.97788 26.1972C4.1931 27.4124 4.19309 29.3806 2.97787 30.5959C1.76264 31.8111 -0.205549 31.8111 -1.42078 30.5958C-2.63601 29.3806 -2.63604 27.4124 -1.42081 26.1972C-0.205585 24.9819 1.76265 24.9819 2.97788 26.1972Z" stroke="#242424" stroke-width="1.1786" stroke-miterlimit="10" stroke-linecap="round" stroke-linejoin="round"/>
</g>
</svg>
