<svg width="103" height="248" viewBox="0 0 103 248" fill="none" xmlns="http://www.w3.org/2000/svg">
<g opacity="0.24">
<path d="M99.4495 217.429C100.665 218.644 100.665 220.612 99.4495 221.827C98.2343 223.043 96.2661 223.043 95.0509 221.827C93.8357 220.612 93.8357 218.644 95.0509 217.429C96.2661 216.213 98.2343 216.213 99.4495 217.429Z" stroke="#242424" stroke-width="1.1786" stroke-miterlimit="10" stroke-linecap="round" stroke-linejoin="round"/>
<path d="M86.1838 204.162C87.399 205.377 87.399 207.345 86.1838 208.561C84.9686 209.776 83.0004 209.776 81.7852 208.561C80.57 207.345 80.57 205.377 81.7852 204.162C83.0004 202.947 84.9686 202.947 86.1838 204.162Z" stroke="#242424" stroke-width="1.1786" stroke-miterlimit="10" stroke-linecap="round" stroke-linejoin="round"/>
<path d="M100.24 194.504C101.454 193.289 101.454 191.32 100.24 190.105C99.0249 188.891 97.0556 188.891 95.8409 190.105C94.6263 191.32 94.6263 193.289 95.8409 194.504C97.0556 195.719 99.0249 195.719 100.24 194.504Z" stroke="#242424" stroke-width="1.1786" stroke-miterlimit="10" stroke-linecap="round" stroke-linejoin="round"/>
<path d="M72.9154 190.894C74.1307 192.11 74.1307 194.078 72.9154 195.293C71.7002 196.508 69.732 196.508 68.5167 195.293C67.3015 194.078 67.3015 192.11 68.5167 190.894C69.7394 189.687 71.7077 189.687 72.9154 190.894Z" stroke="#242424" stroke-width="1.1786" stroke-miterlimit="10" stroke-linecap="round" stroke-linejoin="round"/>
<path d="M86.9701 181.237C88.1848 180.022 88.1848 178.052 86.9701 176.838C85.7555 175.623 83.7861 175.623 82.5714 176.838C81.3567 178.052 81.3568 180.022 82.5714 181.237C83.7861 182.451 85.7554 182.451 86.9701 181.237Z" stroke="#242424" stroke-width="1.1786" stroke-miterlimit="10" stroke-linecap="round" stroke-linejoin="round"/>
<path d="M101.027 167.181C102.241 165.966 102.241 163.997 101.027 162.782C99.812 161.567 97.8427 161.567 96.628 162.782C95.4134 163.997 95.4134 165.966 96.628 167.181C97.8427 168.396 99.812 168.396 101.027 167.181Z" stroke="#242424" stroke-width="1.1786" stroke-miterlimit="10" stroke-linecap="round" stroke-linejoin="round"/>
<path d="M59.6574 177.636C60.8726 178.851 60.8727 180.819 59.6575 182.034C58.4423 183.25 56.4741 183.25 55.2589 182.034C54.0437 180.819 54.0437 178.851 55.2589 177.636C56.4741 176.42 58.4422 176.42 59.6574 177.636Z" stroke="#242424" stroke-width="1.1786" stroke-miterlimit="10" stroke-linecap="round" stroke-linejoin="round"/>
<path d="M73.7131 163.579C74.9283 164.794 74.9283 166.762 73.7131 167.978C72.4979 169.193 70.5297 169.193 69.3145 167.978C68.0993 166.762 68.0993 164.794 69.3145 163.579C70.5297 162.364 72.4979 162.364 73.7131 163.579Z" stroke="#242424" stroke-width="1.1786" stroke-miterlimit="10" stroke-linecap="round" stroke-linejoin="round"/>
<path d="M87.769 149.523C88.9842 150.739 88.9842 152.707 87.769 153.922C86.5537 155.137 84.5855 155.137 83.3703 153.922C82.155 152.707 82.155 150.739 83.3703 149.523C84.5855 148.308 86.5537 148.308 87.769 149.523Z" stroke="#242424" stroke-width="1.1786" stroke-miterlimit="10" stroke-linecap="round" stroke-linejoin="round"/>
<path d="M101.819 135.473C103.034 136.689 103.034 138.657 101.819 139.872C100.603 141.088 98.6352 141.088 97.42 139.872C96.2048 138.657 96.2048 136.689 97.42 135.473C98.6352 134.258 100.603 134.258 101.819 135.473Z" stroke="#242424" stroke-width="1.1786" stroke-miterlimit="10" stroke-linecap="round" stroke-linejoin="round"/>
<path d="M46.391 164.369C47.6063 165.584 47.6063 167.552 46.391 168.768C45.1758 169.983 43.2076 169.983 41.9923 168.768C40.7771 167.552 40.7771 165.584 41.9923 164.369C43.2076 163.154 45.1758 163.154 46.391 164.369Z" stroke="#242424" stroke-width="1.1786" stroke-miterlimit="10" stroke-linecap="round" stroke-linejoin="round"/>
<path d="M60.4465 150.313C61.6617 151.529 61.6617 153.497 60.4465 154.712C59.2313 155.927 57.2631 155.927 56.0479 154.712C54.8327 153.497 54.8327 151.529 56.0479 150.313C57.2631 149.098 59.2313 149.098 60.4465 150.313Z" stroke="#242424" stroke-width="1.1786" stroke-miterlimit="10" stroke-linecap="round" stroke-linejoin="round"/>
<path d="M74.5031 136.258C75.7183 137.473 75.7184 139.441 74.5032 140.656C73.288 141.872 71.3198 141.872 70.1046 140.656C68.8894 139.441 68.8894 137.473 70.1046 136.258C71.3198 135.042 73.2879 135.042 74.5031 136.258Z" stroke="#242424" stroke-width="1.1786" stroke-miterlimit="10" stroke-linecap="round" stroke-linejoin="round"/>
<path d="M88.5528 122.208C89.7679 123.423 89.7679 125.391 88.5527 126.607C87.3376 127.822 85.3695 127.822 84.1543 126.607C82.9391 125.391 82.9391 123.423 84.1543 122.208C85.3694 120.993 87.3376 120.993 88.5528 122.208Z" stroke="#242424" stroke-width="1.1786" stroke-miterlimit="10" stroke-linecap="round" stroke-linejoin="round"/>
<path d="M102.609 108.151C103.824 109.366 103.824 111.335 102.609 112.55C101.393 113.765 99.4252 113.765 98.21 112.55C96.9948 111.335 96.9948 109.366 98.21 108.151C99.4253 106.936 101.393 106.936 102.609 108.151Z" stroke="#242424" stroke-width="1.1786" stroke-miterlimit="10" stroke-linecap="round" stroke-linejoin="round"/>
<path d="M33.1234 151.101C34.3387 152.317 34.3387 154.285 33.1235 155.5C31.9082 156.715 29.94 156.715 28.7247 155.5C27.5095 154.285 27.5095 152.317 28.7248 151.101C29.94 149.886 31.9082 149.886 33.1234 151.101Z" stroke="#242424" stroke-width="1.1786" stroke-miterlimit="10" stroke-linecap="round" stroke-linejoin="round"/>
<path d="M47.1791 137.045C48.3943 138.26 48.3943 140.228 47.1791 141.444C45.9639 142.659 43.9956 142.659 42.7804 141.443C41.5652 140.228 41.5652 138.26 42.7804 137.045C43.9956 135.83 45.9639 135.83 47.1791 137.045Z" stroke="#242424" stroke-width="1.1786" stroke-miterlimit="10" stroke-linecap="round" stroke-linejoin="round"/>
<path d="M61.2348 122.989C62.45 124.204 62.45 126.173 61.2348 127.388C60.0196 128.603 58.0513 128.603 56.8361 127.388C55.6208 126.173 55.6208 124.204 56.8361 122.989C58.0513 121.774 60.0195 121.774 61.2348 122.989Z" stroke="#242424" stroke-width="1.1786" stroke-miterlimit="10" stroke-linecap="round" stroke-linejoin="round"/>
<path d="M75.2844 108.939C76.4996 110.155 76.4996 112.123 75.2844 113.338C74.0692 114.553 72.101 114.553 70.8858 113.338C69.6706 112.123 69.6706 110.155 70.8858 108.939C72.101 107.724 74.0692 107.724 75.2844 108.939Z" stroke="#242424" stroke-width="1.1786" stroke-miterlimit="10" stroke-linecap="round" stroke-linejoin="round"/>
<path d="M89.341 94.8836C90.5562 96.0989 90.5563 98.0671 89.3411 99.2824C88.1259 100.498 86.1577 100.498 84.9425 99.2824C83.7273 98.0672 83.7273 96.0989 84.9425 94.8836C86.1577 93.6683 88.1258 93.6683 89.341 94.8836Z" stroke="#242424" stroke-width="1.1786" stroke-miterlimit="10" stroke-linecap="round" stroke-linejoin="round"/>
<path d="M103.399 80.8251C104.614 82.0403 104.614 84.0085 103.399 85.2238C102.184 86.439 100.215 86.439 99.0001 85.2238C97.7849 84.0085 97.7849 82.0403 99.0001 80.8251C100.215 79.6098 102.184 79.6098 103.399 80.8251Z" stroke="#242424" stroke-width="1.1786" stroke-miterlimit="10" stroke-linecap="round" stroke-linejoin="round"/>
<path d="M19.8586 137.837C21.0738 139.052 21.0738 141.02 19.8586 142.235C18.6434 143.451 16.6752 143.451 15.46 142.235C14.2448 141.02 14.2448 139.052 15.46 137.837C16.6827 136.629 18.6509 136.629 19.8586 137.837Z" stroke="#242424" stroke-width="1.1786" stroke-miterlimit="10" stroke-linecap="round" stroke-linejoin="round"/>
<path d="M33.9143 128.18C35.1289 126.965 35.1289 124.996 33.9143 123.781C32.6996 122.566 30.7303 122.566 29.5157 123.781C28.301 124.996 28.3011 126.965 29.5157 128.18C30.7303 129.395 32.6996 129.395 33.9143 128.18Z" stroke="#242424" stroke-width="1.1786" stroke-miterlimit="10" stroke-linecap="round" stroke-linejoin="round"/>
<path d="M47.97 114.124C49.1846 112.91 49.1846 110.94 47.9699 109.725C46.7553 108.511 44.786 108.511 43.5714 109.725C42.3567 110.94 42.3567 112.91 43.5714 114.124C44.786 115.339 46.7553 115.339 47.97 114.124Z" stroke="#242424" stroke-width="1.1786" stroke-miterlimit="10" stroke-linecap="round" stroke-linejoin="round"/>
<path d="M62.0285 100.066C63.2432 98.8509 63.2432 96.8815 62.0285 95.6668C60.8139 94.4522 58.8446 94.4522 57.63 95.6669C56.4153 96.8815 56.4153 98.8509 57.6299 100.066C58.8446 101.28 60.8139 101.28 62.0285 100.066Z" stroke="#242424" stroke-width="1.1786" stroke-miterlimit="10" stroke-linecap="round" stroke-linejoin="round"/>
<path d="M76.0764 86.0177C77.2911 84.803 77.291 82.8337 76.0764 81.619C74.8617 80.4044 72.8925 80.4043 71.6778 81.619C70.4632 82.8337 70.4632 84.803 71.6778 86.0177C72.8925 87.2324 74.8618 87.2324 76.0764 86.0177Z" stroke="#242424" stroke-width="1.1786" stroke-miterlimit="10" stroke-linecap="round" stroke-linejoin="round"/>
<path d="M90.1342 71.9601C91.3488 70.7454 91.3489 68.776 90.1342 67.5613C88.9195 66.3466 86.9502 66.3466 85.7355 67.5613C84.5208 68.776 84.5208 70.7455 85.7355 71.9602C86.9501 73.1748 88.9195 73.1748 90.1342 71.9601Z" stroke="#242424" stroke-width="1.1786" stroke-miterlimit="10" stroke-linecap="round" stroke-linejoin="round"/>
<path d="M104.19 57.9045C105.404 56.6898 105.404 54.7204 104.19 53.5057C102.975 52.291 101.006 52.291 99.7911 53.5057C98.5765 54.7204 98.5765 56.6898 99.7911 57.9045C101.006 59.1192 102.975 59.1192 104.19 57.9045Z" stroke="#242424" stroke-width="1.1786" stroke-miterlimit="10" stroke-linecap="round" stroke-linejoin="round"/>
<path d="M6.59903 124.577C7.81427 125.792 7.81428 127.76 6.59904 128.976C5.38381 130.191 3.41556 130.191 2.20033 128.976C0.985094 127.76 0.985103 125.792 2.20034 124.577C3.41557 123.362 5.38379 123.362 6.59903 124.577Z" stroke="#242424" stroke-width="1.1786" stroke-miterlimit="10" stroke-linecap="round" stroke-linejoin="round"/>
<path d="M20.6547 114.919C21.8694 113.704 21.8694 111.735 20.6547 110.52C19.44 109.306 17.4706 109.306 16.256 110.52C15.0413 111.735 15.0413 113.704 16.256 114.919C17.4707 116.134 19.44 116.134 20.6547 114.919Z" stroke="#242424" stroke-width="1.1786" stroke-miterlimit="10" stroke-linecap="round" stroke-linejoin="round"/>
<path d="M34.7104 100.863C35.925 99.6487 35.925 97.6794 34.7104 96.4647C33.4957 95.25 31.5263 95.25 30.3117 96.4647C29.097 97.6794 29.097 99.6487 30.3117 100.863C31.5263 102.078 33.4957 102.078 34.7104 100.863Z" stroke="#242424" stroke-width="1.1786" stroke-miterlimit="10" stroke-linecap="round" stroke-linejoin="round"/>
<path d="M48.768 86.8058C49.9826 85.5911 49.9826 83.6217 48.768 82.4071C47.5533 81.1924 45.5839 81.1924 44.3693 82.4071C43.1546 83.6218 43.1546 85.5911 44.3693 86.8058C45.5839 88.0205 47.5533 88.0204 48.768 86.8058Z" stroke="#242424" stroke-width="1.1786" stroke-miterlimit="10" stroke-linecap="round" stroke-linejoin="round"/>
<path d="M62.8165 72.758C64.0311 71.5433 64.031 69.5739 62.8164 68.3592C61.6018 67.1445 59.6326 67.1445 58.418 68.3592C57.2034 69.5739 57.2034 71.5433 58.418 72.758C59.6326 73.9727 61.6019 73.9727 62.8165 72.758Z" stroke="#242424" stroke-width="1.1786" stroke-miterlimit="10" stroke-linecap="round" stroke-linejoin="round"/>
<path d="M76.8742 58.7003C78.0889 57.4856 78.0889 55.5163 76.8742 54.3016C75.6596 53.0869 73.6903 53.087 72.4757 54.3016C71.261 55.5163 71.261 57.4857 72.4757 58.7003C73.6903 59.915 75.6596 59.915 76.8742 58.7003Z" stroke="#242424" stroke-width="1.1786" stroke-miterlimit="10" stroke-linecap="round" stroke-linejoin="round"/>
<path d="M90.9301 44.6437C92.1447 43.429 92.1448 41.4596 90.9301 40.245C89.7154 39.0303 87.7461 39.0303 86.5314 40.245C85.3167 41.4596 85.3167 43.429 86.5314 44.6437C87.746 45.8583 89.7154 45.8583 90.9301 44.6437Z" stroke="#242424" stroke-width="1.1786" stroke-miterlimit="10" stroke-linecap="round" stroke-linejoin="round"/>
<path d="M104.978 26.1972C106.193 27.4124 106.193 29.3806 104.978 30.5959C103.763 31.8111 101.794 31.8111 100.579 30.5958C99.364 29.3806 99.364 27.4124 100.579 26.1972C101.794 24.9819 103.763 24.9819 104.978 26.1972Z" stroke="#242424" stroke-width="1.1786" stroke-miterlimit="10" stroke-linecap="round" stroke-linejoin="round"/>
</g>
</svg>
