<svg width="202" height="494" viewBox="0 0 202 494" fill="none" xmlns="http://www.w3.org/2000/svg">
<g opacity="0.24">
<path d="M10.9206 324.493C9.1392 326.275 6.27492 326.275 4.4935 324.493C2.71208 322.712 2.71214 319.847 4.49355 318.066C6.27497 316.285 9.13914 316.285 10.9206 318.066C12.702 319.848 12.702 322.712 10.9206 324.493Z" fill="#242424"/>
<path d="M9.76829 284.505C7.98687 286.286 5.12259 286.286 3.34117 284.505C1.55975 282.724 1.55979 279.859 3.34121 278.078C5.12263 276.296 7.98682 276.296 9.76823 278.078C11.5497 279.859 11.5497 282.723 9.76829 284.505Z" fill="#242424"/>
<path d="M30.3386 305.075C28.5572 306.857 25.6929 306.857 23.9115 305.075C22.1301 303.294 22.1301 300.43 23.9115 298.648C25.6929 296.867 28.5571 296.867 30.3385 298.648C32.1199 300.43 32.12 303.294 30.3386 305.075Z" fill="#242424"/>
<path d="M8.61106 244.523C6.82964 246.304 3.96534 246.304 2.18393 244.523C0.402507 242.741 0.40256 239.877 2.18398 238.095C3.9654 236.314 6.82958 236.314 8.61099 238.095C10.3924 239.877 10.3925 242.741 8.61106 244.523Z" fill="#242424"/>
<path d="M29.1814 265.093C27.4 266.874 24.5357 266.874 22.7543 265.093C20.9728 263.311 20.9729 260.447 22.7543 258.666C24.5357 256.884 27.3999 256.884 29.1813 258.666C30.9627 260.447 30.9628 263.311 29.1814 265.093Z" fill="#242424"/>
<path d="M49.7517 285.663C47.9703 287.445 45.106 287.445 43.3246 285.663C41.5431 283.882 41.5432 281.017 43.3246 279.236C45.106 277.455 47.9702 277.455 49.7516 279.236C51.533 281.017 51.5331 283.882 49.7517 285.663Z" fill="#242424"/>
<path d="M7.46262 204.545C5.6812 206.326 2.81691 206.326 1.03549 204.545C-0.745929 202.764 -0.745876 199.899 1.03554 198.118C2.81696 196.336 5.68114 196.336 7.46256 198.118C9.24398 199.899 9.20911 202.798 7.46262 204.545Z" fill="#242424"/>
<path d="M28.0251 225.107C26.2437 226.889 23.3794 226.889 21.598 225.108C19.8166 223.326 19.8166 220.462 21.598 218.68C23.3795 216.899 26.2436 216.899 28.0251 218.68C29.8065 220.462 29.7716 223.361 28.0251 225.107Z" fill="#242424"/>
<path d="M48.5954 245.678C46.814 247.459 43.9497 247.459 42.1683 245.678C40.3869 243.896 40.3869 241.032 42.1684 239.251C43.9498 237.469 46.814 237.469 48.5954 239.251C50.3768 241.032 50.3419 243.931 48.5954 245.678Z" fill="#242424"/>
<path d="M69.1657 266.248C67.3843 268.03 64.52 268.03 62.7386 266.248C60.9572 264.467 60.9573 261.602 62.7387 259.821C64.5201 258.04 67.3843 258.04 69.1657 259.821C70.9471 261.602 70.9122 264.502 69.1657 266.248Z" fill="#242424"/>
<path d="M6.31126 164.557C4.52984 166.338 1.66554 166.338 -0.115876 164.557C-1.89729 162.775 -1.89724 159.911 -0.115823 158.13C1.6656 156.348 4.52977 156.348 6.31119 158.13C8.09261 159.911 8.05774 162.81 6.31126 164.557Z" fill="#242424"/>
<path d="M26.8806 185.127C25.0992 186.908 22.2349 186.908 20.4535 185.127C18.672 183.346 18.6721 180.481 20.4535 178.7C22.2349 176.918 25.0991 176.918 26.8805 178.7C28.6619 180.481 28.6271 183.38 26.8806 185.127Z" fill="#242424"/>
<path d="M47.4431 205.689C45.6617 207.471 42.7974 207.471 41.016 205.69C39.2345 203.908 39.2346 201.044 41.016 199.262C42.7974 197.481 45.6616 197.481 47.443 199.262C49.2244 201.044 49.1896 203.943 47.4431 205.689Z" fill="#242424"/>
<path d="M68.0134 226.26C66.232 228.041 63.3677 228.041 61.5863 226.26C59.8049 224.478 59.8049 221.614 61.5863 219.833C63.3677 218.051 66.2319 218.051 68.0134 219.833C69.7948 221.614 69.7599 224.513 68.0134 226.26Z" fill="#242424"/>
<path d="M88.5837 246.829C86.8023 248.611 83.938 248.611 82.1566 246.829C80.3752 245.048 80.3752 242.183 82.1566 240.402C83.9381 238.621 86.8022 238.621 88.5836 240.402C90.3651 242.183 90.3302 245.083 88.5837 246.829Z" fill="#242424"/>
<path d="M5.11974 124.608C3.33832 126.389 0.474148 126.389 -1.30727 124.608C-3.08869 122.826 -3.08876 119.962 -1.30734 118.18C0.474082 116.399 3.33838 116.399 5.1198 118.18C6.90122 119.962 6.90116 122.826 5.11974 124.608Z" fill="#242424"/>
<path d="M25.6894 145.178C23.908 146.96 21.0438 146.96 19.2624 145.178C17.481 143.397 17.4809 140.533 19.2624 138.751C21.0438 136.97 23.9081 136.97 25.6895 138.751C27.5058 140.498 27.4709 143.397 25.6894 145.178Z" fill="#242424"/>
<path d="M46.2597 165.749C44.4783 167.53 41.6142 167.53 39.8327 165.749C38.0513 163.967 38.0513 161.103 39.8327 159.322C41.6141 157.54 44.4784 157.54 46.2598 159.322C48.0761 161.068 48.0411 163.967 46.2597 165.749Z" fill="#242424"/>
<path d="M66.8219 186.31C65.0405 188.091 62.1763 188.091 60.3949 186.31C58.6134 184.528 58.6134 181.664 60.3948 179.883C62.1762 178.101 65.0405 178.101 66.8219 179.883C68.6034 181.664 68.6033 184.528 66.8219 186.31Z" fill="#242424"/>
<path d="M87.3916 206.881C85.6102 208.662 82.746 208.662 80.9646 206.88C79.1832 205.099 79.1831 202.235 80.9645 200.453C82.7459 198.672 85.6102 198.672 87.3916 200.453C89.208 202.2 89.173 205.099 87.3916 206.881Z" fill="#242424"/>
<path d="M107.963 227.45C106.181 229.232 103.317 229.232 101.535 227.45C99.7541 225.669 99.754 222.805 101.535 221.023C103.317 219.242 106.181 219.242 107.963 221.023C109.744 222.805 109.744 225.669 107.963 227.45Z" fill="#242424"/>
<path d="M3.9752 84.6251C2.19379 86.4066 -0.670389 86.4065 -2.45181 84.6251C-4.23322 82.8437 -4.23329 79.9794 -2.45187 78.198C-0.670449 76.4166 2.19384 76.4165 3.97526 78.198C5.75668 79.9794 5.75662 82.8437 3.9752 84.6251Z" fill="#242424"/>
<path d="M24.5367 105.19C22.7553 106.971 19.8911 106.971 18.1097 105.19C16.3283 103.408 16.3282 100.544 18.1097 98.7625C19.8911 96.981 22.7554 96.981 24.5368 98.7624C26.3182 100.544 26.3182 103.408 24.5367 105.19Z" fill="#242424"/>
<path d="M45.107 125.76C43.3256 127.541 40.4614 127.541 38.68 125.76C36.8986 123.978 36.8986 121.114 38.68 119.333C40.4614 117.551 43.3257 117.551 45.1071 119.333C46.8885 121.114 46.8885 123.978 45.107 125.76Z" fill="#242424"/>
<path d="M65.6774 146.329C63.8959 148.111 61.0318 148.111 59.2503 146.329C57.4689 144.548 57.4689 141.684 59.2503 139.902C61.0317 138.121 63.896 138.121 65.6774 139.902C67.4588 141.683 67.4588 144.548 65.6774 146.329Z" fill="#242424"/>
<path d="M86.2408 166.894C84.4594 168.675 81.5952 168.675 79.8138 166.894C78.0324 165.112 78.0323 162.248 79.8138 160.467C81.5952 158.685 84.4595 158.685 86.2409 160.466C88.0223 162.248 88.0223 165.112 86.2408 166.894Z" fill="#242424"/>
<path d="M106.811 187.464C105.03 189.245 102.166 189.245 100.384 187.464C98.6027 185.683 98.6027 182.818 100.384 181.037C102.165 179.255 105.03 179.255 106.811 181.037C108.593 182.818 108.593 185.683 106.811 187.464Z" fill="#242424"/>
<path d="M127.381 208.033C125.6 209.815 122.736 209.815 120.954 208.033C119.173 206.252 119.173 203.388 120.954 201.606C122.736 199.825 125.6 199.825 127.381 201.606C129.163 203.388 129.163 206.252 127.381 208.033Z" fill="#242424"/>
<path d="M2.81896 44.6417C1.03754 46.4232 -1.82664 46.4231 -3.60806 44.6417C-5.38948 42.8603 -5.38954 39.996 -3.60812 38.2146C-1.8267 36.4332 1.03759 36.4331 2.81901 38.2146C4.60043 39.996 4.60038 42.8603 2.81896 44.6417Z" fill="#242424"/>
<path d="M23.3893 65.2121C21.6078 66.9935 18.7437 66.9934 16.9623 65.212C15.1808 63.4306 15.1808 60.5664 16.9622 58.7849C18.7436 57.0035 21.6079 57.0034 23.3893 58.7849C25.1707 60.5663 25.1707 63.4306 23.3893 65.2121Z" fill="#242424"/>
<path d="M43.9527 85.7755C42.1713 87.557 39.3072 87.5569 37.5257 85.7755C35.7443 83.994 35.7443 81.1298 37.5257 79.3484C39.3071 77.5669 42.1714 77.5669 43.9528 79.3483C45.7342 81.1298 45.7342 83.9941 43.9527 85.7755Z" fill="#242424"/>
<path d="M64.5231 106.346C62.7416 108.127 59.8775 108.127 58.096 106.346C56.3146 104.564 56.3146 101.7 58.096 99.9187C59.8774 98.1373 62.7417 98.1372 64.5231 99.9186C66.3045 101.7 66.3045 104.564 64.5231 106.346Z" fill="#242424"/>
<path d="M85.0934 126.916C83.312 128.698 80.4478 128.698 78.6663 126.916C76.8849 125.135 76.8849 122.27 78.6663 120.489C80.4477 118.708 83.312 118.708 85.0934 120.489C86.8748 122.27 86.8748 125.135 85.0934 126.916Z" fill="#242424"/>
<path d="M105.655 147.478C103.873 149.259 101.009 149.259 99.2279 147.478C97.4464 145.696 97.4464 142.832 99.2278 141.051C101.009 139.269 103.874 139.269 105.655 141.05C107.436 142.832 107.436 145.696 105.655 147.478Z" fill="#242424"/>
<path d="M126.225 168.048C124.444 169.829 121.58 169.829 119.798 168.048C118.017 166.267 118.017 163.402 119.798 161.621C121.58 159.839 124.444 159.839 126.225 161.621C128.007 163.402 128.007 166.267 126.225 168.048Z" fill="#242424"/>
<path d="M146.796 188.618C145.014 190.4 142.15 190.4 140.368 188.618C138.587 186.837 138.587 183.973 140.368 182.191C142.15 180.41 145.014 180.41 146.796 182.191C148.577 183.973 148.577 186.837 146.796 188.618Z" fill="#242424"/>
</g>
<path d="M-1.82374 454.778L-133.228 323.374C-136.371 320.231 -136.371 315.133 -133.228 311.99L-1.82373 180.585C1.31908 177.443 6.41734 177.443 9.56015 180.586L140.965 311.99C144.107 315.133 144.107 320.231 140.965 323.374L9.56023 454.778C6.41742 457.921 1.31907 457.921 -1.82374 454.778Z" stroke="#F2C94C" stroke-width="0.889" stroke-miterlimit="10"/>
</svg>
