<svg width="216" height="211" viewBox="0 0 216 211" fill="none" xmlns="http://www.w3.org/2000/svg">
<g opacity="0.24">
<path d="M7.11687 138.69C7.11687 140.466 5.68924 141.893 3.91341 141.893C2.13759 141.893 0.709961 140.466 0.709961 138.69C0.709961 136.914 2.13759 135.486 3.91341 135.486C5.68924 135.486 7.11687 136.914 7.11687 138.69Z" fill="#242424"/>
<path d="M27.6276 138.69C27.6276 140.466 26.2 141.893 24.4242 141.893C22.6483 141.893 21.2207 140.466 21.2207 138.69C21.2207 136.914 22.6483 135.486 24.4242 135.486C26.2 135.486 27.6276 136.914 27.6276 138.69Z" fill="#242424"/>
<path d="M48.1325 138.69C48.1325 140.466 46.7049 141.893 44.929 141.893C43.1532 141.893 41.7256 140.466 41.7256 138.69C41.7256 136.914 43.1532 135.486 44.929 135.486C46.7049 135.486 48.1325 136.914 48.1325 138.69Z" fill="#242424"/>
<path d="M68.6432 138.69C68.6432 140.466 67.2156 141.893 65.4398 141.893C63.6639 141.893 62.2363 140.466 62.2363 138.69C62.2363 136.914 63.6639 135.486 65.4398 135.486C67.2156 135.486 68.6432 136.914 68.6432 138.69Z" fill="#242424"/>
<path d="M89.155 138.69C89.155 140.466 87.7273 141.893 85.9515 141.893C84.1757 141.893 82.748 140.466 82.748 138.69C82.748 136.914 84.1757 135.486 85.9515 135.486C87.7273 135.486 89.155 136.914 89.155 138.69Z" fill="#242424"/>
<path d="M109.659 138.69C109.659 140.466 108.231 141.893 106.455 141.893C104.68 141.893 103.252 140.466 103.252 138.69C103.252 136.914 104.68 135.486 106.455 135.486C108.231 135.486 109.659 136.914 109.659 138.69Z" fill="#242424"/>
<path d="M130.171 138.69C130.171 140.466 128.743 141.893 126.967 141.893C125.191 141.893 123.764 140.466 123.764 138.69C123.764 136.914 125.191 135.486 126.967 135.486C128.743 135.486 130.171 136.914 130.171 138.69Z" fill="#242424"/>
<path d="M150.682 138.69C150.682 140.466 149.255 141.893 147.479 141.893C145.703 141.893 144.275 140.466 144.275 138.69C144.275 136.914 145.703 135.486 147.479 135.486C149.255 135.486 150.682 136.914 150.682 138.69Z" fill="#242424"/>
<path d="M7.11687 119.327C7.11687 121.103 5.68924 122.531 3.91341 122.531C2.13759 122.531 0.709961 121.103 0.709961 119.327C0.709961 117.552 2.13759 116.124 3.91341 116.124C5.68924 116.124 7.11687 117.552 7.11687 119.327Z" fill="#242424"/>
<path d="M27.6276 119.327C27.6276 121.103 26.2 122.531 24.4242 122.531C22.6483 122.531 21.2207 121.103 21.2207 119.327C21.2207 117.552 22.6483 116.124 24.4242 116.124C26.2 116.124 27.6276 117.552 27.6276 119.327Z" fill="#242424"/>
<path d="M48.1325 119.327C48.1325 121.103 46.7049 122.531 44.929 122.531C43.1532 122.531 41.7256 121.103 41.7256 119.327C41.7256 117.552 43.1532 116.124 44.929 116.124C46.7049 116.124 48.1325 117.552 48.1325 119.327Z" fill="#242424"/>
<path d="M68.6432 119.327C68.6432 121.103 67.2156 122.531 65.4398 122.531C63.6639 122.531 62.2363 121.103 62.2363 119.327C62.2363 117.552 63.6639 116.124 65.4398 116.124C67.2156 116.124 68.6432 117.552 68.6432 119.327Z" fill="#242424"/>
<path d="M89.155 119.327C89.155 121.103 87.7273 122.531 85.9515 122.531C84.1757 122.531 82.748 121.103 82.748 119.327C82.748 117.552 84.1757 116.124 85.9515 116.124C87.7273 116.124 89.155 117.552 89.155 119.327Z" fill="#242424"/>
<path d="M109.659 119.327C109.659 121.103 108.231 122.531 106.455 122.531C104.68 122.531 103.252 121.103 103.252 119.327C103.252 117.552 104.68 116.124 106.455 116.124C108.231 116.124 109.659 117.552 109.659 119.327Z" fill="#242424"/>
<path d="M130.171 119.327C130.171 121.103 128.743 122.531 126.967 122.531C125.191 122.531 123.764 121.103 123.764 119.327C123.764 117.552 125.191 116.124 126.967 116.124C128.743 116.124 130.171 117.552 130.171 119.327Z" fill="#242424"/>
<path d="M150.682 119.327C150.682 121.103 149.255 122.531 147.479 122.531C145.703 122.531 144.275 121.103 144.275 119.327C144.275 117.552 145.703 116.124 147.479 116.124C149.255 116.124 150.682 117.552 150.682 119.327Z" fill="#242424"/>
<path d="M7.11687 99.969C7.11687 101.745 5.68924 103.173 3.91341 103.173C2.13759 103.173 0.709961 101.745 0.709961 99.969C0.709961 98.1932 2.13759 96.7656 3.91341 96.7656C5.68924 96.7656 7.11687 98.1932 7.11687 99.969Z" fill="#242424"/>
<path d="M27.6276 99.969C27.6276 101.745 26.2 103.173 24.4242 103.173C22.6483 103.173 21.2207 101.745 21.2207 99.969C21.2207 98.1932 22.6483 96.7656 24.4242 96.7656C26.2 96.7656 27.6276 98.1932 27.6276 99.969Z" fill="#242424"/>
<path d="M48.1325 99.969C48.1325 101.745 46.7049 103.173 44.929 103.173C43.1532 103.173 41.7256 101.745 41.7256 99.969C41.7256 98.1932 43.1532 96.7656 44.929 96.7656C46.7049 96.7656 48.1325 98.1932 48.1325 99.969Z" fill="#242424"/>
<path d="M68.6432 99.969C68.6432 101.745 67.2156 103.173 65.4398 103.173C63.6639 103.173 62.2363 101.745 62.2363 99.969C62.2363 98.1932 63.6639 96.7656 65.4398 96.7656C67.2156 96.7656 68.6432 98.1932 68.6432 99.969Z" fill="#242424"/>
<path d="M89.155 99.969C89.155 101.745 87.7273 103.173 85.9515 103.173C84.1757 103.173 82.748 101.745 82.748 99.969C82.748 98.1932 84.1757 96.7656 85.9515 96.7656C87.7273 96.7656 89.155 98.1932 89.155 99.969Z" fill="#242424"/>
<path d="M109.659 99.969C109.659 101.745 108.231 103.173 106.455 103.173C104.68 103.173 103.252 101.745 103.252 99.969C103.252 98.1932 104.68 96.7656 106.455 96.7656C108.231 96.7656 109.659 98.1932 109.659 99.969Z" fill="#242424"/>
<path d="M130.171 99.969C130.171 101.745 128.743 103.173 126.967 103.173C125.191 103.173 123.764 101.745 123.764 99.969C123.764 98.1932 125.191 96.7656 126.967 96.7656C128.743 96.7656 130.171 98.1932 130.171 99.969Z" fill="#242424"/>
<path d="M150.682 99.969C150.682 101.745 149.255 103.173 147.479 103.173C145.703 103.173 144.275 101.745 144.275 99.969C144.275 98.1932 145.703 96.7656 147.479 96.7656C149.255 96.7656 150.682 98.1932 150.682 99.969Z" fill="#242424"/>
<path d="M7.11687 80.6106C7.11687 82.3864 5.68924 83.8141 3.91341 83.8141C2.13759 83.8141 0.709961 82.3864 0.709961 80.6106C0.709961 78.8348 2.13759 77.4072 3.91341 77.4072C5.68924 77.4072 7.11687 78.8696 7.11687 80.6106Z" fill="#242424"/>
<path d="M27.6276 80.6096C27.6276 82.3855 26.2 83.8131 24.4242 83.8131C22.6483 83.8131 21.2207 82.3855 21.2207 80.6096C21.2207 78.8338 22.6483 77.4062 24.4242 77.4062C26.2 77.4063 27.6276 78.8686 27.6276 80.6096Z" fill="#242424"/>
<path d="M48.1325 80.6096C48.1325 82.3855 46.7049 83.8131 44.929 83.8131C43.1532 83.8131 41.7256 82.3855 41.7256 80.6096C41.7256 78.8338 43.1532 77.4062 44.929 77.4062C46.7049 77.4062 48.1325 78.8686 48.1325 80.6096Z" fill="#242424"/>
<path d="M68.6432 80.6096C68.6432 82.3855 67.2156 83.8131 65.4398 83.8131C63.6639 83.8131 62.2363 82.3855 62.2363 80.6096C62.2363 78.8338 63.6639 77.4062 65.4398 77.4062C67.2156 77.4063 68.6432 78.8686 68.6432 80.6096Z" fill="#242424"/>
<path d="M89.155 80.6096C89.155 82.3855 87.7273 83.8131 85.9515 83.8131C84.1757 83.8131 82.748 82.3855 82.748 80.6096C82.748 78.8338 84.1757 77.4062 85.9515 77.4062C87.7273 77.4063 89.155 78.8686 89.155 80.6096Z" fill="#242424"/>
<path d="M109.659 80.6096C109.659 82.3855 108.231 83.8131 106.455 83.8131C104.68 83.8131 103.252 82.3855 103.252 80.6096C103.252 78.8338 104.68 77.4062 106.455 77.4062C108.231 77.4062 109.659 78.8686 109.659 80.6096Z" fill="#242424"/>
<path d="M130.171 80.6096C130.171 82.3855 128.743 83.8131 126.967 83.8131C125.191 83.8131 123.764 82.3855 123.764 80.6096C123.764 78.8338 125.191 77.4062 126.967 77.4062C128.743 77.4063 130.171 78.8686 130.171 80.6096Z" fill="#242424"/>
<path d="M150.682 80.6096C150.682 82.3855 149.255 83.8131 147.479 83.8131C145.703 83.8131 144.275 82.3855 144.275 80.6096C144.275 78.8338 145.703 77.4062 147.479 77.4062C149.255 77.4062 150.682 78.8686 150.682 80.6096Z" fill="#242424"/>
<path d="M7.11687 61.2483C7.11687 63.0241 5.68924 64.4518 3.91341 64.4518C2.13759 64.4518 0.709961 63.0241 0.709961 61.2483C0.709961 59.4725 2.13759 58.0449 3.91341 58.0449C5.68924 58.0449 7.11687 59.5073 7.11687 61.2483Z" fill="#242424"/>
<path d="M27.6276 61.2483C27.6276 63.0241 26.2 64.4518 24.4242 64.4518C22.6483 64.4518 21.2207 63.0241 21.2207 61.2483C21.2207 59.4725 22.6483 58.0449 24.4242 58.0449C26.2 58.0449 27.6276 59.5073 27.6276 61.2483Z" fill="#242424"/>
<path d="M48.1325 61.2483C48.1325 63.0241 46.7049 64.4518 44.929 64.4518C43.1532 64.4518 41.7256 63.0241 41.7256 61.2483C41.7256 59.4725 43.1532 58.0449 44.929 58.0449C46.7049 58.0449 48.1325 59.5073 48.1325 61.2483Z" fill="#242424"/>
<path d="M68.6432 61.2483C68.6432 63.0241 67.2156 64.4518 65.4398 64.4518C63.6639 64.4518 62.2363 63.0241 62.2363 61.2483C62.2363 59.4725 63.6639 58.0449 65.4398 58.0449C67.2156 58.0449 68.6432 59.5073 68.6432 61.2483Z" fill="#242424"/>
<path d="M89.155 61.2483C89.155 63.0241 87.7273 64.4518 85.9515 64.4518C84.1757 64.4518 82.748 63.0241 82.748 61.2483C82.748 59.4725 84.1757 58.0449 85.9515 58.0449C87.7273 58.0449 89.155 59.5073 89.155 61.2483Z" fill="#242424"/>
<path d="M109.659 61.2483C109.659 63.0241 108.231 64.4518 106.455 64.4518C104.68 64.4518 103.252 63.0241 103.252 61.2483C103.252 59.4725 104.68 58.0449 106.455 58.0449C108.231 58.0449 109.659 59.5073 109.659 61.2483Z" fill="#242424"/>
<path d="M130.171 61.2483C130.171 63.0241 128.743 64.4518 126.967 64.4518C125.191 64.4518 123.764 63.0241 123.764 61.2483C123.764 59.4725 125.191 58.0449 126.967 58.0449C128.743 58.0449 130.171 59.5073 130.171 61.2483Z" fill="#242424"/>
<path d="M150.682 61.2483C150.682 63.0241 149.255 64.4518 147.479 64.4518C145.703 64.4518 144.275 63.0241 144.275 61.2483C144.275 59.4725 145.703 58.0449 147.479 58.0449C149.255 58.0449 150.682 59.5073 150.682 61.2483Z" fill="#242424"/>
<path d="M7.11687 41.9248C7.11687 43.7006 5.68924 45.1282 3.91341 45.1282C2.13759 45.1282 0.709961 43.7006 0.709961 41.9248C0.709961 40.149 2.13759 38.7213 3.91341 38.7213C5.68924 38.6865 7.11687 40.149 7.11687 41.9248Z" fill="#242424"/>
<path d="M27.6276 41.9248C27.6276 43.7006 26.2 45.1282 24.4242 45.1282C22.6483 45.1282 21.2207 43.7006 21.2207 41.9248C21.2207 40.149 22.6483 38.7213 24.4242 38.7213C26.2 38.6865 27.6276 40.149 27.6276 41.9248Z" fill="#242424"/>
<path d="M48.1325 41.9242C48.1325 43.7 46.7049 45.1276 44.929 45.1276C43.1532 45.1276 41.7256 43.7 41.7256 41.9242C41.7256 40.1484 43.1532 38.7207 44.929 38.7207C46.7049 38.7207 48.1325 40.1484 48.1325 41.9242Z" fill="#242424"/>
<path d="M68.6432 41.9248C68.6432 43.7006 67.2156 45.1282 65.4398 45.1282C63.6639 45.1282 62.2363 43.7006 62.2363 41.9248C62.2363 40.149 63.6639 38.7213 65.4398 38.7213C67.2156 38.6865 68.6432 40.149 68.6432 41.9248Z" fill="#242424"/>
<path d="M89.155 41.9248C89.155 43.7006 87.7273 45.1282 85.9515 45.1282C84.1757 45.1282 82.748 43.7006 82.748 41.9248C82.748 40.149 84.1757 38.7213 85.9515 38.7213C87.7273 38.6865 89.155 40.149 89.155 41.9248Z" fill="#242424"/>
<path d="M109.659 41.9242C109.659 43.7 108.231 45.1276 106.455 45.1276C104.68 45.1276 103.252 43.7 103.252 41.9242C103.252 40.1484 104.68 38.7207 106.455 38.7207C108.231 38.7207 109.659 40.1484 109.659 41.9242Z" fill="#242424"/>
<path d="M130.171 41.9248C130.171 43.7006 128.743 45.1282 126.967 45.1282C125.191 45.1282 123.764 43.7006 123.764 41.9248C123.764 40.149 125.191 38.7213 126.967 38.7213C128.743 38.6865 130.171 40.149 130.171 41.9248Z" fill="#242424"/>
<path d="M150.682 41.9242C150.682 43.7 149.255 45.1276 147.479 45.1276C145.703 45.1276 144.275 43.7 144.275 41.9242C144.275 40.1484 145.703 38.7207 147.479 38.7207C149.255 38.7207 150.682 40.1484 150.682 41.9242Z" fill="#242424"/>
<path d="M7.11687 22.5609C7.11687 24.3368 5.68924 25.7643 3.91341 25.7643C2.13759 25.7643 0.709961 24.3368 0.709961 22.5609C0.709961 20.7851 2.13759 19.3574 3.91341 19.3574C5.68924 19.3574 7.11687 20.7851 7.11687 22.5609Z" fill="#242424"/>
<path d="M27.6276 22.5609C27.6276 24.3368 26.2 25.7643 24.4242 25.7643C22.6483 25.7643 21.2207 24.3368 21.2207 22.5609C21.2207 20.7851 22.6483 19.3574 24.4242 19.3574C26.2 19.3574 27.6276 20.7851 27.6276 22.5609Z" fill="#242424"/>
<path d="M48.1325 22.5609C48.1325 24.3368 46.7049 25.7643 44.929 25.7643C43.1532 25.7643 41.7256 24.3368 41.7256 22.5609C41.7256 20.7851 43.1532 19.3574 44.929 19.3574C46.7049 19.3574 48.1325 20.7851 48.1325 22.5609Z" fill="#242424"/>
<path d="M68.6432 22.5609C68.6432 24.3368 67.2156 25.7643 65.4398 25.7643C63.6639 25.7643 62.2363 24.3368 62.2363 22.5609C62.2363 20.7851 63.6639 19.3574 65.4398 19.3574C67.2156 19.3574 68.6432 20.7851 68.6432 22.5609Z" fill="#242424"/>
<path d="M89.155 22.5609C89.155 24.3368 87.7273 25.7643 85.9515 25.7643C84.1757 25.7643 82.748 24.3368 82.748 22.5609C82.748 20.7851 84.1757 19.3574 85.9515 19.3574C87.7273 19.3574 89.155 20.7851 89.155 22.5609Z" fill="#242424"/>
<path d="M109.659 22.5609C109.659 24.3368 108.231 25.7643 106.455 25.7643C104.68 25.7643 103.252 24.3368 103.252 22.5609C103.252 20.7851 104.68 19.3574 106.455 19.3574C108.231 19.3574 109.659 20.7851 109.659 22.5609Z" fill="#242424"/>
<path d="M130.171 22.5609C130.171 24.3368 128.743 25.7643 126.967 25.7643C125.191 25.7643 123.764 24.3368 123.764 22.5609C123.764 20.7851 125.191 19.3574 126.967 19.3574C128.743 19.3574 130.171 20.7851 130.171 22.5609Z" fill="#242424"/>
<path d="M150.682 22.5609C150.682 24.3368 149.255 25.7643 147.479 25.7643C145.703 25.7643 144.275 24.3368 144.275 22.5609C144.275 20.7851 145.703 19.3574 147.479 19.3574C149.255 19.3574 150.682 20.7851 150.682 22.5609Z" fill="#242424"/>
<path d="M7.11785 3.2035C7.11785 4.97933 5.69022 6.40689 3.91439 6.40689C2.13856 6.40689 0.710938 4.97933 0.710938 3.2035C0.710938 1.42767 2.13856 0 3.91439 0C5.69022 0 7.11785 1.42767 7.11785 3.2035Z" fill="#242424"/>
<path d="M27.6296 3.2035C27.6296 4.97933 26.2019 6.40689 24.4261 6.40689C22.6503 6.40689 21.2227 4.97933 21.2227 3.2035C21.2227 1.42767 22.6503 0 24.4261 0C26.2019 0 27.6296 1.42767 27.6296 3.2035Z" fill="#242424"/>
<path d="M48.1335 3.2035C48.1335 4.97933 46.7059 6.40689 44.93 6.40689C43.1542 6.40689 41.7266 4.97933 41.7266 3.2035C41.7266 1.42767 43.1542 0 44.93 0C46.7059 0 48.1335 1.42767 48.1335 3.2035Z" fill="#242424"/>
<path d="M68.6452 3.2035C68.6452 4.97933 67.2176 6.40689 65.4417 6.40689C63.6659 6.40689 62.2383 4.97933 62.2383 3.2035C62.2383 1.42767 63.6659 0 65.4417 0C67.2176 0 68.6452 1.42767 68.6452 3.2035Z" fill="#242424"/>
<path d="M89.1559 3.2035C89.1559 4.97933 87.7283 6.40689 85.9525 6.40689C84.1766 6.40689 82.749 4.97933 82.749 3.2035C82.749 1.42767 84.1766 0 85.9525 0C87.7283 0 89.1559 1.42767 89.1559 3.2035Z" fill="#242424"/>
<path d="M109.661 3.2035C109.661 4.97933 108.233 6.40689 106.457 6.40689C104.682 6.40689 103.254 4.97933 103.254 3.2035C103.254 1.42767 104.682 0 106.457 0C108.233 0 109.661 1.42767 109.661 3.2035Z" fill="#242424"/>
<path d="M130.172 3.2035C130.172 4.97933 128.744 6.40689 126.968 6.40689C125.192 6.40689 123.765 4.97933 123.765 3.2035C123.765 1.42767 125.192 0 126.968 0C128.744 0 130.172 1.42767 130.172 3.2035Z" fill="#242424"/>
<path d="M150.682 3.2035C150.682 4.97933 149.255 6.40689 147.479 6.40689C145.703 6.40689 144.275 4.97933 144.275 3.2035C144.275 1.42767 145.703 0 147.479 0C149.255 0 150.682 1.42767 150.682 3.2035Z" fill="#242424"/>
</g>
<path d="M209.285 210.001H78.2567C75.1229 210.001 72.5811 207.459 72.5811 204.325V73.2967C72.5811 70.1629 75.1229 67.6211 78.2567 67.6211H209.285C212.419 67.6211 214.961 70.1629 214.961 73.2967V204.325C214.961 207.459 212.419 210.001 209.285 210.001Z" stroke="#F2C94C" stroke-width="0.889" stroke-miterlimit="10"/>
</svg>
