<svg width="64" height="64" viewBox="0 0 64 64" fill="none" xmlns="http://www.w3.org/2000/svg">
<rect width="64" height="64" rx="32" fill="#F2C94C"/>
<path fill-rule="evenodd" clip-rule="evenodd" d="M32.8563 13.468C32.5864 13.3804 32.2985 13.333 31.9995 13.333C31.2164 13.333 30.5091 13.6578 30.0043 14.1803L16.8133 27.3985C15.7289 28.4852 15.7289 30.2471 16.8133 31.3337C17.8978 32.4204 19.656 32.4204 20.7404 31.3337L29.2226 22.8339V47.8837C29.2226 49.4205 30.4659 50.6663 31.9995 50.6663C33.5331 50.6663 34.7763 49.4205 34.7763 47.8837V22.8329L43.2596 31.3337C44.344 32.4204 46.1022 32.4204 47.1867 31.3337C48.2711 30.2471 48.2711 28.4852 47.1867 27.3985L33.9635 14.148C33.642 13.8258 33.2612 13.5991 32.8563 13.468Z" fill="white"/>
</svg>
