<svg width="80" height="80" viewBox="0 0 80 80" fill="none" xmlns="http://www.w3.org/2000/svg">
<g filter="url(#filter0_d)">
<path fill-rule="evenodd" clip-rule="evenodd" d="M46.7323 6.68196C45.4072 6.53476 44.2137 7.4896 44.0665 8.81465C43.9193 10.1397 44.8742 11.3332 46.1992 11.4804C51.8968 12.1133 57.2098 14.6648 61.2659 18.7158C65.322 22.7668 67.8801 28.0766 68.5202 33.7733C68.6691 35.0982 69.8638 36.0515 71.1887 35.9026C72.5135 35.7538 73.4669 34.5591 73.318 33.2342C72.5556 26.449 69.5087 20.1248 64.6776 15.2998C59.8465 10.4748 53.5184 7.43585 46.7323 6.68196ZM46.928 19.0154C45.6195 18.7601 44.3518 19.614 44.0965 20.9225C43.8412 22.231 44.695 23.4987 46.0035 23.754C48.5363 24.2482 50.864 25.4869 52.6887 27.3116C54.5134 29.1363 55.7521 31.464 56.2462 33.9968C56.5015 35.3053 57.7693 36.1591 59.0778 35.9038C60.3863 35.6485 61.2401 34.3808 60.9848 33.0723C60.3067 29.5964 58.6067 26.4019 56.1025 23.8977C53.5984 21.3936 50.4039 19.6936 46.928 19.0154ZM24.618 11.6051C23.9952 10.99 23.4539 10.4807 22.9719 10.1022C22.5045 9.73511 21.901 9.33329 21.1508 9.16413C20.3071 8.97388 19.6052 9.14672 19.1181 9.32366C18.8983 9.40349 18.6871 9.49772 18.5356 9.5655L18.4679 9.59585C18.3269 9.65904 18.2036 9.71431 18.0627 9.77288L18.058 9.77483L18.0533 9.77681C16.629 10.3761 15.2626 11.1045 13.9712 11.953L13.9662 11.9562L13.9613 11.9595C11.4709 13.6141 9.82189 15.1715 8.68419 17.6027C8.6656 17.6424 8.64676 17.6826 8.62768 17.7233C7.25575 20.6513 4.66628 26.1777 9.34601 34.6792C14.0592 43.2413 17.4237 47.6964 24.2687 54.5223C31.134 61.3684 36.4571 65.0775 44.1271 69.3792C48.9201 72.0636 52.432 73.2587 55.1314 73.5953C57.9378 73.9453 59.7437 73.3508 61.0076 72.762C61.1487 72.6963 61.2961 72.628 61.4488 72.5573C63.9283 71.409 67.8222 69.6057 69.3889 67.2519L69.3915 67.248L69.394 67.2442C70.2452 65.9541 70.9757 64.5884 71.5763 63.1643L71.5777 63.161L71.5791 63.1576C71.6376 63.0177 71.6927 62.8954 71.7558 62.7554L71.7869 62.6864C71.8549 62.5353 71.9495 62.3242 72.0298 62.1043C72.2078 61.6165 72.3814 60.9132 72.1899 60.0679C72.0198 59.3175 71.6166 58.7142 71.2493 58.2478C70.8699 57.766 70.3573 57.2227 69.7405 56.5997C68.4136 55.2628 66.2826 53.7375 64.2629 52.4309C62.2071 51.1009 60.0834 49.8808 58.6551 49.1605L58.5869 49.1262C57.772 48.7156 57.0291 48.3414 56.3825 48.0775C55.7057 47.8012 54.937 47.5594 54.0806 47.5585C52.3473 47.5566 50.9798 48.5726 49.749 49.4871L49.7253 49.5047C49.4179 49.7331 49.158 49.9316 48.93 50.1057C48.3499 50.5486 47.9767 50.8335 47.5573 51.0518C47.1598 51.2587 46.8625 51.3222 46.3865 51.2207C45.7024 51.0748 44.2703 50.4802 42.4106 49.3218C40.6059 48.1977 38.562 46.6443 36.656 44.7444C34.7496 42.844 33.1541 40.767 31.9887 38.9256C30.7837 37.0216 30.1632 35.5661 30.0204 34.9011C29.9214 34.44 29.9825 34.1536 30.1916 33.7568C30.406 33.3501 30.6739 32.9984 31.0824 32.4619C31.2719 32.213 31.4918 31.9243 31.7507 31.5719C32.6516 30.3453 33.5868 29.0154 33.584 27.2923C33.5826 26.4691 33.3712 25.7148 33.1168 25.029C32.8663 24.3537 32.509 23.5812 32.1136 22.731C31.4161 21.2345 30.1715 19.0844 28.8284 17.042C27.5001 15.0222 25.9522 12.9183 24.618 11.6051ZM16.5007 15.7924C17.5548 15.1003 18.6699 14.5059 19.8321 14.0166C19.9939 13.9493 20.1431 13.8834 20.267 13.828C20.5219 14.042 20.875 14.3706 21.3883 14.8777L21.3916 14.8809C22.3645 15.8381 23.6959 17.6054 24.9868 19.5683C26.2628 21.5087 27.3772 23.4529 27.9456 24.6721C28.3619 25.5673 28.6323 26.1598 28.806 26.6281C28.9758 27.0859 28.9862 27.2573 28.9863 27.3016C28.9887 27.3245 29.0114 27.5342 28.045 28.8501C27.9243 29.0145 27.7864 29.1953 27.6392 29.3883C27.1388 30.0443 26.531 30.8413 26.1243 31.6127C25.4933 32.8097 25.1656 34.1922 25.525 35.8662C25.8406 37.3364 26.812 39.3436 28.1035 41.3844C29.4347 43.4878 31.2401 45.8377 33.41 48.0007C35.5803 50.1641 37.9022 51.9305 39.9798 53.2245C42.0024 54.4844 43.9691 55.4064 45.4274 55.7174C47.0936 56.0728 48.476 55.757 49.6802 55.1302C50.4861 54.7107 51.2994 54.0872 51.9711 53.5723C52.1473 53.4372 52.3137 53.3096 52.4678 53.1951C53.9753 52.0751 54.1174 52.1563 54.0758 52.1563C54.0758 52.1563 54.2 52.1527 54.6448 52.3343C55.1021 52.521 55.6813 52.8108 56.5858 53.2664C57.8387 53.8983 59.818 55.0314 61.7654 56.2913C63.7489 57.5746 65.5214 58.8759 66.4763 59.8378C66.9815 60.3481 67.3099 60.6999 67.5243 60.9544C67.4695 61.0763 67.4047 61.2224 67.3386 61.3804C66.8487 62.5417 66.2531 63.6554 65.5592 64.7076C64.4287 66.4055 61.7839 67.477 60.0796 68.1675C59.6793 68.3297 59.3309 68.4708 59.0662 68.5942C58.4176 68.8963 57.4827 69.2551 55.7003 69.0328C53.8108 68.7972 50.8857 67.8946 46.3738 65.3676C39.0008 61.2325 34.0324 57.7655 27.5154 51.2666C20.9778 44.7473 17.8766 40.6417 13.3739 32.4619C9.38068 25.2076 11.7588 21.3451 12.6187 19.9485C12.7216 19.7814 12.8027 19.6496 12.8486 19.5515C13.4949 18.1703 14.3969 17.1908 16.5007 15.7924Z" fill="#F2C94C"/>
</g>
<defs>
<filter id="filter0_d" x="2.66663" y="4.66699" width="74.6667" height="75.0327" filterUnits="userSpaceOnUse" color-interpolation-filters="sRGB">
<feFlood flood-opacity="0" result="BackgroundImageFix"/>
<feColorMatrix in="SourceAlpha" type="matrix" values="0 0 0 0 0 0 0 0 0 0 0 0 0 0 0 0 0 0 127 0"/>
<feOffset dy="2"/>
<feGaussianBlur stdDeviation="2"/>
<feColorMatrix type="matrix" values="0 0 0 0 0 0 0 0 0 0 0 0 0 0 0 0 0 0 0.24 0"/>
<feBlend mode="normal" in2="BackgroundImageFix" result="effect1_dropShadow"/>
<feBlend mode="normal" in="SourceGraphic" in2="effect1_dropShadow" result="shape"/>
</filter>
</defs>
</svg>
