<svg width="32" height="32" viewBox="0 0 32 32" fill="none" xmlns="http://www.w3.org/2000/svg">
<rect opacity="0.08" width="32" height="32" rx="16" fill="white"/>
<path fill-rule="evenodd" clip-rule="evenodd" d="M24.3337 15.9993C24.3337 11.3974 20.6023 7.66602 16.0003 7.66602C11.3984 7.66602 7.66699 11.3974 7.66699 15.9993C7.66699 20.1586 10.7139 23.6061 14.6982 24.2319V18.4089H12.5818V15.9993H14.6982V14.1634C14.6982 12.0752 15.9427 10.9209 17.8459 10.9209C18.7578 10.9209 19.7116 11.0838 19.7116 11.0838V13.1348H18.6603C17.6257 13.1348 17.302 13.7769 17.302 14.4368V15.9993H19.613L19.244 18.4089H17.3024V24.2326C21.2868 23.6072 24.3337 20.1597 24.3337 15.9993Z" fill="white"/>
</svg>
