<svg width="76" height="68" viewBox="0 0 76 68" fill="none" xmlns="http://www.w3.org/2000/svg">
<g filter="url(#filter0_d)">
<path fill-rule="evenodd" clip-rule="evenodd" d="M15.0138 10.4068C15.0138 5.76387 18.7777 2 23.4207 2H62.9268C67.5698 2 71.3337 5.76386 71.3337 10.4068V43.0151C71.3337 47.658 67.5698 51.4219 62.9268 51.4219H23.4207C18.7777 51.4219 15.0138 47.6581 15.0138 43.0151V10.4068ZM23.4207 6.58554C21.3102 6.58554 19.5994 8.29639 19.5994 10.4068V43.0151C19.5994 45.1255 21.3102 46.8364 23.4207 46.8364H62.9268C65.0373 46.8364 66.7481 45.1255 66.7481 43.0151V10.4068C66.7481 8.29638 65.0373 6.58554 62.9268 6.58554H23.4207ZM49.7007 21.3139C51.5437 21.3139 53.0378 19.8198 53.0378 17.9768C53.0378 16.1337 51.5437 14.6396 49.7007 14.6396C47.8576 14.6396 46.3635 16.1337 46.3635 17.9768C46.3634 19.8198 47.8576 21.3139 49.7007 21.3139ZM28.8075 37.3048L35.3774 30.4083C36.8272 29.1612 38.9458 29.1089 40.4567 30.2926L44.5157 33.6124L44.5499 33.6399C46.4766 35.1636 48.5804 35.9326 50.6283 35.8664C52.2118 35.8144 54.5817 35.2248 56.8782 32.7095L56.9193 32.6634L56.9378 32.6418L60.8089 28.1032C61.7657 26.9816 61.6319 25.2965 60.5101 24.3396C59.3883 23.3826 57.7032 23.5165 56.7463 24.6383L52.9066 29.14C51.3032 30.8784 49.7963 30.975 47.8776 29.4646L43.8178 26.1441L43.7836 26.1166C40.2008 23.283 35.1352 23.4436 31.7389 26.4982C31.688 26.5441 31.6387 26.5919 31.5913 26.6417L24.9413 33.6222C23.9242 34.6897 23.9653 36.3796 25.0328 37.3965C25.5496 37.8888 26.2124 38.1333 26.8738 38.1333C27.5791 38.1331 28.2828 37.8557 28.8075 37.3048ZM9.25253 14.6396C9.25253 13.3734 8.22602 12.3469 6.95976 12.3469C5.6935 12.3469 4.66699 13.3734 4.66699 14.6396V47.2479C4.66699 55.2676 11.1682 61.7688 19.1879 61.7688H58.694C59.9603 61.7688 60.9868 60.7423 60.9868 59.476C60.9868 58.2097 59.9603 57.1832 58.694 57.1832H19.1879C13.7007 57.1832 9.25253 52.735 9.25253 47.2479V14.6396Z" fill="#F2C94C"/>
</g>
<defs>
<filter id="filter0_d" x="0.666992" y="0" width="74.6667" height="67.7688" filterUnits="userSpaceOnUse" color-interpolation-filters="sRGB">
<feFlood flood-opacity="0" result="BackgroundImageFix"/>
<feColorMatrix in="SourceAlpha" type="matrix" values="0 0 0 0 0 0 0 0 0 0 0 0 0 0 0 0 0 0 127 0"/>
<feOffset dy="2"/>
<feGaussianBlur stdDeviation="2"/>
<feColorMatrix type="matrix" values="0 0 0 0 0 0 0 0 0 0 0 0 0 0 0 0 0 0 0.24 0"/>
<feBlend mode="normal" in2="BackgroundImageFix" result="effect1_dropShadow"/>
<feBlend mode="normal" in="SourceGraphic" in2="effect1_dropShadow" result="shape"/>
</filter>
</defs>
</svg>
