<svg width="32" height="32" viewBox="0 0 32 32" fill="none" xmlns="http://www.w3.org/2000/svg">
<rect opacity="0.08" width="32" height="32" rx="16" fill="white"/>
<path fill-rule="evenodd" clip-rule="evenodd" d="M21.9248 10.0749C21.2742 9.42426 20.3925 9.05753 19.4724 9.05478H12.5282C11.6081 9.05753 10.7265 9.42426 10.0759 10.0749C9.42524 10.7255 9.0585 11.6071 9.05576 12.5273V19.4714C9.0585 20.3916 9.42524 21.2732 10.0759 21.9238C10.7265 22.5744 11.6081 22.9412 12.5282 22.9439H19.4724C20.3925 22.9412 21.2742 22.5744 21.9248 21.9238C22.5754 21.2732 22.9421 20.3916 22.9449 19.4714V12.5273C22.9421 11.6071 22.5754 10.7255 21.9248 10.0749ZM12.5282 7.66602H19.4724C22.1462 7.66602 24.3337 9.85352 24.3337 12.5273V19.4714C24.3337 22.1452 22.1462 24.3327 19.4724 24.3327H12.5282C9.85449 24.3327 7.66699 22.1452 7.66699 19.4714V12.5273C7.66699 9.85352 9.85449 7.66602 12.5282 7.66602ZM19.936 12.3511C20.1073 12.4656 20.3087 12.5267 20.5147 12.5267C20.6516 12.527 20.7872 12.5002 20.9137 12.448C21.0402 12.3958 21.1552 12.319 21.2519 12.2223C21.3487 12.1255 21.4255 12.0105 21.4777 11.884C21.5299 11.7575 21.5567 11.6219 21.5564 11.485C21.5564 11.279 21.4953 11.0776 21.3808 10.9063C21.2664 10.735 21.1037 10.6015 20.9134 10.5227C20.723 10.4438 20.5136 10.4232 20.3115 10.4634C20.1094 10.5036 19.9238 10.6028 19.7782 10.7485C19.6325 10.8941 19.5333 11.0797 19.4931 11.2818C19.4529 11.4839 19.4735 11.6933 19.5523 11.8837C19.6312 12.074 19.7647 12.2367 19.936 12.3511ZM17.5443 13.6891C17.0875 13.3838 16.5504 13.2209 16.001 13.2209C15.2645 13.2217 14.5583 13.5146 14.0376 14.0354C13.5168 14.5562 13.2238 15.2623 13.2231 15.9988C13.2231 16.5482 13.386 17.0853 13.6912 17.5421C13.9965 17.9989 14.4303 18.355 14.9379 18.5652C15.4455 18.7755 16.004 18.8305 16.5429 18.7233C17.0818 18.6161 17.5767 18.3516 17.9652 17.9631C18.3537 17.5746 18.6183 17.0796 18.7255 16.5407C18.8327 16.0019 18.7777 15.4433 18.5674 14.9357C18.3572 14.4281 18.0011 13.9943 17.5443 13.6891ZM13.6861 12.5343C14.3713 12.0765 15.1769 11.8321 16.001 11.8321C17.106 11.8321 18.1658 12.2711 18.9472 13.0525C19.7286 13.8339 20.1676 14.8937 20.1676 15.9988C20.1676 16.8229 19.9233 17.6285 19.4654 18.3137C19.0076 18.9989 18.3568 19.5329 17.5955 19.8483C16.8341 20.1637 15.9963 20.2462 15.1881 20.0854C14.3798 19.9246 13.6374 19.5278 13.0547 18.9451C12.472 18.3624 12.0751 17.6199 11.9144 16.8117C11.7536 16.0034 11.8361 15.1656 12.1515 14.4043C12.4668 13.6429 13.0009 12.9922 13.6861 12.5343Z" fill="white"/>
</svg>
