<svg width="80" height="80" viewBox="0 0 80 80" fill="none" xmlns="http://www.w3.org/2000/svg">
<g filter="url(#filter0_d)">
<path fill-rule="evenodd" clip-rule="evenodd" d="M22.5265 25.2468C22.5265 20.2762 26.5559 16.2468 31.5264 16.2468C36.497 16.2468 40.5264 20.2762 40.5264 25.2468C40.5264 30.2173 36.497 34.2468 31.5264 34.2468C26.5559 34.2468 22.5265 30.2173 22.5265 25.2468ZM31.5264 11.667C24.0265 11.667 17.9466 17.7469 17.9466 25.2468C17.9466 32.7467 24.0265 38.8266 31.5264 38.8266C39.0263 38.8266 45.1062 32.7467 45.1062 25.2468C45.1062 17.7469 39.0263 11.667 31.5264 11.667ZM20.2463 45.5367C16.6447 45.5367 13.1906 46.9674 10.6439 49.5141C8.09723 52.0608 6.6665 55.5149 6.6665 59.1164V64.7614C6.6665 66.0261 7.69173 67.0513 8.9564 67.0513C10.2211 67.0513 11.2463 66.0261 11.2463 64.7614V59.1164C11.2463 56.7295 12.1945 54.4403 13.8823 52.7525C15.5702 51.0647 17.8593 50.1165 20.2463 50.1165H42.8261C45.213 50.1165 47.5022 51.0647 49.19 52.7525C50.8778 54.4403 51.826 56.7295 51.826 59.1164V64.7614C51.826 66.0261 52.8513 67.0513 54.116 67.0513C55.3806 67.0513 56.4058 66.0261 56.4058 64.7614V59.1164C56.4058 55.5149 54.9751 52.0608 52.4284 49.5141C49.8817 46.9674 46.4277 45.5367 42.8261 45.5367H20.2463ZM60.3587 47.6226C60.6748 46.3981 61.9238 45.6617 63.1483 45.9779C66.0616 46.7301 68.6426 48.4286 70.486 50.8066C72.3295 53.1846 73.3309 56.1075 73.3332 59.1163L73.3332 59.118L73.3332 64.763C73.3332 66.0277 72.3079 67.0529 71.0433 67.0529C69.7786 67.0529 68.7534 66.0277 68.7534 64.763L68.7534 59.1198L68.7534 59.1188C68.7517 57.125 68.088 55.1883 66.8664 53.6125C65.6447 52.0364 63.9342 50.9108 62.0034 50.4123C60.7789 50.0961 60.0425 48.8471 60.3587 47.6226ZM51.8615 12.1057C50.6363 11.792 49.3888 12.5309 49.0751 13.756C48.7615 14.9812 49.5003 16.2287 50.7255 16.5424C52.6614 17.0381 54.3773 18.1639 55.6027 19.7426C56.828 21.3212 57.4931 23.2627 57.4931 25.2611C57.4931 27.2595 56.828 29.201 55.6027 30.7797C54.3773 32.3583 52.6614 33.4842 50.7255 33.9798C49.5003 34.2935 48.7615 35.541 49.0751 36.7662C49.3888 37.9913 50.6363 38.7302 51.8615 38.4165C54.7825 37.6686 57.3716 35.9698 59.2205 33.5879C61.0694 31.2059 62.0729 28.2764 62.0729 25.2611C62.0729 22.2458 61.0694 19.3163 59.2205 16.9344C57.3716 14.5524 54.7825 12.8536 51.8615 12.1057Z" fill="#F2C94C"/>
</g>
<defs>
<filter id="filter0_d" x="2.6665" y="9.66699" width="74.6667" height="63.3859" filterUnits="userSpaceOnUse" color-interpolation-filters="sRGB">
<feFlood flood-opacity="0" result="BackgroundImageFix"/>
<feColorMatrix in="SourceAlpha" type="matrix" values="0 0 0 0 0 0 0 0 0 0 0 0 0 0 0 0 0 0 127 0"/>
<feOffset dy="2"/>
<feGaussianBlur stdDeviation="2"/>
<feColorMatrix type="matrix" values="0 0 0 0 0 0 0 0 0 0 0 0 0 0 0 0 0 0 0.24 0"/>
<feBlend mode="normal" in2="BackgroundImageFix" result="effect1_dropShadow"/>
<feBlend mode="normal" in="SourceGraphic" in2="effect1_dropShadow" result="shape"/>
</filter>
</defs>
</svg>
