<svg width="24" height="24" viewBox="0 0 24 24" fill="none" xmlns="http://www.w3.org/2000/svg">
<path fill-rule="evenodd" clip-rule="evenodd" d="M6.68309 2.31722C6.83283 2.43482 7.00101 2.59305 7.1945 2.78416C7.60904 3.19215 8.08997 3.84583 8.50264 4.47335C8.91994 5.10791 9.30662 5.77592 9.52335 6.24087C9.64619 6.50504 9.75719 6.74503 9.83502 6.95484C9.91406 7.16791 9.97974 7.40228 9.98016 7.65803C9.98105 8.19339 9.69047 8.60657 9.41057 8.98767C9.33016 9.09715 9.26184 9.18686 9.20295 9.26419C9.07602 9.43087 8.99281 9.54013 8.92619 9.6665C8.86121 9.78976 8.84225 9.87876 8.873 10.022C8.91735 10.2286 9.11016 10.6808 9.48454 11.2724C9.8466 11.8445 10.3423 12.4898 10.9346 13.0802C11.5268 13.6705 12.1618 14.1532 12.7225 14.5024C13.3003 14.8623 13.7453 15.047 13.9578 15.0924C14.1057 15.1239 14.198 15.1042 14.3216 15.0399C14.4519 14.9721 14.5678 14.8836 14.748 14.7459C14.8189 14.6919 14.8996 14.6302 14.9951 14.5592L15.0025 14.5538C15.3849 14.2696 15.8097 13.954 16.3483 13.9545C16.6144 13.9548 16.8532 14.03 17.0635 14.1158C17.2644 14.1978 17.4952 14.3141 17.7484 14.4416L17.7695 14.4523C18.2133 14.6761 18.8731 15.0551 19.5118 15.4684C20.1393 15.8743 20.8014 16.3482 21.2137 16.7636C21.4053 16.9571 21.5646 17.1259 21.6824 17.2756C21.7966 17.4205 21.9218 17.608 21.9747 17.8411C22.0342 18.1038 21.9802 18.3222 21.9249 18.4738C21.9 18.5421 21.8706 18.6077 21.8495 18.6546C21.8462 18.662 21.843 18.6691 21.8398 18.6761C21.8202 18.7196 21.8031 18.7576 21.7849 18.8011L21.7845 18.8021L21.784 18.8032C21.5975 19.2456 21.3705 19.6699 21.106 20.0707L21.1052 20.0719L21.1044 20.0731C20.5877 20.8495 19.2561 21.4331 18.5004 21.7851C18.1078 21.968 17.5467 22.1527 16.6748 22.044C15.8361 21.9394 14.745 21.5681 13.2558 20.734C10.8728 19.3976 9.21897 18.2452 7.08601 16.1182C4.95931 13.9974 3.91398 12.6132 2.44965 9.95306C0.975476 7.27501 1.82304 5.54715 2.24403 4.64755C2.5975 3.89222 3.10983 3.40833 3.88358 2.89426L3.88511 2.89325L3.88664 2.89225C4.28787 2.62863 4.7124 2.40231 5.15491 2.21613L5.15637 2.21551L5.15784 2.2149C5.20163 2.19671 5.23993 2.17954 5.28373 2.1599C5.29059 2.15683 5.2976 2.15369 5.30478 2.15047C5.35183 2.12942 5.41746 2.10014 5.48574 2.07534C5.63708 2.02036 5.85515 1.96666 6.1173 2.02577C6.35037 2.07833 6.53788 2.20317 6.68309 2.31722ZM5.70757 3.5334C5.34649 3.68542 5.00005 3.8701 4.67256 4.08513C4.0189 4.51959 3.73868 4.82392 3.53787 5.25303C3.40442 5.5382 2.31198 6.74067 3.70109 9.26419C5.10003 11.8056 6.06354 13.0811 8.09471 15.1066C10.1195 17.1258 11.6631 18.2029 13.9539 19.4877C15.3557 20.2728 16.2645 20.5532 16.8515 20.6264C17.4053 20.6955 17.6958 20.584 17.8972 20.4902C18.3297 20.2887 19.4808 19.9341 19.9146 19.2826C20.1302 18.9557 20.3152 18.6097 20.4674 18.2489C20.488 18.1998 20.5081 18.1544 20.5251 18.1165C20.4585 18.0375 20.3565 17.9282 20.1995 17.7696C19.9028 17.4708 19.3521 17.0665 18.7359 16.6678C18.1309 16.2763 17.5159 15.9243 17.1266 15.7279C16.8456 15.5864 16.6656 15.4963 16.5236 15.4384C16.3854 15.3819 16.3468 15.3831 16.3468 15.3831C16.3597 15.3831 16.3156 15.3578 15.8472 15.7058C15.7993 15.7414 15.7476 15.781 15.6929 15.823C15.4842 15.983 15.2315 16.1767 14.9811 16.307C14.607 16.5018 14.1775 16.5999 13.6598 16.4895C13.2067 16.3928 12.5957 16.1064 11.9673 15.7149C11.3218 15.3129 10.6004 14.7641 9.92612 14.0919C9.25194 13.4199 8.69102 12.6898 8.27744 12.0363C7.87619 11.4023 7.57437 10.7786 7.47631 10.3219C7.36466 9.80176 7.46646 9.37225 7.66251 9.00034C7.78886 8.76067 7.97772 8.51304 8.13317 8.30923C8.1789 8.24927 8.22174 8.19309 8.25925 8.14203C8.55951 7.7332 8.55247 7.66803 8.5517 7.66092C8.55167 7.64716 8.54845 7.5939 8.49569 7.45166C8.44172 7.30618 8.35772 7.12209 8.22838 6.84396C8.05176 6.46516 7.70555 5.86113 7.30909 5.25826C6.90803 4.6484 6.49437 4.0993 6.19211 3.80193L6.19108 3.80092C6.03159 3.64337 5.9219 3.54127 5.8427 3.47481C5.80422 3.49201 5.75785 3.51249 5.70757 3.5334Z" fill="#242424"/>
</svg>
