<svg width="24" height="24" viewBox="0 0 24 24" fill="none" xmlns="http://www.w3.org/2000/svg">
<path fill-rule="evenodd" clip-rule="evenodd" d="M6.68211 2.31722C6.83186 2.43482 7.00004 2.59305 7.19353 2.78416C7.60807 3.19215 8.08899 3.84583 8.50166 4.47335C8.91896 5.10791 9.30564 5.77592 9.52237 6.24087C9.64522 6.50504 9.75621 6.74503 9.83404 6.95484C9.91308 7.16791 9.97876 7.40228 9.97919 7.65803C9.98007 8.19339 9.68949 8.60657 9.4096 8.98767C9.32918 9.09715 9.26086 9.18686 9.20197 9.26419C9.07504 9.43087 8.99183 9.54013 8.92521 9.6665C8.86023 9.78976 8.84127 9.87876 8.87203 10.022C8.91638 10.2286 9.10918 10.6808 9.48356 11.2724C9.84563 11.8445 10.3413 12.4898 10.9336 13.0802C11.5258 13.6705 12.1609 14.1532 12.7216 14.5024C13.2993 14.8623 13.7443 15.047 13.9568 15.0924C14.1047 15.1239 14.1971 15.1042 14.3206 15.0399C14.4509 14.9721 14.5668 14.8836 14.747 14.7459C14.8179 14.6919 14.8987 14.6302 14.9942 14.5592L15.0015 14.5538C15.3839 14.2696 15.8088 13.954 16.3473 13.9545C16.6134 13.9548 16.8522 14.03 17.0625 14.1158C17.2634 14.1978 17.4942 14.3141 17.7474 14.4416L17.7686 14.4523C18.2123 14.6761 18.8721 15.0551 19.5109 15.4684C20.1384 15.8743 20.8004 16.3482 21.2127 16.7636C21.4043 16.9571 21.5636 17.1259 21.6815 17.2756C21.7956 17.4205 21.9209 17.608 21.9737 17.8411C22.0332 18.1038 21.9793 18.3222 21.924 18.4738C21.899 18.5421 21.8696 18.6077 21.8485 18.6546C21.8452 18.662 21.842 18.6691 21.8388 18.6761C21.8192 18.7196 21.8021 18.7576 21.7839 18.8011L21.7835 18.8021L21.7831 18.8032C21.5965 19.2456 21.3695 19.6699 21.1051 20.0707L21.1043 20.0719L21.1035 20.0731C20.5867 20.8495 19.2551 21.4331 18.4995 21.7851C18.1068 21.968 17.5457 22.1527 16.6738 22.044C15.8351 21.9394 14.744 21.5681 13.2548 20.734C10.8719 19.3976 9.218 18.2452 7.08503 16.1182C4.95833 13.9974 3.913 12.6132 2.44867 9.95306C0.9745 7.27501 1.82206 5.54715 2.24305 4.64755C2.59652 3.89222 3.10885 3.40833 3.88261 2.89426L3.88413 2.89325L3.88566 2.89225C4.28689 2.62863 4.71143 2.40231 5.15394 2.21613L5.1554 2.21551L5.15686 2.2149C5.20065 2.19671 5.23896 2.17954 5.28275 2.1599C5.28962 2.15683 5.29662 2.15369 5.3038 2.15047C5.35086 2.12942 5.41648 2.10014 5.48476 2.07534C5.63611 2.02036 5.85417 1.96666 6.11632 2.02577C6.34939 2.07833 6.5369 2.20317 6.68211 2.31722ZM5.7066 3.5334C5.34552 3.68542 4.99907 3.8701 4.67158 4.08513C4.01792 4.51959 3.73771 4.82392 3.5369 5.25303C3.40344 5.5382 2.31101 6.74067 3.70011 9.26419C5.09905 11.8056 6.06257 13.0811 8.09373 15.1066C10.1185 17.1258 11.6622 18.2029 13.9529 19.4877C15.3547 20.2728 16.2635 20.5532 16.8505 20.6264C17.4043 20.6955 17.6948 20.584 17.8963 20.4902C18.3287 20.2887 19.4799 19.9341 19.9136 19.2826C20.1292 18.9557 20.3142 18.6097 20.4665 18.2489C20.487 18.1998 20.5071 18.1544 20.5241 18.1165C20.4575 18.0375 20.3555 17.9282 20.1985 17.7696C19.9018 17.4708 19.3512 17.0665 18.7349 16.6678C18.1299 16.2763 17.5149 15.9243 17.1256 15.7279C16.8446 15.5864 16.6647 15.4963 16.5226 15.4384C16.3844 15.3819 16.3458 15.3831 16.3458 15.3831C16.3587 15.3831 16.3146 15.3578 15.8462 15.7058C15.7984 15.7414 15.7466 15.781 15.6919 15.823C15.4832 15.983 15.2305 16.1767 14.9801 16.307C14.606 16.5018 14.1765 16.5999 13.6588 16.4895C13.2058 16.3928 12.5947 16.1064 11.9663 15.7149C11.3208 15.3129 10.5994 14.7641 9.92514 14.0919C9.25097 13.4199 8.69004 12.6898 8.27647 12.0363C7.87521 11.4023 7.57339 10.7786 7.47534 10.3219C7.36369 9.80176 7.46548 9.37225 7.66154 9.00034C7.78788 8.76067 7.97675 8.51304 8.13219 8.30923C8.17793 8.24927 8.22077 8.19309 8.25827 8.14203C8.55853 7.7332 8.55149 7.66803 8.55072 7.66092C8.5507 7.64716 8.54747 7.5939 8.49471 7.45166C8.44075 7.30618 8.35674 7.12209 8.22741 6.84396C8.05079 6.46516 7.70457 5.86113 7.30811 5.25826C6.90705 4.6484 6.4934 4.0993 6.19113 3.80193L6.19011 3.80092C6.03061 3.64337 5.92092 3.54127 5.84172 3.47481C5.80324 3.49201 5.75687 3.51249 5.7066 3.5334Z" fill="white"/>
</svg>
