<svg width="24" height="24" viewBox="0 0 24 24" fill="none" xmlns="http://www.w3.org/2000/svg">
<path fill-rule="evenodd" clip-rule="evenodd" d="M12 2.75C6.89137 2.75 2.75 6.89137 2.75 12C2.75 17.1086 6.89137 21.25 12 21.25C17.1086 21.25 21.25 17.1086 21.25 12C21.25 6.89137 17.1086 2.75 12 2.75ZM1.25 12C1.25 6.06294 6.06294 1.25 12 1.25C17.9371 1.25 22.75 6.06294 22.75 12C22.75 17.9371 17.9371 22.75 12 22.75C6.06294 22.75 1.25 17.9371 1.25 12ZM7.2019 14.7017C7.8114 14.0922 8.63805 13.7498 9.5 13.7498H14.5C15.362 13.7498 16.1886 14.0922 16.7981 14.7017C17.4076 15.3112 17.75 16.1378 17.75 16.9998C17.75 17.414 17.4142 17.7498 17 17.7498C16.5858 17.7498 16.25 17.414 16.25 16.9998C16.25 16.5356 16.0656 16.0905 15.7374 15.7623C15.4092 15.4341 14.9641 15.2498 14.5 15.2498H9.5C9.03587 15.2498 8.59075 15.4341 8.26256 15.7623C7.93437 16.0905 7.75 16.5356 7.75 16.9998C7.75 17.414 7.41421 17.7498 7 17.7498C6.58579 17.7498 6.25 17.414 6.25 16.9998C6.25 16.1378 6.59241 15.3112 7.2019 14.7017ZM10.2489 9.5C10.2489 8.5335 11.0324 7.75 11.9989 7.75C12.9654 7.75 13.7489 8.5335 13.7489 9.5C13.7489 10.4665 12.9654 11.25 11.9989 11.25C11.0324 11.25 10.2489 10.4665 10.2489 9.5ZM11.9989 6.25C10.2039 6.25 8.74886 7.70507 8.74886 9.5C8.74886 11.2949 10.2039 12.75 11.9989 12.75C13.7938 12.75 15.2489 11.2949 15.2489 9.5C15.2489 7.70507 13.7938 6.25 11.9989 6.25Z" fill="#F2C94C"/>
</svg>
