<svg width="20" height="12" viewBox="0 0 20 12" fill="none" xmlns="http://www.w3.org/2000/svg">
<path d="M18.6667 11.3496C18.48 11.3494 18.2955 11.3101 18.125 11.2342C18.0853 11.2166 18.0475 11.1951 18.0121 11.17L14.5658 8.74417C14.3911 8.62113 14.2484 8.45789 14.1499 8.26819C14.0515 8.07849 14 7.8679 14 7.65417V4.34583C14 4.1321 14.0515 3.92151 14.1499 3.73181C14.2484 3.54211 14.3911 3.37886 14.5658 3.25583L18.0121 0.83C18.0475 0.804935 18.0853 0.783441 18.125 0.765834C18.328 0.675581 18.5503 0.637483 18.7718 0.655001C18.9933 0.672519 19.2069 0.745099 19.3931 0.866144C19.5794 0.98719 19.7325 1.15287 19.8385 1.34812C19.9445 1.54337 20 1.76201 20 1.98417V10.0158C20 10.3695 19.8595 10.7086 19.6095 10.9586C19.3594 11.2087 19.0203 11.3492 18.6667 11.3492V11.3496ZM10.5 12H2.83333C2.08212 11.9992 1.3619 11.7005 0.830717 11.1693C0.299531 10.6381 0.000772113 9.91788 0 9.16667V2.83333C0.000772113 2.08212 0.299531 1.3619 0.830717 0.830717C1.3619 0.299531 2.08212 0.000772113 2.83333 0H10.52C11.2659 0.000882167 11.9809 0.297569 12.5084 0.82498C13.0358 1.35239 13.3325 2.06746 13.3333 2.81333V9.16667C13.3326 9.91788 13.0338 10.6381 12.5026 11.1693C11.9714 11.7005 11.2512 11.9992 10.5 12Z" fill="#242424"/>
</svg>
