<svg width="32" height="32" viewBox="0 0 32 32" fill="none" xmlns="http://www.w3.org/2000/svg">
<rect opacity="0.08" width="32" height="32" rx="16" fill="white"/>
<path d="M24.2266 12.0944C24.2266 10.6294 23.149 9.45086 21.8174 9.45086C20.0138 9.36654 18.1744 9.33398 16.2946 9.33398H15.7086C13.8333 9.33398 11.9907 9.36654 10.187 9.45119C8.85875 9.45119 7.78114 10.6362 7.78114 12.1013C7.69975 13.2599 7.66524 14.4189 7.66719 15.5779C7.66393 16.7369 7.70083 17.897 7.77788 19.0582C7.77788 20.5232 8.85549 21.7115 10.1838 21.7115C12.0786 21.7994 14.0222 21.8385 15.9983 21.8352C17.9777 21.8417 19.9159 21.8005 21.8129 21.7115C23.1444 21.7115 24.222 20.5232 24.222 19.0582C24.3001 17.8959 24.336 16.7369 24.3327 15.5747C24.3401 14.4157 24.3047 13.2556 24.2266 12.0944ZM14.4063 18.7717V12.3744L19.127 15.5714L14.4063 18.7717Z" fill="white"/>
</svg>
