<svg width="172" height="96" viewBox="0 0 172 96" fill="none" xmlns="http://www.w3.org/2000/svg">
<path d="M96.465 73.0289C96.465 69.0096 96.465 65.4609 96.465 61.9185C96.465 45.1987 96.4141 31.5062 96.465 14.7928C96.4841 7.59354 99.2315 0.292548 107.893 0C107.893 1.41186 107.862 2.67745 107.862 4.02572C107.893 22.5389 107.919 41.0522 107.849 59.5717C107.817 67.6422 104.834 71.3245 96.465 73.0289Z" fill="url(#paint0_linear)"/>
<path d="M45.2553 48.7404C45.1917 36.8286 52.7661 27.1682 63.4569 24.4462C65.3648 23.9629 67.3554 23.6767 69.435 23.664C83.3501 23.5495 94.4988 34.6727 94.4543 48.626C94.4097 62.045 83.6109 72.9202 70.1282 73.1046C56.3848 73.2954 45.3316 62.4711 45.2553 48.7404ZM69.6385 61.479C76.8314 61.5172 83.0385 55.7171 83.1975 48.804C83.3629 41.6557 77.1621 35.385 69.8739 35.3277C62.5347 35.2705 56.2958 41.3949 56.3785 48.556C56.4675 55.6344 62.4266 61.4472 69.6385 61.479Z" fill="url(#paint1_linear)"/>
<path d="M63.4832 24.4477C63.5022 24.435 66.4722 23.6846 69.5376 23.6655C83.4528 23.5828 94.5887 34.6615 94.5441 48.6084C94.5314 53.569 93.0432 58.1735 90.4994 62.0275C85.8758 69.0232 76.1581 70.3651 69.5631 65.1883C67.7378 63.7573 66.0461 62.1992 64.5325 60.4439C66.1288 61.1244 67.8905 61.4551 69.7221 61.4678C76.9149 61.506 83.122 55.7059 83.281 48.7929C83.4464 41.6445 77.2456 35.3738 69.9574 35.3166C63.7566 35.272 57.8421 39.762 56.621 45.9946C56.6274 45.9946 52.9451 30.0316 63.4832 24.4477Z" fill="url(#paint2_linear)"/>
<path d="M77.2774 24.8223C76.8322 32.2441 79.427 38.8709 85.1444 44.1877C88.1207 46.9542 91.1861 49.6253 94.2579 52.29C94.4487 51.0244 94.5441 49.727 94.5441 48.4042C94.5441 37.0839 87.2622 27.9513 77.2774 24.8223Z" fill="url(#paint3_linear)"/>
<path d="M107.88 17.5591C106.182 15.8356 104.631 13.9594 102.767 12.5158C100.885 11.053 99.1293 10.0864 97.0116 9.60938C96.7508 10.8368 96.5537 12.007 96.5091 13.2471C96.0512 27.6583 96.471 39.9581 96.5091 53.7587C97.4504 54.5918 98.3916 55.425 99.3265 56.2645C101.959 58.6239 104.809 61.1805 107.511 63.5972C107.804 61.702 107.906 60.1503 107.906 58.1279C107.931 44.6007 107.931 31.0799 107.88 17.5591Z" fill="url(#paint4_linear)"/>
<path d="M34.7945 32.6134C31.7991 39.7618 28.9881 46.9864 25.4394 55.8265C21.8906 46.9864 19.0796 39.7618 16.0905 32.6198C13.2032 25.7322 8.49064 22.9784 0.0576172 23.7034C6.36012 39.1385 12.0394 54.1475 18.5136 68.8894C19.8428 71.9103 22.6856 73.2967 25.4394 73.1759C24.8797 65.5951 31.7482 69.926 33.0774 66.9052C39.5516 52.1633 44.5186 39.1385 50.8211 23.7034C42.3881 22.9784 37.6755 25.7322 34.7945 32.6134Z" fill="url(#paint5_linear)"/>
<path d="M0 23.7664C0 23.7664 7.72073 22.3482 12.2743 26.9209C13.6735 28.3264 14.3349 28.9687 15.8548 32.085L25.5598 55.7242C25.5598 55.7242 28.7206 66.7647 33.1979 66.6375C33.1979 66.6375 30.4568 73.2198 25.7124 73.1817C25.7124 73.1817 22.4245 73.4297 20.2367 71.3246C20.2367 71.3246 18.8312 69.9891 18.1316 68.0112L15.2316 61.2317L13.171 56.2393L10.042 48.5567L6.01632 38.6355L0 23.7664Z" fill="url(#paint6_linear)"/>
<path d="M120.93 24.5352L121.057 59.6855C121.057 67.7623 118.087 71.4573 109.724 73.1936C109.711 69.1742 109.692 65.6255 109.68 62.0831L110.036 35.0605L120.93 24.5352Z" fill="url(#paint7_linear)"/>
<path d="M145.137 67.3314C144.85 70.8611 142.949 73.1124 139.362 73.1633C135.718 73.2142 133.708 70.8992 133.632 67.3378C133.555 63.6618 135.781 61.4932 139.317 61.4932C142.809 61.4995 144.946 63.5792 145.137 67.3314Z" fill="url(#paint8_linear)"/>
<path d="M160.736 67.2484C160.45 70.7781 158.548 73.0294 154.962 73.0803C151.317 73.1312 149.308 70.8162 149.231 67.2548C149.155 63.5788 151.381 61.4102 154.917 61.4102C158.409 61.4165 160.545 63.4962 160.736 67.2484Z" fill="url(#paint9_linear)"/>
<path d="M139.908 59.4959L140.086 59.4641C136.29 57.181 133.765 53.1235 133.714 48.4936C133.631 41.3261 139.87 35.2081 147.209 35.2653C154.498 35.3225 160.698 41.5933 160.533 48.7416C160.431 53.2252 157.779 57.2446 153.963 59.5023H153.97L167.414 62.4659C170.162 58.5165 171.783 53.7276 171.796 48.5572C171.841 34.6039 160.705 23.4934 146.79 23.6143C144.71 23.6333 142.707 23.8941 140.799 24.3838C130.108 27.1058 122.533 36.7662 122.597 48.678C122.623 53.8294 124.193 58.5674 126.877 62.4723L139.908 59.4959Z" fill="url(#paint10_linear)"/>
<path d="M138.496 25.3624C138.471 32.9623 135.692 39.3347 130.051 44.3716C127.583 46.5785 125.198 48.7535 122.699 50.9222C121.363 37.077 130.413 29.2164 134.134 27.1876C134.134 27.1876 135.762 26.0874 138.445 25.0953L138.496 25.0762V25.3624Z" fill="url(#paint11_linear)"/>
<path d="M115.321 22.6343C118.795 22.6343 121.611 19.8182 121.611 16.3445C121.611 12.8707 118.795 10.0547 115.321 10.0547C111.847 10.0547 109.031 12.8707 109.031 16.3445C109.031 19.8182 111.847 22.6343 115.321 22.6343Z" fill="url(#paint12_linear)"/>
<path d="M115.258 22.6397C118.781 22.6397 121.713 19.8032 121.611 16.3499C121.541 13.9077 120.244 11.879 118.298 10.8105C116.301 11.4402 114.342 12.5531 112.485 14.1049C111.226 15.1543 110.208 16.3117 109.127 17.4883C109.648 20.3565 112.211 22.6397 115.258 22.6397Z" fill="url(#paint13_linear)"/>
<path d="M109.978 32.3518L109.686 63.5909L113.215 60.3474C115.823 57.9689 118.417 54.382 121.025 52.0162L121.063 23.3655C121.063 23.3655 112.808 22.208 110.379 29.8334C110.188 30.4312 109.991 31.7222 109.978 32.3518Z" fill="url(#paint14_linear)"/>
<path d="M19.8425 92.0691H18.4688V80.3672H19.8425V92.0691Z" fill="#878787"/>
<path d="M26.6152 91.9867C26.2972 92.1584 25.8839 92.2475 25.3687 92.2475C23.906 92.2475 23.1746 91.4334 23.1746 89.799V84.8511H21.7373V83.7064H23.1746V81.6649L24.5102 81.2324V83.7064H26.6152V84.8511H24.5102V89.5573C24.5102 90.117 24.6056 90.5176 24.7963 90.7593C24.9871 91.001 25.3051 91.1155 25.7439 91.1155C26.081 91.1155 26.3736 91.0201 26.6152 90.8356V91.9867Z" fill="#878787"/>
<path d="M30.0504 80.1699L28.9056 83.8077H27.9453L28.8484 80.1699H30.0504Z" fill="#878787"/>
<path d="M31.7236 91.7632V90.326C32.455 90.8665 33.2563 91.1336 34.134 91.1336C35.3105 91.1336 35.8956 90.7393 35.8956 89.9571C35.8956 89.7345 35.8447 89.5437 35.743 89.3911C35.6412 89.2384 35.5077 89.0985 35.336 88.9777C35.1643 88.8569 34.9607 88.7487 34.7318 88.6533C34.5028 88.5579 34.2548 88.4562 33.9877 88.3544C33.6188 88.2082 33.2945 88.0619 33.0147 87.9092C32.7348 87.7566 32.4995 87.5913 32.3151 87.4005C32.1307 87.216 31.9844 86.9998 31.889 86.7581C31.7936 86.5165 31.7491 86.2366 31.7491 85.9187C31.7491 85.5244 31.8381 85.1809 32.0162 84.8757C32.1943 84.5704 32.4359 84.3224 32.7348 84.1188C33.0337 83.9153 33.3772 83.7627 33.7588 83.6546C34.1403 83.5528 34.541 83.502 34.948 83.502C35.673 83.502 36.3217 83.6291 36.8877 83.8772V85.2318C36.2709 84.8311 35.5649 84.6276 34.7636 84.6276C34.5156 84.6276 34.2866 84.6531 34.0895 84.7103C33.8923 84.7675 33.7142 84.8502 33.5743 84.952C33.4344 85.0537 33.3199 85.1809 33.2373 85.3208C33.1609 85.4671 33.1164 85.6261 33.1164 85.7978C33.1164 86.0141 33.1546 86.1985 33.2373 86.3448C33.3136 86.491 33.4344 86.6246 33.587 86.7391C33.7397 86.8535 33.9241 86.9553 34.1403 87.0507C34.3566 87.1461 34.6046 87.2415 34.8844 87.356C35.2533 87.4959 35.584 87.6421 35.8829 87.7948C36.1818 87.9474 36.4298 88.1128 36.6334 88.3036C36.8432 88.4944 37.0022 88.7106 37.1103 88.9522C37.2248 89.2003 37.2757 89.4865 37.2757 89.8235C37.2757 90.2369 37.1867 90.5931 37.0022 90.8983C36.8178 91.2036 36.5761 91.458 36.2709 91.6551C35.9656 91.8586 35.6158 92.0049 35.2151 92.1067C34.8208 92.2021 34.4011 92.253 33.9686 92.253C33.1037 92.2657 32.3532 92.1003 31.7236 91.7632Z" fill="#878787"/>
<path d="M47.7744 91.9867C47.4564 92.1584 47.043 92.2475 46.5279 92.2475C45.0652 92.2475 44.3338 91.4334 44.3338 89.799V84.8511H42.8965V83.7064H44.3338V81.6649L45.6693 81.2324V83.7064H47.7744V84.8511H45.6693V89.5573C45.6693 90.117 45.7647 90.5176 45.9555 90.7593C46.1463 91.001 46.4643 91.1155 46.9031 91.1155C47.2402 91.1155 47.5327 91.0201 47.7744 90.8356V91.9867Z" fill="#878787"/>
<path d="M50.2497 81.5883C50.008 81.5883 49.8045 81.5056 49.6392 81.3402C49.4674 81.1749 49.3848 80.9714 49.3848 80.717C49.3848 80.4626 49.4674 80.2591 49.6392 80.0937C49.8109 79.9284 50.0144 79.8457 50.2497 79.8457C50.4914 79.8457 50.7012 79.9284 50.8729 80.0937C51.0447 80.2591 51.1273 80.469 51.1273 80.717C51.1273 80.9587 51.0447 81.1622 50.8729 81.3275C50.7012 81.5056 50.4977 81.5883 50.2497 81.5883ZM50.9047 92.0691H49.5692V83.7124H50.9047V92.0691Z" fill="#878787"/>
<path d="M65.4796 92.069H64.144V87.2674C64.144 86.3453 64.0041 85.6711 63.7179 85.2577C63.4317 84.8444 62.9548 84.6345 62.2743 84.6345C61.7019 84.6345 61.2185 84.8952 60.8179 85.4167C60.4172 85.9382 60.2201 86.5679 60.2201 87.2929V92.0563H58.8845V87.0957C58.8845 85.4549 58.2485 84.6281 56.9829 84.6281C56.3979 84.6281 55.9081 84.8762 55.5329 85.3659C55.1513 85.8556 54.9605 86.4979 54.9605 87.2865V92.05H53.625V83.6933H54.9605V85.0161H54.9923C55.5838 84.0049 56.4487 83.4961 57.5871 83.4961C58.1595 83.4961 58.6556 83.6551 59.0817 83.9731C59.5078 84.2911 59.794 84.7108 59.9529 85.2259C60.5762 84.0748 61.4984 83.4961 62.7258 83.4961C64.5638 83.4961 65.4859 84.6281 65.4859 86.8986V92.069H65.4796Z" fill="#878787"/>
<path d="M74.7209 88.2218H68.819C68.8381 89.1504 69.0925 89.869 69.5695 90.3778C70.0465 90.8866 70.7079 91.1346 71.5474 91.1346C72.4886 91.1346 73.3535 90.823 74.1422 90.2061V91.4653C73.4108 91.9995 72.4377 92.2666 71.2294 92.2666C70.0465 92.2666 69.1243 91.885 68.4438 91.1282C67.7697 90.3714 67.4326 89.303 67.4326 87.9229C67.4326 86.6255 67.8015 85.5635 68.5392 84.7431C69.2769 83.9226 70.1927 83.5156 71.2866 83.5156C72.3805 83.5156 73.2263 83.8718 73.8242 84.5777C74.422 85.2836 74.7209 86.2694 74.7209 87.5223V88.2218ZM73.3535 87.0898C73.3472 86.3203 73.1627 85.7161 72.7939 85.2836C72.425 84.8512 71.9162 84.6413 71.2612 84.6413C70.6316 84.6413 70.0973 84.8702 69.6522 85.3218C69.207 85.7733 68.9399 86.3648 68.8381 87.0898H73.3535Z" fill="#878787"/>
<path d="M85.2012 91.9867C84.8832 92.1584 84.4698 92.2475 83.9546 92.2475C82.4919 92.2475 81.7605 91.4334 81.7605 89.799V84.8511H80.3232V83.7064H81.7605V81.6649L83.0961 81.2324V83.7064H85.2012V84.8511H83.0961V89.5573C83.0961 90.117 83.1915 90.5176 83.3823 90.7593C83.5731 91.001 83.8847 91.1155 84.3299 91.1155C84.6669 91.1155 84.9595 91.0201 85.2012 90.8356V91.9867Z" fill="#878787"/>
<path d="M90.4809 92.2661C89.2471 92.2661 88.2613 91.8782 87.5236 91.0959C86.7859 90.3137 86.417 89.2771 86.417 87.9924C86.417 86.5869 86.7986 85.493 87.5681 84.7044C88.3376 83.9158 89.3743 83.5215 90.678 83.5215C91.9245 83.5215 92.8976 83.9031 93.5971 84.6726C94.2967 85.4421 94.6465 86.5042 94.6465 87.8652C94.6465 89.2007 94.2713 90.2628 93.5145 91.0705C92.764 91.8655 91.7528 92.2661 90.4809 92.2661ZM90.5826 84.6408C89.7241 84.6408 89.0436 84.9333 88.5411 85.5184C88.0387 86.1035 87.7907 86.9112 87.7907 87.9351C87.7907 88.9273 88.0451 89.7032 88.5475 90.2755C89.0563 90.8479 89.7304 91.1341 90.5826 91.1341C91.4475 91.1341 92.1153 90.8543 92.5796 90.2946C93.0439 89.735 93.2792 88.94 93.2792 87.9033C93.2792 86.8604 93.0439 86.0527 92.5796 85.4866C92.109 84.927 91.4475 84.6408 90.5826 84.6408Z" fill="#878787"/>
<path d="M102.729 90.8606H102.697V92.0689H101.361V79.6992H102.697V85.1813H102.729C103.39 84.0684 104.35 83.5151 105.616 83.5151C106.691 83.5151 107.524 83.8903 108.134 84.6344C108.739 85.3848 109.044 86.3833 109.044 87.6425C109.044 89.0417 108.7 90.161 108.026 91.0005C107.346 91.84 106.417 92.2597 105.234 92.2597C104.134 92.2661 103.295 91.7955 102.729 90.8606ZM102.697 87.4899V88.6537C102.697 89.347 102.919 89.9321 103.371 90.4154C103.823 90.8987 104.389 91.1404 105.082 91.1404C105.889 91.1404 106.525 90.8288 106.99 90.2119C107.454 89.595 107.677 88.7301 107.677 87.6235C107.677 86.6949 107.46 85.9636 107.034 85.4357C106.602 84.9078 106.023 84.6471 105.285 84.6471C104.509 84.6471 103.88 84.9206 103.409 85.4612C102.932 85.9954 102.697 86.6759 102.697 87.4899Z" fill="#878787"/>
<path d="M117.903 88.2218H112.002C112.021 89.1504 112.275 89.869 112.752 90.3778C113.229 90.8866 113.89 91.1346 114.73 91.1346C115.671 91.1346 116.536 90.823 117.325 90.2061V91.4653C116.593 91.9995 115.62 92.2666 114.412 92.2666C113.229 92.2666 112.307 91.885 111.626 91.1282C110.952 90.3714 110.615 89.303 110.615 87.9229C110.615 86.6255 110.984 85.5635 111.722 84.7431C112.46 83.9226 113.375 83.5156 114.469 83.5156C115.563 83.5156 116.409 83.8718 117.007 84.5777C117.605 85.2836 117.903 86.2694 117.903 87.5223V88.2218ZM116.53 87.0898C116.523 86.3203 116.339 85.7161 115.97 85.2836C115.601 84.8512 115.092 84.6413 114.437 84.6413C113.808 84.6413 113.274 84.8702 112.828 85.3218C112.39 85.7733 112.116 86.3648 112.014 87.0898H116.53Z" fill="#878787"/>
<path d="M131.443 92.0689H130.108V87.2546C130.108 85.512 129.459 84.6407 128.168 84.6407C127.513 84.6407 126.966 84.8951 126.521 85.3975C126.076 85.9 125.853 86.5487 125.853 87.3373V92.0689H124.518V79.6992H125.853V85.0986H125.885C126.527 84.0429 127.443 83.5151 128.626 83.5151C130.508 83.5151 131.45 84.6471 131.45 86.9175V92.0689H131.443Z" fill="#F2BF2A"/>
<path d="M139.945 92.0695H138.609V90.7657H138.577C137.992 91.7642 137.14 92.2666 136.008 92.2666C135.175 92.2666 134.526 92.044 134.056 91.6052C133.585 91.1664 133.35 90.5813 133.35 89.8499C133.35 88.2854 134.272 87.3823 136.11 87.1216L138.615 86.7718C138.615 85.3536 138.043 84.6413 136.892 84.6413C135.887 84.6413 134.978 84.9847 134.164 85.6716V84.2979C134.984 83.7764 135.932 83.5156 137 83.5156C138.965 83.5156 139.945 84.5523 139.945 86.6319V92.0695ZM138.603 87.8402L136.587 88.1201C135.97 88.2091 135.499 88.3617 135.181 88.578C134.863 88.8006 134.711 89.1885 134.711 89.7482C134.711 90.1552 134.857 90.4923 135.149 90.7467C135.442 91.001 135.83 91.1346 136.313 91.1346C136.975 91.1346 137.528 90.8993 137.954 90.435C138.387 89.9708 138.603 89.3793 138.603 88.667V87.8402Z" fill="#F2BF2A"/>
<path d="M143.838 90.8611H143.806V95.9108H142.471V83.7128H143.806V85.1819H143.838C144.499 84.0689 145.46 83.5156 146.725 83.5156C147.8 83.5156 148.646 83.8908 149.244 84.6349C149.848 85.3854 150.147 86.3839 150.147 87.6431C150.147 89.0422 149.803 90.1616 149.129 91.001C148.449 91.8405 147.52 92.2603 146.337 92.2603C145.256 92.2666 144.423 91.796 143.838 90.8611ZM143.806 87.4905V88.6543C143.806 89.3475 144.029 89.9326 144.48 90.4159C144.932 90.8993 145.498 91.141 146.191 91.141C146.999 91.141 147.635 90.8293 148.099 90.2124C148.563 89.5955 148.786 88.7306 148.786 87.624C148.786 86.6955 148.57 85.9641 148.144 85.4363C147.711 84.9084 147.132 84.6477 146.395 84.6477C145.619 84.6477 144.989 84.9211 144.519 85.4617C144.042 85.9959 143.806 86.6764 143.806 87.4905Z" fill="#F2BF2A"/>
<path d="M153.664 90.8611H153.632V95.9108H152.297V83.7128H153.632V85.1819H153.664C154.326 84.0689 155.286 83.5156 156.552 83.5156C157.626 83.5156 158.472 83.8908 159.07 84.6349C159.674 85.3854 159.973 86.3839 159.973 87.6431C159.973 89.0422 159.63 90.1616 158.956 91.001C158.275 91.8405 157.347 92.2603 156.164 92.2603C155.082 92.2666 154.249 91.796 153.664 90.8611ZM153.632 87.4905V88.6543C153.632 89.3475 153.855 89.9326 154.307 90.4159C154.758 90.8993 155.324 91.141 156.017 91.141C156.825 91.141 157.461 90.8293 157.925 90.2124C158.39 89.5955 158.612 88.7306 158.612 87.624C158.612 86.6955 158.396 85.9641 157.97 85.4363C157.537 84.9084 156.959 84.6477 156.221 84.6477C155.445 84.6477 154.815 84.9211 154.345 85.4617C153.868 85.9959 153.632 86.6764 153.632 87.4905Z" fill="#F2BF2A"/>
<path d="M168.769 83.7119L164.928 93.4042C164.241 95.134 163.28 95.999 162.04 95.999C161.69 95.999 161.398 95.9608 161.169 95.8908V94.6889C161.455 94.7843 161.722 94.8351 161.958 94.8351C162.632 94.8351 163.141 94.4345 163.478 93.6268L164.145 92.0432L160.883 83.7056H162.365L164.622 90.1353C164.648 90.218 164.705 90.4278 164.794 90.7713H164.845C164.87 90.6377 164.928 90.4342 165.01 90.148L167.382 83.6992H168.769V83.7119Z" fill="#F2BF2A"/>
<path d="M159.527 53.5681C159.527 53.5681 172.845 42.9664 167.7 34.7051C171.026 39.335 171.56 44.7153 171.617 45.0715C172.622 51.2977 171.255 57.5111 167.56 62.459L154.115 59.4954C154.115 59.4954 157.734 57.0214 159.527 53.5681Z" fill="url(#paint15_linear)"/>
<defs>
<linearGradient id="paint0_linear" x1="90.3251" y1="36.5157" x2="101.776" y2="36.5157" gradientUnits="userSpaceOnUse">
<stop stop-color="#F0A932"/>
<stop offset="1" stop-color="#F6E274"/>
</linearGradient>
<linearGradient id="paint1_linear" x1="14.6725" y1="48.3853" x2="76.6078" y2="48.3853" gradientUnits="userSpaceOnUse">
<stop stop-color="#F1AB32"/>
<stop offset="1" stop-color="#F7E675"/>
</linearGradient>
<linearGradient id="paint2_linear" x1="44.352" y1="45.9952" x2="82.8905" y2="45.9952" gradientUnits="userSpaceOnUse">
<stop stop-color="#F0A932"/>
<stop offset="1" stop-color="#F6E274"/>
</linearGradient>
<linearGradient id="paint3_linear" x1="81.0382" y1="22.5583" x2="91.5484" y2="54.6424" gradientUnits="userSpaceOnUse">
<stop stop-color="#EB7D36"/>
<stop offset="0.0166" stop-color="#EB8137"/>
<stop offset="0.1272" stop-color="#EF9639"/>
<stop offset="0.2475" stop-color="#F2A93B"/>
<stop offset="0.3789" stop-color="#F5B73C"/>
<stop offset="0.5271" stop-color="#F7C23D"/>
<stop offset="0.7061" stop-color="#F8C83E"/>
<stop offset="1" stop-color="#F9C93E"/>
</linearGradient>
<linearGradient id="paint4_linear" x1="92.5303" y1="11.3919" x2="112.534" y2="61.5895" gradientUnits="userSpaceOnUse">
<stop stop-color="#ED7D36"/>
<stop offset="0.0365" stop-color="#EE8737"/>
<stop offset="0.1283" stop-color="#F19B39"/>
<stop offset="0.2305" stop-color="#F3AC3B"/>
<stop offset="0.3452" stop-color="#F6B93C"/>
<stop offset="0.4799" stop-color="#F7C23D"/>
<stop offset="0.653" stop-color="#F8C83E"/>
<stop offset="1" stop-color="#F9C93E"/>
</linearGradient>
<linearGradient id="paint5_linear" x1="0.0588255" y1="48.3864" x2="50.8217" y2="48.3864" gradientUnits="userSpaceOnUse">
<stop stop-color="#F1AB32"/>
<stop offset="1" stop-color="#FBEA77"/>
</linearGradient>
<linearGradient id="paint6_linear" x1="-3.27711" y1="48.3742" x2="29.922" y2="48.3742" gradientUnits="userSpaceOnUse">
<stop stop-color="#F1AB32"/>
<stop offset="1" stop-color="#FBEA77"/>
</linearGradient>
<linearGradient id="paint7_linear" x1="110.852" y1="33.673" x2="121.068" y2="68.0482" gradientUnits="userSpaceOnUse">
<stop stop-color="#F0AB31"/>
<stop offset="1" stop-color="#FAE976"/>
</linearGradient>
<linearGradient id="paint8_linear" x1="128.007" y1="67.3327" x2="139.511" y2="67.3327" gradientUnits="userSpaceOnUse">
<stop stop-color="#F1AB32"/>
<stop offset="1" stop-color="#F7E675"/>
</linearGradient>
<linearGradient id="paint9_linear" x1="143.608" y1="67.2483" x2="155.111" y2="67.2483" gradientUnits="userSpaceOnUse">
<stop stop-color="#F1AB32"/>
<stop offset="1" stop-color="#F7E675"/>
</linearGradient>
<linearGradient id="paint10_linear" x1="91.9991" y1="43.0343" x2="153.935" y2="43.0343" gradientUnits="userSpaceOnUse">
<stop stop-color="#F1AB32"/>
<stop offset="1" stop-color="#F7E675"/>
</linearGradient>
<linearGradient id="paint11_linear" x1="133.313" y1="23.9626" x2="127.287" y2="51.9142" gradientUnits="userSpaceOnUse">
<stop stop-color="#ED7D36"/>
<stop offset="0.0365" stop-color="#EE8737"/>
<stop offset="0.1283" stop-color="#F19B39"/>
<stop offset="0.2305" stop-color="#F3AC3B"/>
<stop offset="0.3452" stop-color="#F6B93C"/>
<stop offset="0.4799" stop-color="#F7C23D"/>
<stop offset="0.653" stop-color="#F8C83E"/>
<stop offset="1" stop-color="#F9C93E"/>
</linearGradient>
<linearGradient id="paint12_linear" x1="99.9649" y1="3.43006" x2="119.512" y2="19.8733" gradientUnits="userSpaceOnUse">
<stop stop-color="#F0A932"/>
<stop offset="1" stop-color="#F6E274"/>
</linearGradient>
<linearGradient id="paint13_linear" x1="111.62" y1="13.2375" x2="128.834" y2="27.7179" gradientUnits="userSpaceOnUse">
<stop stop-color="#ED7D36"/>
<stop offset="0.0365" stop-color="#EE8737"/>
<stop offset="0.1283" stop-color="#F19B39"/>
<stop offset="0.2305" stop-color="#F3AC3B"/>
<stop offset="0.3452" stop-color="#F6B93C"/>
<stop offset="0.4799" stop-color="#F7C23D"/>
<stop offset="0.653" stop-color="#F8C83E"/>
<stop offset="1" stop-color="#F9C93E"/>
</linearGradient>
<linearGradient id="paint14_linear" x1="109.557" y1="23.6144" x2="121.302" y2="63.6979" gradientUnits="userSpaceOnUse">
<stop stop-color="#ED7D36"/>
<stop offset="0.0365" stop-color="#EE8737"/>
<stop offset="0.1283" stop-color="#F19B39"/>
<stop offset="0.2305" stop-color="#F3AC3B"/>
<stop offset="0.3452" stop-color="#F6B93C"/>
<stop offset="0.4799" stop-color="#F7C23D"/>
<stop offset="0.653" stop-color="#F8C83E"/>
<stop offset="1" stop-color="#F9C93E"/>
</linearGradient>
<linearGradient id="paint15_linear" x1="199.097" y1="18.5937" x2="150.535" y2="64.8439" gradientUnits="userSpaceOnUse">
<stop stop-color="#F1AB32"/>
<stop offset="1" stop-color="#FBEA77"/>
</linearGradient>
</defs>
</svg>
