<svg width="120" height="120" viewBox="0 0 120 120" fill="none" xmlns="http://www.w3.org/2000/svg">
<g filter="url(#filter0_d)">
<rect x="8" y="6" width="104" height="104" rx="52" fill="#4693DB"/>
<path d="M62.8953 64.8597C61.0526 64.8905 59.2091 64.8652 57.3656 64.8652C55.4968 64.8652 53.6272 64.8652 51.692 64.8652C51.7599 64.7175 51.7955 64.6219 51.8453 64.5349C52.2981 63.7542 52.7564 62.9759 53.2068 62.1944C56.2672 56.8859 59.3221 51.5742 62.3857 46.2673C64.0356 43.4092 65.691 40.555 67.3599 37.7079C67.8396 36.8893 68.0261 36.0106 67.8815 35.0995C67.6594 33.6969 66.6329 32.3133 64.6938 32.0454C63.3971 31.866 61.8744 32.3883 61.0589 33.7933C60.584 34.6104 60.1115 35.429 59.6398 36.2476C59.4019 36.6609 59.3964 36.6656 59.1577 36.2492C58.6512 35.3658 58.1913 34.4555 57.6334 33.6021C56.317 31.5879 53.0977 31.3556 51.5932 33.5792C50.7011 34.8964 50.709 36.2579 51.4763 37.6147C52.6355 39.6636 53.82 41.6984 55.0029 43.7339C55.1301 43.9528 55.1404 44.1148 55.0076 44.3392C54.1645 45.7639 53.3332 47.195 52.5067 48.6292C50.6956 51.771 48.8916 54.9175 47.082 58.0601C45.8351 60.226 44.5803 62.3872 43.3428 64.5579C43.2053 64.7997 43.0512 64.8716 42.7857 64.8708C39.8628 64.8621 36.9399 64.8645 34.017 64.8668C33.7546 64.8668 33.4875 64.8629 33.2299 64.9055C31.29 65.2264 29.9617 66.8874 30.111 68.7917C30.2667 70.7735 31.7981 72.2156 33.8076 72.2172C44.8537 72.2251 55.8998 72.2204 66.9467 72.2267C67.1798 72.2267 67.2991 72.1532 67.3884 71.9422C67.7558 71.0722 67.8759 70.1738 67.7463 69.2382C67.4358 66.9964 65.6903 64.8131 62.8953 64.8597Z" fill="#FEFEFE"/>
<path d="M88.8555 67.7342C88.4755 66.0116 87.0215 64.8848 85.2151 64.88C82.1737 64.8713 79.1322 64.8737 76.0916 64.884C75.8063 64.8848 75.6483 64.8034 75.5044 64.5513C74.3444 62.5181 73.1694 60.4929 71.996 58.4676C69.6878 54.4819 67.3781 50.4977 65.0699 46.512C64.8503 46.1327 64.7065 46.1027 64.4449 46.4409C64.3161 46.6068 64.1573 46.7435 64.0364 46.9087C62.9949 48.3247 62.3406 49.8917 62.1273 51.6514C61.8175 54.2069 62.3691 56.5561 63.6547 58.7679C65.8759 62.5885 68.0766 66.4209 70.286 70.2478C71.4634 72.2865 72.6621 74.3126 73.8118 76.3671C74.9458 78.3947 76.1097 80.4057 77.3274 82.382C78.2053 83.8067 80.0291 84.3472 81.6047 83.7751C83.8181 82.9715 84.6849 80.4792 83.4751 78.3465C82.3981 76.4477 81.2981 74.5615 80.2108 72.6682C80.1413 72.5465 80.0362 72.439 80.0322 72.2391C80.2179 72.2391 80.376 72.2391 80.5332 72.2391C82.1792 72.2359 83.8252 72.2644 85.4696 72.2209C87.656 72.1624 89.381 70.1159 88.8555 67.7342Z" fill="#FEFEFE"/>
<path d="M40.1549 73.5412C39.5749 73.5357 38.8653 73.6542 38.1652 73.8557C38.019 73.8976 37.9029 73.9482 37.8231 74.088C36.9491 75.617 36.0428 77.1287 35.2012 78.6759C34.2071 80.5028 35.0961 83.2669 37.4612 83.858C39.0803 84.2625 40.7428 83.7015 41.6057 82.2602C42.8005 80.2642 43.9407 78.2349 45.1094 76.2231C45.1956 76.0746 45.1979 75.9774 45.081 75.8446C43.8119 74.4033 42.2726 73.5278 40.1549 73.5412Z" fill="#FEFEFE"/>
</g>
<defs>
<filter id="filter0_d" x="0" y="0" width="120" height="120" filterUnits="userSpaceOnUse" color-interpolation-filters="sRGB">
<feFlood flood-opacity="0" result="BackgroundImageFix"/>
<feColorMatrix in="SourceAlpha" type="matrix" values="0 0 0 0 0 0 0 0 0 0 0 0 0 0 0 0 0 0 127 0"/>
<feOffset dy="2"/>
<feGaussianBlur stdDeviation="4"/>
<feColorMatrix type="matrix" values="0 0 0 0 0 0 0 0 0 0 0 0 0 0 0 0 0 0 0.08 0"/>
<feBlend mode="normal" in2="BackgroundImageFix" result="effect1_dropShadow"/>
<feBlend mode="normal" in="SourceGraphic" in2="effect1_dropShadow" result="shape"/>
</filter>
</defs>
</svg>
