<svg width="120" height="120" viewBox="0 0 120 120" fill="none" xmlns="http://www.w3.org/2000/svg">
<g filter="url(#filter0_d)">
<circle cx="60" cy="58" r="52" fill="#F2C94C"/>
<path d="M57.3207 82.4656C56.9484 87.0245 54.4748 89.9324 49.8089 89.9981C45.0685 90.0638 42.4543 87.0738 42.355 82.4738C42.2557 77.7259 45.1513 74.9248 49.751 74.9248C54.2928 74.933 57.0725 77.6191 57.3207 82.4656Z" fill="white"/>
<path d="M77.6136 82.3591C77.2414 86.9181 74.7678 89.8259 70.1019 89.8916C65.3615 89.9574 62.7473 86.9673 62.648 82.3673C62.5487 77.6194 65.4442 74.8184 70.0439 74.8184C74.5858 74.8266 77.3655 77.5127 77.6136 82.3591Z" fill="white"/>
<path d="M50.5193 72.3465L50.751 72.3054C45.812 69.3565 42.5277 64.1157 42.4615 58.1357C42.354 48.8781 50.4697 40.976 60.0166 41.0499C69.4973 41.1238 77.5634 49.2231 77.3483 58.456C77.2159 64.2471 73.7661 69.4386 68.8024 72.3547H68.8107L86.2995 76.1826C89.8734 71.0815 91.983 64.8961 91.9996 58.2178C92.0575 40.1956 77.5716 25.8452 59.4706 26.0013C56.7653 26.0259 54.1594 26.3627 51.6775 26.9952C37.7708 30.5109 27.9178 42.9885 28.0005 58.3739C28.0336 65.0275 30.077 71.1472 33.5682 76.1908L50.5193 72.3465Z" fill="white"/>
</g>
<defs>
<filter id="filter0_d" x="0" y="0" width="120" height="120" filterUnits="userSpaceOnUse" color-interpolation-filters="sRGB">
<feFlood flood-opacity="0" result="BackgroundImageFix"/>
<feColorMatrix in="SourceAlpha" type="matrix" values="0 0 0 0 0 0 0 0 0 0 0 0 0 0 0 0 0 0 127 0"/>
<feOffset dy="2"/>
<feGaussianBlur stdDeviation="4"/>
<feColorMatrix type="matrix" values="0 0 0 0 0 0 0 0 0 0 0 0 0 0 0 0 0 0 0.08 0"/>
<feBlend mode="normal" in2="BackgroundImageFix" result="effect1_dropShadow"/>
<feBlend mode="normal" in="SourceGraphic" in2="effect1_dropShadow" result="shape"/>
</filter>
</defs>
</svg>
