<svg width="80" height="80" viewBox="0 0 80 80" fill="none" xmlns="http://www.w3.org/2000/svg">
<path d="M31.0797 68.7571C33.7665 68.7571 35.9446 66.579 35.9446 63.8922C35.9446 61.2054 33.7665 59.0273 31.0797 59.0273C28.3929 59.0273 26.2148 61.2054 26.2148 63.8922C26.2148 66.579 28.3929 68.7571 31.0797 68.7571Z" fill="#2D9CDB"/>
<path d="M19.0649 61.4595H13.2432C11.8973 61.4595 10.8108 62.5459 10.8108 63.8919C10.8108 65.2378 11.8973 66.3243 13.2432 66.3243H19.0649C20.3784 66.3243 21.3514 65.2216 21.3514 63.9243V63.8757C21.3514 62.5622 20.3784 61.4595 19.0649 61.4595ZM65.1351 12H14.8649C12.173 12 10 14.173 10 16.8649V49.2973C10 51.9892 12.173 54.1622 14.8649 54.1622H65.1351C67.827 54.1622 70 51.9892 70 49.2973V16.8649C70 14.173 67.827 12 65.1351 12ZM49.827 34.3459L35.7676 42.9568C34.7784 43.5568 33.5135 42.8432 33.5135 41.6919V24.4703C33.5135 23.3189 34.7784 22.6054 35.7676 23.2054L49.827 31.8162C50.7838 32.4 50.7838 33.7622 49.827 34.3459ZM66.7568 61.4595H43.0973C41.7838 61.4595 40.7946 62.5622 40.8108 63.8595V63.9081C40.8108 65.2216 41.7838 66.3081 43.0973 66.3081H66.7568C68.1027 66.3081 69.1892 65.2216 69.1892 63.8757C69.1892 62.5459 68.1027 61.4595 66.7568 61.4595Z" fill="#2D9CDB"/>
</svg>
