<svg width="280" height="280" viewBox="0 0 280 280" fill="none" xmlns="http://www.w3.org/2000/svg">
<g opacity="0.8">
<path d="M128.277 247.04C126.648 266.985 115.826 279.707 95.4128 279.995C74.6735 280.282 63.2362 267.201 62.8018 247.076C62.3675 226.304 75.0355 214.049 95.1594 214.049C115.03 214.085 127.191 225.836 128.277 247.04Z" fill="url(#paint0_linear)"/>
<path d="M217.06 246.575C215.432 266.521 204.609 279.243 184.196 279.53C163.457 279.818 152.019 266.736 151.585 246.611C151.151 225.839 163.819 213.584 183.943 213.584C203.813 213.62 215.974 225.372 217.06 246.575Z" fill="url(#paint1_linear)"/>
<path d="M98.5227 202.767L99.5361 202.587C77.9282 189.686 63.5591 166.757 63.2696 140.595C62.7991 100.093 98.3055 65.5203 140.074 65.8438C181.552 66.1672 216.841 101.602 215.9 141.996C215.321 167.332 200.228 190.045 178.512 202.803H178.548L255.062 219.55C270.698 197.233 279.928 170.171 280 140.954C280.253 62.1062 216.877 -0.677303 137.685 0.00551714C125.849 0.113331 114.448 1.58678 103.59 4.354C42.7475 19.7354 -0.359679 74.3251 0.00226211 141.637C0.147039 170.747 9.08697 197.52 24.3609 219.586L98.5227 202.767Z" fill="url(#paint2_linear)"/>
</g>
<g filter="url(#filter0_d)">
<path d="M193.726 174.903C168.869 174.903 148.719 154.724 148.719 129.833C148.719 104.942 168.869 84.7637 193.726 84.7637C218.583 84.7637 238.733 104.942 238.733 129.833C238.733 154.724 218.583 174.903 193.726 174.903Z" fill="white"/>
</g>
<path d="M153.738 136.519C150.117 114.172 165.271 93.1161 187.587 89.4893C209.903 85.8626 230.93 101.038 234.552 123.385C238.173 145.732 223.019 166.788 200.703 170.414C178.387 174.041 157.36 158.866 153.738 136.519Z" fill="white"/>
<mask id="mask0" mask-type="alpha" maskUnits="userSpaceOnUse" x="153" y="88" width="83" height="83">
<path d="M153.738 136.519C150.117 114.172 165.271 93.1161 187.587 89.4893C209.903 85.8626 230.93 101.038 234.552 123.385C238.173 145.732 223.019 166.788 200.703 170.414C178.387 174.041 157.36 158.866 153.738 136.519Z" fill="white"/>
</mask>
<g mask="url(#mask0)">
<path d="M216.469 170.213C215.824 167.218 215.315 165.252 215.315 165.252L226.696 145.953C226.696 145.953 230.378 149.685 232.587 165.953C232.896 168.201 231.141 170.213 228.878 170.213H216.469V170.213Z" fill="#7C6F63"/>
<path d="M154.926 165.889C158.089 151.788 163.707 145.225 163.707 145.225L170.825 168.847C170.825 168.847 170.607 169.311 170.28 170.213H158.371C156.108 170.213 154.426 168.101 154.926 165.889Z" fill="#7C6F63"/>
<path d="M216.561 170.212C204.862 174.518 188.972 173.917 170.418 170.212C169.982 168.41 169.391 166.48 168.6 164.25L163.709 145.215C170.572 139.052 180.208 137.022 183.917 136.449C192.535 134.309 202.616 136.203 202.616 136.203C216.28 137.159 226.697 145.934 226.697 145.934L218.234 165.224C217.561 166.844 217.007 168.51 216.561 170.212Z" fill="#7C6F63"/>
<path d="M200.868 126.9L201.159 136.513C201.187 137.459 200.596 138.324 199.705 138.634C197.25 139.498 192.169 140.818 187.351 139.089C186.378 138.743 185.796 137.742 185.942 136.722L187.387 126.891H200.868V126.9Z" fill="#FCC088"/>
<path d="M204.426 110.76C204.426 110.76 203.862 123.751 201.608 128.83C199.353 133.91 193.708 133.91 193.144 133.91C192.581 133.91 187.508 132.781 184.681 128.266C181.863 123.751 180.736 109.067 180.736 109.067C180.736 109.067 185.808 103.423 192.581 102.859C199.353 102.285 204.426 107.929 204.426 110.76Z" fill="#FFCA9A"/>
<path d="M183.197 115.449C183.197 115.449 180.606 111.562 179.315 112.855C178.025 114.148 180.606 122.577 183.197 122.577C185.788 122.577 183.197 115.449 183.197 115.449Z" fill="#FFCA9A"/>
<path d="M202.606 116.096C202.606 116.096 205.843 111.562 207.133 112.855C208.424 114.148 205.188 122.577 202.606 122.577V116.096Z" fill="#FFCA9A"/>
<path d="M179.144 107.574C179.126 106.691 179.181 105.79 179.226 104.752C179.272 103.715 179.172 102.686 179.062 101.648C178.744 98.6806 181.835 96.332 184.644 97.0694C184.862 97.124 185.089 97.1968 185.299 97.1149C185.562 97.0148 185.671 96.7144 185.78 96.4595C186.426 94.8391 188.153 92.7545 189.78 92.0718C191.18 91.4801 192.725 91.2343 194.244 91.4163C197.289 91.7623 200.089 93.8014 201.362 96.596C201.434 96.7508 201.507 96.9237 201.652 97.0148C201.789 97.0967 201.952 97.1058 202.107 97.1058C203.634 97.124 205.389 96.7872 206.679 97.7339C207.77 98.535 208.57 99.773 208.652 101.148C208.734 102.65 208.089 104.079 207.434 105.426C207.034 106.245 206.607 107.174 206.934 108.02C207.034 108.284 207.198 108.512 207.325 108.758C208.716 111.516 205.061 114.238 204.389 116.714C203.88 118.598 203.371 120.474 202.852 122.358C202.625 121.156 202.561 119.927 202.661 118.707C202.798 117.033 203.252 115.376 203.198 113.692C203.152 112.481 202.88 111.288 202.316 110.205C201.78 109.167 200.807 108.712 200.08 107.802C199.407 108.43 198.671 109.095 197.762 109.222C197.189 109.304 196.607 109.167 196.053 108.994C195.216 108.73 194.025 107.784 193.216 107.72C192.407 107.656 192.126 108.512 191.589 108.958C190.098 110.214 187.562 110.56 185.771 109.814C186.189 109.987 183.762 114.511 183.69 114.921C183.226 117.324 182.953 119.773 182.853 122.212C182.662 122.358 182.444 122.067 182.38 121.83C181.944 120.2 181.808 118.507 181.517 116.841C181.199 114.957 180.435 113.191 179.826 111.389C179.317 109.996 179.162 108.812 179.144 107.574Z" fill="url(#paint3_linear)"/>
</g>
<g filter="url(#filter1_d)">
<path d="M131.015 106.602C108.237 106.602 89.7715 88.1107 89.7715 65.3009C89.7715 42.491 108.237 24 131.015 24C153.793 24 172.259 42.491 172.259 65.3009C172.259 88.1107 153.793 106.602 131.015 106.602Z" fill="white"/>
</g>
<path d="M131.404 102.978C110.689 102.978 93.8961 86.1624 93.8961 65.4189C93.8961 44.6753 110.689 27.8594 131.404 27.8594C152.118 27.8594 168.911 44.6753 168.911 65.4189C168.911 86.1624 152.118 102.978 131.404 102.978Z" fill="white"/>
<mask id="mask1" mask-type="alpha" maskUnits="userSpaceOnUse" x="93" y="27" width="76" height="76">
<path d="M131.404 102.978C110.689 102.978 93.8961 86.1624 93.8961 65.4189C93.8961 44.6753 110.689 27.8594 131.404 27.8594C152.118 27.8594 168.911 44.6753 168.911 65.4189C168.911 86.1624 152.118 102.978 131.404 102.978Z" fill="white"/>
</mask>
<g mask="url(#mask1)">
<path d="M139.451 57.2632C141.823 57.2632 144.287 57.5636 145.223 54.7052C146.977 49.307 144.032 41.2417 139.214 38.3104C137.605 37.3273 135.723 36.8995 133.869 36.5262C131.696 36.0893 129.815 35.98 127.851 37.036C126.042 38.01 124.278 36.4443 122.406 37.6914C120.815 38.7565 119.588 40.4315 118.733 42.1247C117.624 44.3367 117.042 46.7764 116.551 49.1978C116.442 49.744 116.333 50.3175 116.461 50.8637C116.561 51.3188 116.815 51.7285 117.07 52.129C119.015 55.1512 121.606 57.2632 125.351 57.2632C125.36 57.2632 139.387 57.2632 139.451 57.2632Z" fill="#441C1C"/>
<path d="M139.932 47.7695C139.932 47.7695 139.504 48.6707 142.295 50.0817C143.859 50.8646 146.886 52.0298 147.286 55.4162C147.495 57.164 148.177 61.4879 149.84 61.7519C153.977 62.4165 159.567 65.0017 160.085 70.0358C160.685 75.8071 159.022 78.8385 156.095 79.594C153.94 80.1493 153.395 80.7319 153.831 83.0077C154.249 85.1925 152.595 93.0485 148.977 95.0511C140.877 99.5299 133.814 79.1116 133.814 79.1116L132.15 52.7216L139.932 47.7695Z" fill="#441C1C"/>
<path d="M121.386 45.457C121.386 45.457 121.823 46.4129 118.978 47.9058C117.387 48.7342 114.305 49.9631 113.896 53.5588C113.687 55.4158 113.196 58.0193 111.505 58.3015C107.287 59.0025 102.405 63.1171 101.369 71.1005C100.578 77.1905 102.306 83.7266 105.296 84.5276C107.487 85.1193 107.323 83.9541 106.878 86.3665C106.451 88.6878 107.451 87.7866 111.132 89.9076C119.378 94.6594 127.623 78.6561 127.623 78.6561L129.313 50.7186L121.386 45.457Z" fill="#441C1C"/>
<path d="M132.413 74.7322C132.413 74.7322 126.15 73.1209 124.823 75.1145C124.159 78.4371 123.814 81.7325 123.814 81.7325L131.032 83.0888L135.804 81.9874L136.94 81.3228L137.413 76.6165C137.404 76.6347 134.968 75.2146 132.413 74.7322Z" fill="#353535"/>
<path d="M139.922 57.9801C139.922 57.9801 140.932 54.9579 142.441 55.9592C143.95 56.9697 140.177 63.4056 140.177 63.4056L139.922 57.9801Z" fill="#FFCA9A"/>
<path d="M124.823 57.9807C124.823 57.9807 124.823 53.4473 122.305 55.9598C119.787 58.4813 124.823 62.0133 124.823 62.0133V57.9807Z" fill="#FFCA9A"/>
<path d="M101.115 99.1829C103.224 88.9966 106.251 81.0313 107.206 80.5762L112.923 94.7315C112.923 94.7315 114.078 98.9463 113.987 104.19H105.196C102.551 104.19 100.579 101.759 101.115 99.1829Z" fill="#474747"/>
<path d="M145.105 104.189C144.841 99.6375 144.959 96.77 144.959 96.77L153.014 83.6797C153.014 83.6797 154.023 87.6942 155.032 98.2811C155.077 98.7727 155.123 99.2733 155.168 99.7831C155.368 102.159 153.495 104.189 151.114 104.189H145.105Z" fill="#474747"/>
<path d="M133.959 104.218H125.187L122.805 79.184C122.805 79.184 124.823 78.6652 125.823 75.1331C126.832 71.6011 127.332 64.5371 127.332 64.5371L136.395 66.5489C136.395 66.5489 135.386 76.1527 137.404 80.6952L133.959 104.218Z" fill="#FCC088"/>
<path d="M120.451 104.217L119.187 88.4141C128.378 93.9215 137.823 93.6484 147.404 90.7354L144.686 104.217H120.451Z" fill="white"/>
<path d="M131.805 104.187C134.524 91.0424 137.405 76.6504 137.405 76.6504L138.914 79.6635L153.014 83.7053C152.323 86.9278 150.214 95.8034 148.096 104.187H131.805Z" fill="#474747"/>
<path d="M111.66 104.188C110.905 100.164 110.251 97.0148 110.251 97.0148L107.205 80.5745C108.16 79.6187 123.214 77.5432 123.214 77.5432L124.823 75.1309C124.823 75.1309 126.832 89.7596 128.55 104.179H111.66V104.188Z" fill="#474747"/>
<path d="M140.93 50.919C140.93 50.919 141.43 63.017 139.921 65.0379C138.412 67.0588 136.394 71.5922 132.876 72.0928C129.349 72.5935 123.813 62.5163 123.813 62.0066C123.813 61.5059 124.313 48.3974 124.313 48.3974C124.313 48.3974 134.885 39.8314 140.93 50.919Z" fill="#FFCA9A"/>
<path d="M142.941 48.9071C142.941 48.9071 144.959 54.9607 138.914 52.9398C132.869 50.9189 132.869 50.9189 132.869 50.9189C132.869 50.9189 126.824 47.3869 125.824 48.898C124.815 50.4091 123.806 54.1323 123.806 54.1323C123.806 54.1323 121.797 48.898 123.806 45.8666C125.833 42.8535 138.414 40.3319 142.941 48.9071Z" fill="#441C1C"/>
</g>
<g filter="url(#filter2_d)">
<path d="M98.6068 197.416C72.8664 197.416 51.9996 176.52 51.9996 150.744C51.9996 124.968 72.8664 104.072 98.6068 104.072C124.347 104.072 145.214 124.968 145.214 150.744C145.214 176.52 124.347 197.416 98.6068 197.416Z" fill="white"/>
</g>
<path d="M99.0523 193.329C75.6414 193.329 56.6631 174.325 56.6631 150.881C56.6631 127.438 75.6414 108.434 99.0523 108.434C122.463 108.434 141.441 127.438 141.441 150.881C141.441 174.325 122.463 193.329 99.0523 193.329Z" fill="white"/>
<mask id="mask2" mask-type="alpha" maskUnits="userSpaceOnUse" x="56" y="108" width="86" height="86">
<path d="M99.0523 193.329C75.6414 193.329 56.6631 174.325 56.6631 150.881C56.6631 127.438 75.6414 108.434 99.0523 108.434C122.463 108.434 141.441 127.438 141.441 150.881C141.441 174.325 122.463 193.329 99.0523 193.329Z" fill="white"/>
</mask>
<g mask="url(#mask2)">
<path d="M97.8813 146.43C90.245 146.43 84.0546 140.231 84.0546 132.584C84.0546 124.937 90.245 118.738 97.8813 118.738C105.518 118.738 111.708 124.937 111.708 132.584C111.708 140.231 105.518 146.43 97.8813 146.43Z" fill="#443B1C"/>
<path d="M111.162 128.725C117.243 149.78 121.379 168.924 120.707 174.304L102.98 172.429L100.926 133.486L111.162 128.725Z" fill="#443B1C"/>
<path d="M91.5345 126.55L93.9707 174.16L73.908 184.856C74.3261 168.589 82.6258 126.778 86.0256 125.658L91.5345 126.55Z" fill="#443B1C"/>
<path d="M91.5257 152.33L90.9439 165.293L103.507 167.186L104.298 153.577L91.5257 152.33Z" fill="#FCC088"/>
<path d="M85.5709 144.518C85.5709 144.518 88.5799 157.981 96.725 159.592C104.87 161.213 107.279 148.523 107.706 147.613C107.706 147.613 109.524 148.477 109.934 146.657C110.343 144.845 112.488 140.285 108.443 140.376C108.443 140.376 109.243 135.851 107.843 133.621C106.443 131.4 103.616 126.047 97.7977 127.54C91.9707 129.042 82.671 133.949 85.5709 144.518Z" fill="#FFCA9A"/>
<path d="M91.1431 160.957L83.1798 165.19L93.6067 176.651L112.888 164.507C109.951 163.406 107.061 161.931 104.424 161.494L91.1431 160.957Z" fill="#FCC088"/>
<path d="M107.989 128.352C110.707 132.166 108.571 135.544 109.298 138.284C106.662 137.328 97.7626 135.89 95.0809 136.154C94.5263 134.333 95.6171 131.292 96.1717 128.907C95.299 131.174 93.3173 134.651 93.5264 136.445C89.9265 136.609 90.6629 136.663 86.6176 138.284L89.7629 127.287C96.7898 124.001 102.844 124.42 107.989 128.352Z" fill="#443B1C"/>
<path d="M94.5896 115.425C94.5896 118.065 97.0713 121.032 98.8622 121.032C100.335 121.032 103.135 118.065 103.135 115.425C103.135 112.785 101.217 110.637 98.8622 110.637C96.5077 110.637 94.5896 112.785 94.5896 115.425Z" fill="#443B1C"/>
<path d="M77.4619 193.886L73.0802 169.462C79.0436 165.402 84.5706 163.463 91.1431 160.969C93.1794 165.211 102.479 164.792 104.424 161.497C110.615 163.072 116.497 165.975 122.196 169.744L116.197 193.886H77.4619Z" fill="#6C4D4D"/>
<path d="M65.436 189.57C68.9904 174.368 73.0812 169.461 73.0812 169.461L79.6445 189.451C79.6445 189.451 78.8537 191.044 77.8174 193.885H68.8723C66.5996 193.885 64.9178 191.773 65.436 189.57Z" fill="#6C4D4D"/>
<path d="M115.761 193.884C115.034 191.272 114.071 188.532 112.807 185.728L122.197 169.752C122.197 169.752 126.824 177.808 128.361 189.934C128.624 192.027 126.988 193.884 124.879 193.884H115.761Z" fill="#6C4D4D"/>
<path d="M90.1885 127.531C85.5341 139.311 83.216 172.528 86.0523 190.097C81.607 174.758 76.0617 155.314 84.5341 129.152L90.1885 127.531Z" fill="#443B1C"/>
</g>
<defs>
<filter id="filter0_d" x="132.719" y="72.7637" width="122.014" height="122.139" filterUnits="userSpaceOnUse" color-interpolation-filters="sRGB">
<feFlood flood-opacity="0" result="BackgroundImageFix"/>
<feColorMatrix in="SourceAlpha" type="matrix" values="0 0 0 0 0 0 0 0 0 0 0 0 0 0 0 0 0 0 127 0"/>
<feOffset dy="4"/>
<feGaussianBlur stdDeviation="8"/>
<feColorMatrix type="matrix" values="0 0 0 0 0 0 0 0 0 0 0 0 0 0 0 0 0 0 0.08 0"/>
<feBlend mode="normal" in2="BackgroundImageFix" result="effect1_dropShadow"/>
<feBlend mode="normal" in="SourceGraphic" in2="effect1_dropShadow" result="shape"/>
</filter>
<filter id="filter1_d" x="73.7715" y="12" width="114.487" height="114.602" filterUnits="userSpaceOnUse" color-interpolation-filters="sRGB">
<feFlood flood-opacity="0" result="BackgroundImageFix"/>
<feColorMatrix in="SourceAlpha" type="matrix" values="0 0 0 0 0 0 0 0 0 0 0 0 0 0 0 0 0 0 127 0"/>
<feOffset dy="4"/>
<feGaussianBlur stdDeviation="8"/>
<feColorMatrix type="matrix" values="0 0 0 0 0 0 0 0 0 0 0 0 0 0 0 0 0 0 0.08 0"/>
<feBlend mode="normal" in2="BackgroundImageFix" result="effect1_dropShadow"/>
<feBlend mode="normal" in="SourceGraphic" in2="effect1_dropShadow" result="shape"/>
</filter>
<filter id="filter2_d" x="36" y="92.0723" width="125.214" height="125.343" filterUnits="userSpaceOnUse" color-interpolation-filters="sRGB">
<feFlood flood-opacity="0" result="BackgroundImageFix"/>
<feColorMatrix in="SourceAlpha" type="matrix" values="0 0 0 0 0 0 0 0 0 0 0 0 0 0 0 0 0 0 127 0"/>
<feOffset dy="4"/>
<feGaussianBlur stdDeviation="8"/>
<feColorMatrix type="matrix" values="0 0 0 0 0 0 0 0 0 0 0 0 0 0 0 0 0 0 0.08 0"/>
<feBlend mode="normal" in2="BackgroundImageFix" result="effect1_dropShadow"/>
<feBlend mode="normal" in="SourceGraphic" in2="effect1_dropShadow" result="shape"/>
</filter>
<linearGradient id="paint0_linear" x1="30.7928" y1="247.047" x2="96.259" y2="247.047" gradientUnits="userSpaceOnUse">
<stop stop-color="#F1AB32"/>
<stop offset="1" stop-color="#F7E675"/>
</linearGradient>
<linearGradient id="paint1_linear" x1="119.579" y1="246.575" x2="185.045" y2="246.575" gradientUnits="userSpaceOnUse">
<stop stop-color="#F1AB32"/>
<stop offset="1" stop-color="#F7E675"/>
</linearGradient>
<linearGradient id="paint2_linear" x1="-174.135" y1="109.745" x2="178.348" y2="109.745" gradientUnits="userSpaceOnUse">
<stop stop-color="#F1AB32"/>
<stop offset="1" stop-color="#F7E675"/>
</linearGradient>
<linearGradient id="paint3_linear" x1="194.426" y1="97.0784" x2="189.159" y2="137.768" gradientUnits="userSpaceOnUse">
<stop stop-color="#25242E"/>
<stop offset="1" stop-color="#020039"/>
</linearGradient>
</defs>
</svg>
