<svg width="80" height="80" viewBox="0 0 80 80" fill="none" xmlns="http://www.w3.org/2000/svg">
<path fill-rule="evenodd" clip-rule="evenodd" d="M71.3554 70.2547C73.9088 67.3222 75.4572 63.4917 75.4572 59.3067C75.4572 50.0987 67.967 42.6108 58.7613 42.6094C55.809 42.6094 53.034 43.38 50.625 44.7298C47.1065 46.7015 44.3715 49.91 43.0119 53.7619C42.3985 55.4977 42.0654 57.3621 42.0654 59.3067C42.0654 68.5132 49.5556 76.0011 58.7613 76.0011C60.1224 76.0011 61.4477 75.8381 62.7144 75.5278C66.1227 74.6971 69.1237 72.8198 71.3554 70.2547ZM66.0656 54.9731V56.1907C66.0656 58.0343 64.5602 59.5283 62.7044 59.5283C64.5602 59.5283 66.0656 61.0239 66.0656 62.8675V64.0851C66.0656 65.9287 64.5602 67.4228 62.7044 67.4228H60.8305V68.6972H58.7611V67.4228H56.985V68.6972H54.9157V67.4228H51.4567V64.5751H53.3516V60.9028H51.4567V58.1553H53.3516V54.4815H51.4567V51.6339H54.9157V49.9143H56.985V51.6339H58.7611V49.9143H60.8305V51.6354H62.7044C64.5602 51.6354 66.0656 53.1294 66.0656 54.9731ZM62.4412 56.3177C62.4412 55.3032 61.614 54.4815 60.5929 54.4815V54.48H56.985V58.1538H60.5929C61.614 58.1538 62.4412 57.3321 62.4412 56.3177ZM56.985 64.5751H60.5929C61.614 64.5751 62.4412 63.7534 62.4412 62.739C62.4412 61.7246 61.614 60.9028 60.5929 60.9028H56.985V64.5751Z" fill="#FFC039"/>
<path fill-rule="evenodd" clip-rule="evenodd" d="M64.0517 31.6453C66.6051 28.7128 68.1535 24.8823 68.1535 20.6973C68.1535 11.4893 60.6633 4.00143 51.4576 4C48.5053 4 45.7303 4.77066 43.3212 6.1204C39.8028 8.09211 37.0678 11.3006 35.7082 15.1525C35.0948 16.8883 34.7617 18.7528 34.7617 20.6973C34.7617 29.9038 42.2518 37.3917 51.4576 37.3917C52.8186 37.3917 54.144 37.2287 55.4107 36.9185C58.819 36.0877 61.8199 34.2104 64.0517 31.6453ZM53.3523 28.4795C55.199 28.4795 56.8923 27.8204 58.2173 26.7236L59.878 28.7747C58.1004 30.2469 55.8288 31.1312 53.3523 31.1312C48.6823 31.1312 44.7372 27.9877 43.4698 23.6774H39.9781V21.5499H43.0769C43.0543 21.2684 43.0429 20.9837 43.0429 20.6963C43.0429 20.409 43.0543 20.1244 43.0768 19.843H39.9781V17.7143H43.47C44.7377 13.4044 48.6827 10.2614 53.3523 10.2614C55.8376 10.2614 58.118 11.152 59.8993 12.6357L58.2387 14.6855C56.9112 13.5772 55.2078 12.9118 53.3523 12.9118C50.149 12.9118 47.4028 14.8949 46.2468 17.7143H55.4216L53.2217 19.843H45.7082C45.6781 20.1228 45.6627 20.4071 45.6627 20.695C45.6627 20.9839 45.6782 21.2692 45.7085 21.5499H52.8998L50.6534 23.6774H46.2472C47.4034 26.4968 50.1494 28.4795 53.3523 28.4795Z" fill="#FFC039"/>
<path fill-rule="evenodd" clip-rule="evenodd" d="M33.79 57.7332C36.3434 54.8007 37.8917 50.9702 37.8917 46.7852C37.8917 37.5772 30.4016 30.0893 21.1959 30.0879C18.2436 30.0879 15.4685 30.8586 13.0595 32.2083C9.54107 34.18 6.80608 37.3885 5.44645 41.2404C4.83312 42.9762 4.5 44.8406 4.5 46.7852C4.5 55.9917 11.9901 63.4796 21.1959 63.4796C22.5569 63.4796 23.8822 63.3166 25.1489 63.0064C28.5573 62.1756 31.5582 60.2983 33.79 57.7332ZM22.9349 45.0554C24.7818 45.4224 26.0936 45.9859 26.8703 46.7429C27.6513 47.4986 28.0404 48.5749 28.0433 49.972C28.0433 51.8011 27.5009 53.1606 26.4133 54.055C25.6163 54.7094 24.507 55.1241 23.0983 55.296V57.219H19.8846V55.3177C19.3422 55.27 18.8042 55.1963 18.2633 55.0923C17.2031 54.8944 16.1415 54.5953 15.0785 54.2052V50.5918C16.143 51.1553 17.167 51.5786 18.1563 51.8632C19.147 52.1507 20.103 52.2909 21.0243 52.2909C21.9543 52.2909 22.6745 52.1363 23.1692 51.8228C23.6638 51.5165 23.914 51.0672 23.914 50.4892C23.914 49.972 23.7448 49.5704 23.4093 49.2901C23.0694 49.0098 22.3983 48.7555 21.3873 48.5345L19.7298 48.1675C18.068 47.8121 16.8546 47.2443 16.0866 46.467C15.32 45.6897 14.9353 44.6422 14.9353 43.3203C14.9353 41.6674 15.4661 40.3975 16.5364 39.5075C17.368 38.8169 18.486 38.3936 19.8832 38.2433V36.3492H23.0969V38.2852C23.1698 38.2926 23.2428 38.2996 23.3159 38.3067C23.5281 38.3271 23.7412 38.3476 23.9574 38.3777C24.9192 38.5149 25.9201 38.7215 26.9527 38.9975V42.5083C26.0387 42.0994 25.1477 41.7931 24.2814 41.5851C23.4136 41.3785 22.595 41.2744 21.8212 41.2744C20.8001 41.2744 20.0408 41.416 19.5534 41.6949C19.0631 41.9781 18.8172 42.4144 18.8172 43.0082C18.8172 43.4532 18.9821 43.7985 19.3119 44.0484C19.6416 44.2969 20.2418 44.5108 21.1111 44.687L22.9349 45.0554Z" fill="#FFC039"/>
</svg>
