<svg width="80" height="80" viewBox="0 0 80 80" fill="none" xmlns="http://www.w3.org/2000/svg">
<path d="M40 69.3111C39.0119 69.3099 38.047 69.0152 37.2309 68.4653C25.1408 60.364 19.9057 54.8093 17.0182 51.3364C10.8646 43.9336 7.91864 36.3334 8.00171 28.1031C8.09863 18.6716 15.7644 11 25.09 11C31.8712 11 36.5679 14.7705 39.3031 17.9108C39.3898 18.0093 39.4968 18.0882 39.617 18.1423C39.7373 18.1964 39.8679 18.2245 40 18.2245C40.1321 18.2245 40.2627 18.1964 40.383 18.1423C40.5032 18.0882 40.6102 18.0093 40.6969 17.9108C43.4321 14.7674 48.1288 11 54.91 11C64.2356 11 71.9014 18.6716 71.9983 28.1046C72.0814 36.3365 69.1323 43.9367 62.9819 51.3379C60.0943 54.8108 54.8592 60.3655 42.7691 68.4668C41.9528 69.0161 40.9879 69.3103 40 69.3111Z" fill="#DD4545"/>
<path d="M21.6602 44.1038H31.4586L36.1785 27.2617L40.8984 53.5354L45.6184 37.0301L47.9783 44.1038H56.3808" stroke="white" stroke-width="3" stroke-linecap="round" stroke-linejoin="round"/>
<path d="M54.8572 47.4449C56.5824 47.4449 57.981 46.0463 57.981 44.3211C57.981 42.5958 56.5824 41.1973 54.8572 41.1973C53.132 41.1973 51.7334 42.5958 51.7334 44.3211C51.7334 46.0463 53.132 47.4449 54.8572 47.4449Z" fill="white"/>
</svg>
