<svg width="80" height="80" viewBox="0 0 80 80" fill="none" xmlns="http://www.w3.org/2000/svg">
<path fill-rule="evenodd" clip-rule="evenodd" d="M8 17.12C8 12.0832 12.0832 8 17.12 8H29.28C34.3168 8 38.4 12.0832 38.4 17.12V29.28C38.4 34.3168 34.3168 38.4 29.28 38.4H17.12C12.0832 38.4 8 34.3168 8 29.28V17.12ZM17.12 14.08C15.4411 14.08 14.08 15.4411 14.08 17.12V29.28C14.08 30.9589 15.4411 32.32 17.12 32.32H29.28C30.9589 32.32 32.32 30.9589 32.32 29.28V17.12C32.32 15.4411 30.9589 14.08 29.28 14.08H17.12Z" fill="#9B51E0"/>
<path fill-rule="evenodd" clip-rule="evenodd" d="M8 50.7196C8 45.6828 12.0832 41.5996 17.12 41.5996H29.28C34.3168 41.5996 38.4 45.6828 38.4 50.7196V62.8796C38.4 67.9164 34.3168 71.9996 29.28 71.9996H17.12C12.0832 71.9996 8 67.9164 8 62.8796V50.7196ZM17.12 47.6796C15.4411 47.6796 14.08 49.0407 14.08 50.7196V62.8796C14.08 64.5586 15.4411 65.9196 17.12 65.9196H29.28C30.9589 65.9196 32.32 64.5586 32.32 62.8796V50.7196C32.32 49.0407 30.9589 47.6796 29.28 47.6796H17.12Z" fill="#9B51E0"/>
<path fill-rule="evenodd" clip-rule="evenodd" d="M41.5996 17.12C41.5996 12.0832 45.6828 8 50.7196 8H62.8796C67.9164 8 71.9996 12.0832 71.9996 17.12V29.28C71.9996 34.3168 67.9164 38.4 62.8796 38.4H50.7196C45.6828 38.4 41.5996 34.3168 41.5996 29.28V17.12ZM50.7196 14.08C49.0407 14.08 47.6796 15.4411 47.6796 17.12V29.28C47.6796 30.9589 49.0407 32.32 50.7196 32.32H62.8796C64.5586 32.32 65.9196 30.9589 65.9196 29.28V17.12C65.9196 15.4411 64.5586 14.08 62.8796 14.08H50.7196Z" fill="#9B51E0"/>
<path fill-rule="evenodd" clip-rule="evenodd" d="M56.7996 47.1269C51.4575 47.1269 47.1269 51.4575 47.1269 56.7996C47.1269 62.1417 51.4575 66.4723 56.7996 66.4723C62.1417 66.4723 66.4723 62.1417 66.4723 56.7996C66.4723 51.4575 62.1417 47.1269 56.7996 47.1269ZM41.5996 56.7996C41.5996 48.4049 48.4049 41.5996 56.7996 41.5996C65.1943 41.5996 71.9996 48.4049 71.9996 56.7996C71.9996 65.1943 65.1943 71.9996 56.7996 71.9996C48.4049 71.9996 41.5996 65.1943 41.5996 56.7996Z" fill="#9B51E0"/>
</svg>
