<svg width="80" height="80" viewBox="0 0 80 80" fill="none" xmlns="http://www.w3.org/2000/svg">
<path d="M33.9307 61.2468H9.5539C8.14885 61.2468 7.01465 62.381 7.01465 63.7861C7.01465 65.1911 8.14885 66.3253 9.5539 66.3253H33.9307C35.3358 66.3253 36.47 65.1911 36.47 63.7861C36.47 62.381 35.3358 61.2468 33.9307 61.2468ZM73.7462 38.9522L68.8877 34.0938C68.5492 33.7552 68.0244 33.7552 67.6858 34.0938L65.1297 36.6499C64.7911 36.9885 64.7911 37.5133 65.1297 37.8519L69.9881 42.7103C70.3267 43.0489 70.8514 43.0489 71.19 42.7103L73.7462 40.1541C74.0847 39.8156 74.0847 39.2738 73.7462 38.9522Z" fill="#00B307"/>
<path d="M43.9703 51.8336H16.631C14.3457 51.8336 12.9406 49.3282 14.1425 47.3645L19.221 39.1035C20.2367 37.4615 22.6406 37.5122 23.5716 39.2051L27.7868 46.789L38.3331 30.9779C39.3319 29.4882 41.4987 29.4713 42.5144 30.961L51.588 44.2328L61.8635 33.9404V16.3857C61.8635 14.5236 60.34 13 58.4779 13H9.38567C7.52355 13 6 14.5236 6 16.3857V53.628C6 55.4901 7.52355 57.0137 9.38567 57.0137H38.7733C39.5181 56.2688 40.737 55.05 40.737 55.05L43.9703 51.8336ZM25.4676 21.3626C27.8037 21.3626 29.6997 23.2586 29.6997 25.5947C29.6997 27.9308 27.8037 29.8268 25.4676 29.8268C23.1315 29.8268 21.2355 27.9308 21.2355 25.5947C21.2355 23.2586 23.1315 21.3626 25.4676 21.3626ZM67.0605 45.6378L62.2021 40.7794C61.8635 40.4408 61.3388 40.4408 61.0002 40.7794L47.3898 54.3898C47.0512 54.7284 47.0512 55.2531 47.3898 55.5917L52.2482 60.4501C52.5699 60.7887 53.1116 60.7887 53.4501 60.4501L67.0605 46.8398C67.3822 46.5012 67.3822 45.9595 67.0605 45.6378ZM44.3427 58.6388C44.0041 58.3172 43.4794 58.3002 43.1577 58.6388C42.5991 59.1805 41.8204 59.9762 41.431 60.3486C41.2956 60.484 41.211 60.6702 41.194 60.8734L40.7708 66.3581C40.737 66.8829 41.1771 67.3231 41.7188 67.2553L46.9835 66.6459C47.1697 66.629 47.3559 66.5444 47.4914 66.4089L49.2181 64.6822C49.5566 64.3437 49.5566 63.8189 49.2181 63.4803L44.3427 58.6388Z" fill="#00B307"/>
</svg>
