<svg width="615" height="296" viewBox="0 0 615 296" fill="none" xmlns="http://www.w3.org/2000/svg">
<path d="M585.882 83.277C585.882 83.277 612.273 97.8981 614.457 122.64C616.64 147.382 614.638 250.078 561.722 275.349C508.805 300.625 438.756 294.799 411.945 292.034C385.134 289.269 370.265 271.049 366.947 258.501C363.629 245.954 358.261 199.216 386.469 184.142C414.676 169.068 444.3 145.971 473.9 123.479C503.499 100.992 554.232 64.2796 585.882 83.277Z" fill="#717171"/>
<path d="M585.882 83.277C585.882 83.277 612.273 97.8981 614.457 122.64C616.64 147.382 614.638 250.078 561.722 275.349C508.805 300.625 438.756 294.799 411.945 292.034C385.134 289.269 370.265 271.049 366.947 258.501C363.629 245.954 358.261 199.216 386.469 184.142C414.676 169.068 444.3 145.971 473.9 123.479C503.499 100.992 554.232 64.2796 585.882 83.277Z" fill="#717171"/>
<path opacity="0.06" d="M614.457 122.64C612.273 97.8984 585.882 83.2773 585.882 83.2773C589.164 250 475.5 265.5 364.5 246.5C364.5 268.5 385.134 289.269 411.945 292.034C438.756 294.799 508.805 300.625 561.722 275.349C614.638 250.078 616.64 147.382 614.457 122.64Z" fill="black"/>
<path d="M394.792 193.07C394.792 193.07 401.915 193.447 402.787 208.101C402.787 208.101 386.273 222.908 363.963 226.431C362.29 226.694 366.304 215 366.909 213.412C369.779 205.875 378.827 201.017 394.792 193.07Z" fill="#545454"/>
<path d="M475.006 175.842H459.975C459.975 175.842 413.843 124.895 383.585 119.751C383.585 119.751 362.523 146.638 384.705 196.87C386.488 200.913 391.48 202.706 395.203 200.327C396.318 199.616 397.114 198.663 397.601 197.466L395.818 154.576C395.818 154.576 435.166 188.99 442.007 195.636C448.853 202.276 483.621 198.229 475.006 175.842Z" fill="#999999"/>
<path d="M329.695 282.81C335.993 277.289 346.028 271.097 360.515 269.323L365.416 272.322C365.416 272.322 362.293 276.932 356.582 281.799C351.338 284.845 343.239 288.974 336.522 289.865C329.996 290.733 329.033 286.79 329.695 282.81Z" fill="#545454"/>
<path d="M366.909 213.413C370.789 214.666 372.496 220.168 382.34 216.53C391.865 213.012 398.95 208.479 402.592 205.861C402.673 206.572 402.739 207.311 402.787 208.102C402.787 208.102 385.372 224.668 363.062 228.191C361.389 228.453 360.058 226.785 360.664 225.197C361.746 222.356 363.701 218.042 366.909 213.413Z" fill="#434343"/>
<path d="M324.948 287.523C326.187 286.112 327.775 284.491 329.691 282.809C329.028 286.784 329.991 290.732 336.518 289.864C343.235 288.968 351.334 284.844 356.578 281.798C350.004 287.404 339.998 293.358 327.374 293.006C324.576 292.925 323.098 289.63 324.948 287.523Z" fill="#434343"/>
<path d="M474.458 186.717L404.07 187.48C404.07 187.48 363.872 220.736 356.583 271.445C356.583 271.445 355.372 275.173 362.638 275.812C362.638 275.812 386.941 259.941 402.787 231.877C422.218 197.467 460.709 212.956 460.709 212.956C473.356 203.836 491.229 201.981 504.691 198.945L474.458 186.717Z" fill="#B0B0B0"/>
<path d="M472.792 130.016C472.792 130.016 465.217 167.991 428.089 183.013L414.884 181.459L411.766 186.426L442.744 187.413C442.744 187.413 469.221 176.925 483.251 148.346C483.718 147.402 491.441 131.451 472.792 130.016Z" fill="#FCC088"/>
<path d="M468.731 186.097C468.731 186.097 477.346 162.675 479.2 139.917C479.2 139.917 472.898 134.501 468.955 132.16C467.678 131.402 467.196 129.801 467.844 128.466C470.743 122.464 488.258 98.9041 489.573 98.5752C496.705 96.797 525.957 82.8863 546.561 111.065C555.404 123.16 544.807 160.387 504.695 198.944L496.419 200.527L468.731 186.097Z" fill="url(#paint0_linear)"/>
<path d="M501.936 145.047C501.936 145.047 477.995 173.393 447.389 177.536C447.389 177.536 439.48 170.323 433.598 172.897C427.715 175.471 419.649 186.836 419.649 186.836H458.95C458.95 186.836 496.11 185.525 514.679 162.995C513.182 155.11 508.71 150.405 501.936 145.047Z" fill="#FFCB9A"/>
<path d="M515.904 78.6953L521.143 96.1672C521.381 96.9681 521.086 97.8357 520.399 98.3077C517.878 100.033 511.285 103.471 502.246 100.134C501.211 99.7522 500.501 98.7844 500.415 97.688L499.176 82.471L515.904 78.6953Z" fill="#FCC088"/>
<path d="M485.231 64.5464C485.231 64.5464 487.805 82.6571 494.761 88.2252C501.716 93.7934 515.269 89.603 519.851 75.9496L510.731 52.6045L485.231 64.5464Z" fill="#FFCB9A"/>
<path d="M511.758 67.7124C511.229 67.8841 510.676 67.5456 510.59 66.9926C510.337 65.3193 509.713 62.0108 508.445 59.7607C508.445 59.7607 509.108 57.3866 502.438 60.9763C495.769 64.5661 485.753 69.8386 479.856 66.697C474.107 63.6365 468.281 48.2288 483.479 51.0843C484.056 51.194 484.59 50.7316 484.547 50.1452C484.361 47.6138 484.614 41.7882 490.511 39.9195C496.031 38.1699 499.053 40.6632 500.298 42.1649C500.665 42.6082 501.342 42.5987 501.695 42.141C503.349 39.9815 507.839 35.3859 514.452 38.2986C519.896 40.6966 520.744 44.0527 520.654 46.1407C520.625 46.8177 521.312 47.2753 521.927 46.9941C523.595 46.2265 526.274 45.8261 528.844 49.0487C532.395 53.5013 527.318 57.358 525.798 58.3734C525.55 58.5403 525.392 58.812 525.392 59.1124C525.378 61.4292 525.016 71.5215 519.958 77.2183C519.519 77.7093 518.709 77.5663 518.456 76.9609L514.561 67.6791C514.38 67.25 513.899 67.026 513.455 67.169L511.758 67.7124Z" fill="#FF9F43"/>
<path d="M511.676 69.5947C511.676 69.5947 514.055 59.9029 517.669 63.0493C521.282 66.1957 516.725 73.1225 512.587 74.4382L511.676 69.5947Z" fill="#FFC58F"/>
<path d="M421.627 189.038L403.983 130.191C403.264 127.789 401.133 126.087 398.63 125.915L374.808 124.285C372.386 124.118 370.584 126.482 371.39 128.775L391.117 184.972C391.751 186.783 393.376 188.061 395.288 188.256L418.748 190.859L421.627 189.038Z" fill="#434343"/>
<path d="M389.086 150.139C390.402 152.799 392.681 154.358 394.168 153.619C395.655 152.88 395.798 150.129 394.478 147.469C393.162 144.809 390.883 143.25 389.396 143.989C387.909 144.728 387.77 147.479 389.086 150.139Z" fill="#F2C94C"/>
<path d="M418.742 190.862C418.78 190.862 418.818 190.862 418.856 190.857L468.846 188.331C470.08 188.269 471.034 187.215 470.972 185.981C470.91 184.746 469.851 183.773 468.622 183.854L418.632 186.381C417.398 186.443 416.444 187.496 416.506 188.731C416.568 189.933 417.56 190.862 418.742 190.862Z" fill="#434343"/>
<path d="M479.202 140.446C479.202 140.446 479.206 140.446 479.202 140.446C479.497 140.446 479.731 140.208 479.731 139.917C479.697 129.496 483.721 115.647 483.764 115.509C483.845 115.228 483.688 114.932 483.406 114.851C483.13 114.765 482.834 114.927 482.748 115.209C482.706 115.347 478.639 129.339 478.672 139.917C478.672 140.208 478.911 140.446 479.202 140.446Z" fill="#242424"/>
<path d="M501.936 145.574C502.093 145.574 502.245 145.503 502.35 145.374C502.46 145.236 513.406 131.32 517.172 121.781C517.277 121.509 517.148 121.204 516.871 121.094C516.6 120.985 516.29 121.123 516.185 121.39C512.476 130.786 501.626 144.578 501.516 144.716C501.335 144.945 501.373 145.279 501.602 145.46C501.707 145.536 501.821 145.574 501.936 145.574Z" fill="#242424"/>
<path d="M517.271 166.862L517.667 166.695C533.527 159.902 543.319 140.976 543.415 140.785C543.548 140.523 543.443 140.203 543.181 140.075C542.919 139.941 542.604 140.046 542.471 140.304C542.375 140.489 532.912 158.767 517.638 165.551L516.07 163.334C515.903 163.096 515.569 163.038 515.331 163.21C515.093 163.377 515.035 163.711 515.202 163.949L517.271 166.862Z" fill="#242424"/>
<path d="M116.974 191.051H124.87V276.442H116.974V191.051Z" fill="#3E3E3E"/>
<path d="M86.3406 278.091H155.499V274.181C155.499 273.501 154.946 272.953 154.271 272.953H87.666C86.9342 272.953 86.3406 273.547 86.3406 274.279V278.091Z" fill="#3E3E3E"/>
<path d="M73.2644 187.9C73.2644 192.864 77.3278 196.922 82.2867 196.922H156.65C161.614 196.922 165.672 192.858 165.672 187.9V179.737C165.672 174.773 161.609 170.715 156.65 170.715H82.2867C77.3226 170.715 73.2644 174.778 73.2644 179.737V187.9Z" fill="#CAA432"/>
<path d="M164.899 261.317C164.899 261.317 187.447 277.57 183.532 288.486C183.532 288.486 158.86 277.841 155.882 269.459C152.903 261.076 156.388 257.371 156.388 257.371L164.899 261.317Z" fill="#545454"/>
<path d="M161.512 247.698L157.827 258.358C157.269 259.965 157.827 261.797 159.265 262.708C159.986 263.163 160.969 263.583 162.315 263.89C164.214 264.32 166.174 263.445 167.09 261.725L171.501 253.42L161.512 247.698Z" fill="#FCC088"/>
<path d="M125.632 151.761C125.632 151.761 171.946 159.785 191.812 178.142C211.678 196.493 173.578 255.038 173.578 255.038C173.578 255.038 167.335 254.997 159.771 248.513C159.771 248.513 182.36 204.487 162.893 191.647C141.005 177.21 115.781 173.961 115.781 173.961L125.187 153.178L125.632 151.761Z" fill="#666666"/>
<path d="M179.617 282.451C174.658 280.153 160.616 270.328 158.252 269.893C155.887 269.458 151.778 272.242 151.778 272.242C151.778 272.242 150.78 274.038 151.849 277.17C155.145 281.157 162.463 288.761 172.299 291.591C179.535 293.674 184.597 291.734 187.749 289.457C186.014 286.817 182.918 283.976 179.617 282.451Z" fill="#545454"/>
<path d="M172.298 291.591C162.463 288.761 155.144 281.156 151.849 277.17C152.57 279.289 154.234 282.011 157.79 285.21C166.608 293.137 183.455 295.992 187.042 295.445C189.918 295.005 189.647 292.349 187.748 289.462C184.591 291.729 179.53 293.674 172.298 291.591Z" fill="#434343"/>
<path d="M147.573 265.302C147.629 266.668 150.423 271.356 152.056 273.981C152.833 275.23 154.19 275.993 155.658 275.998C156.59 275.998 157.664 275.921 158.637 275.639C160.1 275.22 160.919 273.664 160.489 272.206L157.301 261.315L147.573 265.302Z" fill="#FCC088"/>
<path d="M81.0543 137.855C81.0543 137.855 70.768 165.357 81.0543 173.719C91.3405 182.081 115.874 191.498 121.355 208.155C126.836 224.813 136.139 257.186 148.585 268.655C148.585 268.655 157.331 267.805 160.606 264.32C160.606 264.32 153.519 215.99 148.841 203.59C144.793 192.849 138.826 177.348 127.394 168.689C124.118 166.207 124.692 162.282 126.206 158.464L128.97 151.514L81.0543 137.855Z" fill="#6F6F6F"/>
<path d="M188.321 116.301C171.075 117.339 176.448 89.7866 176.76 88.6914L150.584 107.181C150.584 107.181 151.971 121.914 173.731 129.642C179.237 131.597 184.268 131.684 188.715 130.727C186.821 125.2 187.21 120.231 188.321 116.301Z" fill="#313131"/>
<path d="M221.668 108.01C215.24 103.542 207.963 108.01 207.963 108.01C199.371 113.629 193.015 116.019 188.322 116.3C187.211 120.231 186.822 125.195 188.721 130.727C198.347 128.659 205.235 121.689 208.224 118.117C209.304 116.833 211.208 116.607 212.528 117.646C213.864 118.701 215.163 120.149 214.928 121.674C214.462 124.678 217.947 125.63 218.208 124.545C218.469 123.455 217.016 117.002 217.016 117.002C217.016 117.002 223.986 124.013 226.709 126.704C229.431 129.396 232.85 126.704 232.85 126.704C232.85 126.704 228.095 112.478 221.668 108.01Z" fill="#FCC088"/>
<path d="M107.911 46.145C107.911 46.145 133.002 36.0993 179.689 74.6497C179.689 74.6497 183.589 82.7201 179.336 89.9102C175.083 97.0953 134.542 132.109 128.969 151.525C128.969 151.525 104.82 159.371 79.8408 140.763C79.8408 140.758 82.0465 86.722 107.911 46.145Z" fill="url(#paint1_linear)"/>
<path d="M157.51 37.1836L145.162 52.1575C143.934 53.6416 143.667 55.7142 144.512 57.4439C146.226 60.9392 150.295 66.0312 159.317 65.3301C161.998 65.1203 164.378 63.5031 165.55 61.0774L174.188 43.2274L157.51 37.1836Z" fill="#FCC088"/>
<path d="M88.4844 110.271C85.5726 98.4088 115.075 71.9664 115.075 71.9664L107.911 46.1484C107.911 46.1484 44.2075 88.5575 60.4404 122.661C62.7688 127.548 65.8598 130.977 69.4421 133.264C74.5699 119.452 82.7477 113.122 88.4844 110.271Z" fill="#272727"/>
<path d="M88.4635 108.542C88.1513 108.542 87.8647 108.327 87.788 108.01C84.8096 95.8815 113.371 70.1096 114.589 69.0195C114.875 68.7637 115.315 68.7841 115.571 69.0707C115.827 69.3573 115.801 69.7974 115.52 70.0533C115.228 70.3143 86.3602 96.3523 89.1441 107.672C89.2363 108.046 89.006 108.425 88.6324 108.517C88.5761 108.537 88.5198 108.542 88.4635 108.542Z" fill="#242424"/>
<path d="M133.17 109.249C133.17 109.249 98.192 122.831 89.656 112.616C89.0777 111.925 88.699 111.132 88.4891 110.272C82.7524 113.123 74.5746 119.453 69.4468 133.26C87.8444 145.015 119.286 126.72 127.792 121.326C129.189 120.441 130.867 120.129 132.49 120.466C135.77 121.147 141.435 122.145 144.49 121.674C148.958 120.983 155.381 136.75 162.627 131.889C162.617 131.889 156.414 104.484 133.17 109.249Z" fill="#FFCA9A"/>
<path d="M184.382 15.1883C184.505 15.6694 181.486 48.4012 181.486 48.4012L162.832 46.2774L161.087 14.8301C161.087 14.8301 182.304 7.12819 184.382 15.1883Z" fill="#FFCA9A"/>
<path d="M165.948 21.35L165.569 37.9769C165.564 38.1919 165.59 38.3966 165.641 38.6064C165.963 39.8704 167.401 44.1384 171.68 42.4036C175.559 40.8274 179.126 39.4508 181.746 39.9472C182.923 40.1724 183.737 41.247 183.629 42.4445C183.353 45.4178 182.611 52.1065 181.075 57.8228C180.763 58.9844 179.612 59.7009 178.43 59.4911C174.868 58.8616 167.391 57.3315 161.665 54.6857C160.887 54.3275 160.37 53.5854 160.314 52.7308C160.032 48.5754 159.137 35.9453 158.343 32.4653C157.596 29.2003 153.318 27.66 151.476 27.1431C150.872 26.9742 150.37 26.5699 150.073 26.0121C149.029 24.0521 147.387 19.4412 153.144 16.8415C154.347 16.299 154.858 14.8764 154.28 13.6891C153.123 11.3248 152.34 7.60944 156.731 5.0302C161.194 2.41002 164.976 4.52869 167.094 6.35565C167.949 7.09257 169.193 7.08234 170.078 6.38123C170.579 5.98207 171.265 5.79272 172.166 6.22259C173.379 6.80599 174.827 6.15606 175.277 4.89203C176.147 2.4612 178.169 -0.261333 182.851 0.0201319C191.162 0.521651 193.076 9.45688 191.505 14.9889C189.934 20.521 180.958 19.4668 176.27 17.2765C172.708 15.6133 168.609 18.2181 166.849 19.5589C166.291 19.9939 165.963 20.6489 165.948 21.35Z" fill="#3A3A3A"/>
<path d="M158.266 38.5144C158.266 38.5144 160.59 28.7603 156.89 26.8361C153.195 24.9171 148.221 26.6673 150.094 33.3457C152.417 41.6565 158.266 38.5144 158.266 38.5144Z" fill="#FCC088"/>
<path d="M151.085 136.031C151.141 136.036 151.197 136.036 151.254 136.036L224.644 135.954C226.456 135.954 227.93 134.481 227.925 132.664C227.925 130.847 226.446 129.348 224.634 129.383L151.244 129.465C149.427 129.465 147.958 130.939 147.963 132.756C147.968 134.511 149.35 135.949 151.085 136.031Z" fill="#434343"/>
<path d="M290.616 69.3994H229.497C224.988 69.3994 220.884 71.9991 218.96 76.0778L190.706 135.989H266.661C269.567 135.989 272.177 134.213 273.247 131.511L295.155 76.0727C296.424 72.8691 294.065 69.3994 290.616 69.3994Z" fill="#434343"/>
<path d="M247.562 100.121C246.236 104.236 247.214 108.232 249.747 109.046C252.28 109.86 255.402 107.183 256.727 103.069C258.052 98.9542 257.075 94.9574 254.542 94.1438C252.009 93.3301 248.882 96.0065 247.562 100.121Z" fill="#F2C94C"/>
<path d="M280.709 293.436C281.113 293.436 281.527 293.359 281.927 293.19C283.493 292.54 284.214 290.785 283.539 289.27L218.863 143.707C218.193 142.192 216.376 141.491 214.81 142.146C213.244 142.796 212.522 144.551 213.198 146.066L277.873 291.629C278.375 292.76 279.516 293.436 280.709 293.436Z" fill="#4B4B4B"/>
<path d="M207.845 293.436C209.042 293.436 210.178 292.76 210.68 291.629L275.361 146.066C276.036 144.551 275.309 142.796 273.749 142.146C272.183 141.496 270.371 142.192 269.696 143.707L205.015 289.27C204.339 290.785 205.066 292.54 206.627 293.19C207.026 293.359 207.441 293.436 207.845 293.436Z" fill="#4B4B4B"/>
<path d="M80.5016 293.436C80.9058 293.436 81.3204 293.359 81.7195 293.19C83.2855 292.54 84.0071 290.785 83.3316 289.27L18.651 143.707C17.9754 142.192 16.1638 141.491 14.5978 142.146C13.0319 142.796 12.3103 144.551 12.9858 146.066L77.6664 291.629C78.1679 292.76 79.3092 293.436 80.5016 293.436Z" fill="#4B4B4B"/>
<path d="M7.63688 293.436C8.83438 293.436 9.97049 292.76 10.472 291.629L75.1526 146.066C75.8281 144.551 75.1014 142.796 73.5406 142.146C71.9746 141.496 70.163 142.192 69.4875 143.707L4.80686 289.27C4.13135 290.785 4.85805 292.54 6.4189 293.19C6.81807 293.359 7.23259 293.436 7.63688 293.436Z" fill="#4B4B4B"/>
<path d="M0.0528564 139.212C-0.110901 138.255 0.114227 137.267 0.666931 136.52C1.21964 135.768 2.04355 135.338 2.91354 135.338H297.152C298.293 135.338 299.357 135.988 299.971 137.068C300.586 138.147 300.667 139.498 300.191 140.66L297.003 148.388C296.271 150.158 294.69 151.289 292.95 151.289H4.92981C3.31268 151.289 1.92072 150.005 1.60855 148.224L0.0528564 139.212Z" fill="#FFD75C"/>
<defs>
<linearGradient id="paint0_linear" x1="513.45" y1="94" x2="495.45" y2="201" gradientUnits="userSpaceOnUse">
<stop stop-color="#242424"/>
<stop offset="1" stop-color="#404040"/>
</linearGradient>
<linearGradient id="paint1_linear" x1="136.698" y1="45.3907" x2="121.689" y2="154.647" gradientUnits="userSpaceOnUse">
<stop stop-color="#242424"/>
<stop offset="1" stop-color="#404040"/>
</linearGradient>
</defs>
</svg>
